RobotoFlexCondensed-Bold.ufo
<glyph name="dollar" format="2">
  <advance width="1170"/>
  <unicode hex="0024"/>
  <outline>
    <contour>
      <point x="118.6" y="449.0" type="curve" smooth="yes"/>
      <point x="118.6" y="467.06666666666666" type="line"/>
      <point x="407.5333333333333" y="467.06666666666666" type="line"/>
      <point x="407.5333333333333" y="453.0" type="line" smooth="yes"/>
      <point x="408" y="288"/>
      <point x="491" y="224"/>
      <point x="632.5666666666666" y="223.66666666666669" type="curve" smooth="yes"/>
      <point x="779" y="224"/>
      <point x="852" y="294"/>
      <point x="852.2333333333333" y="422.8" type="curve" smooth="yes"/>
      <point x="852" y="525"/>
      <point x="837" y="569"/>
      <point x="559.8" y="622.3666666666667" type="curve" smooth="yes"/>
      <point x="298" y="671"/>
      <point x="130" y="794"/>
      <point x="129.73333333333335" y="1032.6" type="curve" smooth="yes"/>
      <point x="130" y="1296"/>
      <point x="335" y="1456"/>
      <point x="624.1333333333333" y="1455.8666666666666" type="curve" smooth="yes"/>
      <point x="926" y="1456"/>
      <point x="1117" y="1284"/>
      <point x="1116.8" y="1015.8333333333334" type="curve" smooth="yes"/>
      <point x="1116.8" y="999.2666666666667" type="line"/>
      <point x="828.3666666666667" y="999.2666666666667" type="line"/>
      <point x="828.3666666666667" y="1012.3333333333334" type="line" smooth="yes"/>
      <point x="828" y="1153"/>
      <point x="759" y="1235"/>
      <point x="625.7" y="1234.6666666666667" type="curve" smooth="yes"/>
      <point x="491" y="1235"/>
      <point x="420" y="1178"/>
      <point x="420.23333333333335" y="1065.5333333333333" type="curve" smooth="yes"/>
      <point x="420" y="939"/>
      <point x="444" y="927"/>
      <point x="719.6" y="868.4666666666667" type="curve" smooth="yes"/>
      <point x="1015" y="803"/>
      <point x="1141" y="662"/>
      <point x="1141.1666666666667" y="441.3" type="curve" smooth="yes"/>
      <point x="1141" y="163"/>
      <point x="941" y="2"/>
      <point x="633.0666666666666" y="2.4000000000000004" type="curve" smooth="yes"/>
      <point x="323" y="2"/>
      <point x="119" y="150"/>
    </contour>
    <contour>
      <point x="519.3333333333334" y="-138.66666666666666" type="line"/>
      <point x="519.3333333333334" y="726.0" type="line"/>
      <point x="743.2" y="726.0" type="line"/>
      <point x="743.2" y="110.83333333333333" type="line"/>
      <point x="756.4333333333334" y="101.33333333333333" type="line"/>
      <point x="756.4333333333334" y="-138.66666666666666" type="line"/>
    </contour>
    <contour>
      <point x="521.5666666666666" y="726.0" type="line"/>
      <point x="521.5666666666666" y="1339.0" type="line"/>
      <point x="507.8333333333333" y="1349.0" type="line"/>
      <point x="507.8333333333333" y="1617.3333333333333" type="line"/>
      <point x="744.9333333333334" y="1617.3333333333333" type="line"/>
      <point x="744.9333333333334" y="726.0" type="line"/>
    </contour>
  </outline>
</glyph>
<glyph name="ampersand" format="2">
  <advance width="1192"/>
  <unicode hex="0026"/>
  <outline>
    <contour>
      <point x="75.5" y="380.0" type="curve" smooth="yes"/>
      <point x="74" y="600"/>
      <point x="216" y="725"/>
      <point x="382.4" y="848.9333333333333" type="curve" smooth="yes"/>
      <point x="553.0333333333333" y="966.7" type="line" smooth="yes"/>
      <point x="627" y="1027"/>
      <point x="635" y="1064"/>
      <point x="634.9666666666667" y="1139.0" type="curve" smooth="yes"/>
      <point x="635" y="1241"/>
      <point x="614" y="1278"/>
      <point x="552.8333333333334" y="1277.7666666666667" type="curve" smooth="yes"/>
      <point x="496" y="1278"/>
      <point x="471" y="1231"/>
      <point x="470.9666666666667" y="1129.5" type="curve" smooth="yes"/>
      <point x="471" y="1048"/>
      <point x="493" y="998"/>
      <point x="579.5666666666667" y="858.7666666666667" type="curve" smooth="yes"/>
      <point x="1170.5666666666666" y="0.0" type="line"/>
      <point x="854.9" y="0.0" type="line"/>
      <point x="372.1666666666667" y="708.0666666666667" type="line" smooth="yes"/>
      <point x="231" y="900"/>
      <point x="179" y="994"/>
      <point x="179.43333333333334" y="1128.5" type="curve" smooth="yes"/>
      <point x="179" y="1356"/>
      <point x="328" y="1486"/>
      <point x="553.3333333333334" y="1486.0" type="curve" smooth="yes"/>
      <point x="779" y="1486"/>
      <point x="915" y="1364"/>
      <point x="915.0" y="1147.5" type="curve" smooth="yes"/>
      <point x="915" y="982"/>
      <point x="845" y="888"/>
      <point x="709.9333333333334" y="793.0666666666667" type="curve" smooth="yes"/>
      <point x="539.7333333333333" y="677.8666666666667" type="line" smooth="yes"/>
      <point x="417" y="586"/>
      <point x="371" y="511"/>
      <point x="371.4666666666667" y="393.5" type="curve" smooth="yes"/>
      <point x="371" y="271"/>
      <point x="423" y="195"/>
      <point x="517.1" y="194.73333333333335" type="curve" smooth="yes"/>
      <point x="671" y="195"/>
      <point x="819" y="372"/>
      <point x="822.4666666666667" y="679.5" type="curve"/>
      <point x="1102.5" y="679.5" type="line"/>
      <point x="1102" y="286"/>
      <point x="843" y="-20"/>
      <point x="509.6" y="-20.0" type="curve" smooth="yes"/>
      <point x="230" y="-20"/>
      <point x="77" y="153"/>
    </contour>
  </outline>
</glyph>
<glyph name="parenleft" format="2">
  <advance width="749"/>
  <unicode hex="0028"/>
  <outline>
    <contour>
      <point x="611.6696916585333" y="-437.0" type="line"/>
      <point x="311" y="-303"/>
      <point x="108" y="-34"/>
      <point x="107.96153846154999" y="514.9384615384499" type="curve" smooth="yes"/>
      <point x="107.96153846154999" y="525.0" type="line" smooth="yes"/>
      <point x="108" y="1037"/>
      <point x="289" y="1331"/>
      <point x="611.1696916585333" y="1476.0" type="curve"/>
      <point x="611.1696916585333" y="1272.4758195391166" type="line"/>
      <point x="493" y="1174"/>
      <point x="400" y="976"/>
      <point x="399.5094352483" y="532.0" type="curve" smooth="yes"/>
      <point x="399.5094352483" y="508.0" type="line" smooth="yes"/>
      <point x="400" y="43"/>
      <point x="481" y="-132"/>
      <point x="611.6696916585333" y="-232.47581953911666" type="curve"/>
    </contour>
  </outline>
</glyph>
<glyph name="parenright" format="2">
  <advance width="749"/>
  <unicode hex="0029"/>
  <outline>
    <contour>
      <point x="137.39102564103334" y="-436.0" type="curve"/>
      <point x="137.39102564103334" y="-232.47581953911666" type="line"/>
      <point x="260" y="-142"/>
      <point x="348" y="43"/>
      <point x="348.48461538460003" y="508.0" type="curve" smooth="yes"/>
      <point x="348.48461538460003" y="532.0" type="line" smooth="yes"/>
      <point x="348" y="976"/>
      <point x="256" y="1173"/>
      <point x="137.39102564103334" y="1271.9758195391166" type="curve"/>
      <point x="137.39102564103334" y="1476.0" type="line"/>
      <point x="430" y="1338"/>
      <point x="641" y="1049"/>
      <point x="641.0991788380167" y="525.0615384615501" type="curve" smooth="yes"/>
      <point x="641.0991788380167" y="515.0" type="line" smooth="yes"/>
      <point x="641" y="-34"/>
      <point x="440" y="-300"/>
    </contour>
  </outline>
</glyph>
<glyph name="comma" format="2">
  <advance width="626"/>
  <unicode hex="002C"/>
  <outline>
    <contour>
      <point x="85.12445634536667" y="-225.25641025643333" type="line"/>
      <point x="157" y="-133"/>
      <point x="193" y="-40"/>
      <point x="193.16923076925002" y="90.92051282051668" type="curve" smooth="yes"/>
      <point x="193.16923076925002" y="303.04102564103334" type="line"/>
      <point x="457.75150925025" y="303.04102564103334" type="line"/>
      <point x="457.85674001944994" y="91.16666666666666" type="line" smooth="yes"/>
      <point x="458" y="-78"/>
      <point x="376" y="-221"/>
      <point x="250.4156553067" y="-322.4653846154" type="curve"/>
    </contour>
  </outline>
</glyph>
<glyph name="zero" format="2">
  <advance width="1030"/>
  <unicode hex="0030"/>
  <outline>
    <contour>
      <point x="79.53333333333333" y="445.8333333333333" type="curve" smooth="yes"/>
      <point x="79.53333333333333" y="1010.1666666666666" type="line" smooth="yes"/>
      <point x="80" y="1293"/>
      <point x="229" y="1486"/>
      <point x="514.5666666666667" y="1485.5" type="curve" smooth="yes"/>
      <point x="800" y="1486"/>
      <point x="951" y="1294"/>
      <point x="950.6" y="1010.1666666666666" type="curve" smooth="yes"/>
      <point x="950.6" y="445.8333333333333" type="line" smooth="yes"/>
      <point x="951" y="166"/>
      <point x="798" y="-30"/>
      <point x="514.5666666666667" y="-29.5" type="curve" smooth="yes"/>
      <point x="228" y="-30"/>
      <point x="80" y="166"/>
    </contour>
    <contour>
      <point x="388.0" y="417.8333333333333" type="line" smooth="yes"/>
      <point x="388" y="294"/>
      <point x="421" y="198"/>
      <point x="515.5666666666667" y="198.16666666666669" type="curve" smooth="yes"/>
      <point x="610" y="198"/>
      <point x="643" y="294"/>
      <point x="643.1333333333333" y="417.8333333333333" type="curve" smooth="yes"/>
      <point x="643.1333333333333" y="1037.1666666666667" type="line" smooth="yes"/>
      <point x="643" y="1166"/>
      <point x="609" y="1257"/>
      <point x="515.5666666666667" y="1257.3333333333333" type="curve" smooth="yes"/>
      <point x="422" y="1257"/>
      <point x="388" y="1166"/>
      <point x="388.0" y="1037.1666666666667" type="curve" smooth="yes"/>
    </contour>
  </outline>
</glyph>
<glyph name="two" format="2">
  <advance width="1030"/>
  <unicode hex="0032"/>
  <outline>
    <contour>
      <point x="83.03333333333333" y="0.0" type="line"/>
      <point x="83.03333333333333" y="181.73333333333335" type="line"/>
      <point x="500.1" y="802.4" type="line" smooth="yes"/>
      <point x="580" y="922"/>
      <point x="628" y="1002"/>
      <point x="627.8333333333333" y="1101.6666666666667" type="curve" smooth="yes"/>
      <point x="628" y="1206"/>
      <point x="592" y="1257"/>
      <point x="510.56666666666666" y="1257.3333333333333" type="curve" smooth="yes"/>
      <point x="428" y="1257"/>
      <point x="379" y="1197"/>
      <point x="379.0" y="1013.5" type="curve" smooth="yes"/>
      <point x="379.0" y="985.0" type="line"/>
      <point x="76.53333333333333" y="985.0" type="line"/>
      <point x="76.53333333333333" y="1019.0" type="line" smooth="yes"/>
      <point x="77" y="1317"/>
      <point x="244" y="1486"/>
      <point x="509.06666666666666" y="1485.5" type="curve" smooth="yes"/>
      <point x="796" y="1486"/>
      <point x="934" y="1347"/>
      <point x="934.3" y="1113.1666666666667" type="curve" smooth="yes"/>
      <point x="934" y="950"/>
      <point x="863" y="853"/>
      <point x="735.1666666666666" y="665.2" type="curve" smooth="yes"/>
      <point x="442.5" y="224.5" type="line"/>
      <point x="957.9" y="224.5" type="line"/>
      <point x="957.9" y="0.0" type="line"/>
    </contour>
  </outline>
</glyph>
<glyph name="three" format="2">
  <advance width="1030"/>
  <unicode hex="0033"/>
  <outline>
    <contour>
      <point x="56.03333333333333" y="401.5" type="curve" smooth="yes"/>
      <point x="56.03333333333333" y="424.0" type="line"/>
      <point x="354.0" y="424.0" type="line"/>
      <point x="354.0" y="403.5" type="line" smooth="yes"/>
      <point x="354" y="273"/>
      <point x="399" y="195"/>
      <point x="496.0" y="195.16666666666669" type="curve" smooth="yes"/>
      <point x="593" y="195"/>
      <point x="640" y="268"/>
      <point x="639.5" y="425.0" type="curve" smooth="yes"/>
      <point x="640" y="574"/>
      <point x="585" y="648"/>
      <point x="466.8333333333333" y="647.6333333333333" type="curve" smooth="yes"/>
      <point x="351.26666666666665" y="647.6333333333333" type="line"/>
      <point x="351.26666666666665" y="864.3666666666667" type="line"/>
      <point x="458.9" y="864.3666666666667" type="line" smooth="yes"/>
      <point x="556" y="864"/>
      <point x="602" y="938"/>
      <point x="602.4" y="1070.5666666666666" type="curve" smooth="yes"/>
      <point x="602" y="1195"/>
      <point x="568" y="1261"/>
      <point x="489.5" y="1260.8333333333333" type="curve" smooth="yes"/>
      <point x="418" y="1261"/>
      <point x="374" y="1195"/>
      <point x="374.1666666666667" y="1072.0" type="curve" smooth="yes"/>
      <point x="374.1666666666667" y="1056.5" type="line"/>
      <point x="77.2" y="1056.5" type="line"/>
      <point x="77.2" y="1071.0" type="line" smooth="yes"/>
      <point x="77" y="1303"/>
      <point x="236" y="1486"/>
      <point x="496.5" y="1486.0" type="curve" smooth="yes"/>
      <point x="777" y="1486"/>
      <point x="906" y="1316"/>
      <point x="906.3666666666667" y="1109.5" type="curve" smooth="yes"/>
      <point x="906" y="951"/>
      <point x="846" y="825"/>
      <point x="710.3666666666667" y="766.0" type="curve"/>
      <point x="710.3666666666667" y="762.0" type="line"/>
      <point x="858" y="722"/>
      <point x="947" y="594"/>
      <point x="946.9666666666667" y="412.5" type="curve" smooth="yes"/>
      <point x="947" y="138"/>
      <point x="786" y="-30"/>
      <point x="491.5" y="-29.5" type="curve" smooth="yes"/>
      <point x="218" y="-30"/>
      <point x="56" y="144"/>
    </contour>
  </outline>
</glyph>
<glyph name="five" format="2">
  <advance width="1030"/>
  <unicode hex="0035"/>
  <outline>
    <contour>
      <point x="65.53333333333333" y="391.0" type="curve" smooth="yes"/>
      <point x="65.53333333333333" y="412.0" type="line"/>
      <point x="365.0" y="412.0" type="line"/>
      <point x="365.0" y="392.5" type="line" smooth="yes"/>
      <point x="365" y="268"/>
      <point x="417" y="195"/>
      <point x="510.56666666666666" y="195.16666666666669" type="curve" smooth="yes"/>
      <point x="611" y="195"/>
      <point x="652" y="291"/>
      <point x="652.5" y="467.5" type="curve" smooth="yes"/>
      <point x="652" y="642"/>
      <point x="606" y="731"/>
      <point x="511.6333333333333" y="731.2" type="curve" smooth="yes"/>
      <point x="430" y="731"/>
      <point x="376" y="684"/>
      <point x="340.0" y="624.5333333333333" type="curve"/>
      <point x="113.63333333333333" y="730.0" type="line"/>
      <point x="186.0" y="1456.0" type="line"/>
      <point x="887.7" y="1456.0" type="line"/>
      <point x="887.7" y="1218.9" type="line"/>
      <point x="425.6" y="1219.9" type="line"/>
      <point x="394.1666666666667" y="909.3" type="line"/>
      <point x="438" y="944"/>
      <point x="488" y="962"/>
      <point x="566.2333333333333" y="962.3666666666667" type="curve" smooth="yes"/>
      <point x="798" y="962"/>
      <point x="954" y="786"/>
      <point x="954.4666666666667" y="482.0" type="curve" smooth="yes"/>
      <point x="954" y="170"/>
      <point x="801" y="-30"/>
      <point x="511.06666666666666" y="-29.5" type="curve" smooth="yes"/>
      <point x="236" y="-30"/>
      <point x="66" y="146"/>
    </contour>
  </outline>
</glyph>
<glyph name="six" format="2">
  <advance width="1030"/>
  <unicode hex="0036"/>
  <outline>
    <contour>
      <point x="65.03333333333333" y="607.5" type="curve" smooth="yes"/>
      <point x="65.03333333333333" y="643.5" type="line" smooth="yes"/>
      <point x="65" y="1151"/>
      <point x="316" y="1471"/>
      <point x="813.0" y="1471.0" type="curve" smooth="yes"/>
      <point x="836.8" y="1471.0" type="line"/>
      <point x="836.8" y="1237.8333333333333" type="line"/>
      <point x="814.5" y="1237.8333333333333" type="line" smooth="yes"/>
      <point x="518" y="1238"/>
      <point x="362" y="1070"/>
      <point x="362.0" y="647.5" type="curve" smooth="yes"/>
      <point x="362.0" y="599.5" type="line" smooth="yes"/>
      <point x="362" y="298"/>
      <point x="415" y="193"/>
      <point x="530.7333333333333" y="192.66666666666669" type="curve" smooth="yes"/>
      <point x="637" y="193"/>
      <point x="672" y="290"/>
      <point x="672.2333333333333" y="473.0" type="curve" smooth="yes"/>
      <point x="672" y="649"/>
      <point x="634" y="751"/>
      <point x="528.2333333333333" y="750.7" type="curve" smooth="yes"/>
      <point x="423" y="751"/>
      <point x="358" y="652"/>
      <point x="358.0" y="481.0" type="curve"/>
      <point x="258.2" y="481.0" type="line"/>
      <point x="258" y="774"/>
      <point x="368" y="967"/>
      <point x="590.2666666666667" y="967.3666666666667" type="curve" smooth="yes"/>
      <point x="832" y="967"/>
      <point x="974" y="773"/>
      <point x="974.2" y="477.5" type="curve" smooth="yes"/>
      <point x="974" y="176"/>
      <point x="816" y="-30"/>
      <point x="530.2333333333333" y="-29.5" type="curve" smooth="yes"/>
      <point x="263" y="-30"/>
      <point x="65" y="153"/>
    </contour>
  </outline>
</glyph>
<glyph name="eight" format="2">
  <advance width="1017"/>
  <unicode hex="0038"/>
  <outline>
    <contour>
      <point x="57.39047619047619" y="388.0" type="curve" smooth="yes"/>
      <point x="57" y="580"/>
      <point x="170" y="698"/>
      <point x="299.34285714285716" y="746.6571428571428" type="curve"/>
      <point x="299.34285714285716" y="750.6571428571428" type="line"/>
      <point x="180" y="809"/>
      <point x="98" y="926"/>
      <point x="97.99047619047619" y="1093.5" type="curve" smooth="yes"/>
      <point x="98" y="1325"/>
      <point x="245" y="1486"/>
      <point x="507.1428571428571" y="1485.5" type="curve" smooth="yes"/>
      <point x="769" y="1486"/>
      <point x="919" y="1322"/>
      <point x="919.1428571428571" y="1093.0" type="curve" smooth="yes"/>
      <point x="919" y="926"/>
      <point x="847" y="811"/>
      <point x="727.0095238095238" y="750.6571428571428" type="curve"/>
      <point x="727.0095238095238" y="746.6571428571428" type="line"/>
      <point x="858" y="702"/>
      <point x="959" y="582"/>
      <point x="959.2428571428571" y="388.0" type="curve" smooth="yes"/>
      <point x="959" y="123"/>
      <point x="792" y="-30"/>
      <point x="507.1428571428571" y="-29.5" type="curve" smooth="yes"/>
      <point x="223" y="-30"/>
      <point x="57" y="123"/>
    </contour>
    <contour>
      <point x="359.8571428571429" y="409.93333333333334" type="curve" smooth="yes"/>
      <point x="360" y="275"/>
      <point x="402" y="187"/>
      <point x="507.1428571428571" y="187.16666666666666" type="curve" smooth="yes"/>
      <point x="611" y="187"/>
      <point x="656" y="275"/>
      <point x="655.7095238095238" y="409.93333333333334" type="curve" smooth="yes"/>
      <point x="656" y="550"/>
      <point x="618" y="639"/>
      <point x="507.1428571428571" y="639.1333333333333" type="curve" smooth="yes"/>
      <point x="395" y="639"/>
      <point x="360" y="550"/>
    </contour>
    <contour>
      <point x="389.95714285714286" y="1062.5666666666666" type="curve" smooth="yes"/>
      <point x="390" y="936"/>
      <point x="412" y="850"/>
      <point x="507.1428571428571" y="850.3666666666667" type="curve" smooth="yes"/>
      <point x="600" y="850"/>
      <point x="627" y="936"/>
      <point x="626.6761904761904" y="1062.5666666666666" type="curve" smooth="yes"/>
      <point x="627" y="1185"/>
      <point x="596" y="1268"/>
      <point x="507.1428571428571" y="1268.3333333333333" type="curve" smooth="yes"/>
      <point x="417" y="1268"/>
      <point x="390" y="1185"/>
    </contour>
  </outline>
</glyph>
<glyph name="colon" format="2">
  <advance width="657"/>
  <unicode hex="003A"/>
  <outline>
    <contour>
      <point x="150.50769230769998" y="143.96666666666667" type="curve" smooth="yes"/>
      <point x="151" y="235"/>
      <point x="213" y="309"/>
      <point x="328.4493021746333" y="309.0641025640833" type="curve" smooth="yes"/>
      <point x="443" y="309"/>
      <point x="507" y="235"/>
      <point x="506.8909120415667" y="143.96666666666667" type="curve" smooth="yes"/>
      <point x="507" y="52"/>
      <point x="444" y="-22"/>
      <point x="328.6159175592333" y="-21.8153846154" type="curve" smooth="yes"/>
      <point x="213" y="-22"/>
      <point x="151" y="52"/>
    </contour>
    <contour>
      <point x="150.50769230769998" y="921.3102564102334" type="curve" smooth="yes"/>
      <point x="151" y="1013"/>
      <point x="213" y="1087"/>
      <point x="328.6159175592333" y="1086.7673846154" type="curve" smooth="yes"/>
      <point x="444" y="1087"/>
      <point x="507" y="1013"/>
      <point x="506.8909120415667" y="921.3102564102334" type="curve" smooth="yes"/>
      <point x="507" y="830"/>
      <point x="443" y="756"/>
      <point x="328.4493021746333" y="756.0282051282167" type="curve" smooth="yes"/>
      <point x="213" y="756"/>
      <point x="151" y="830"/>
    </contour>
  </outline>
</glyph>
<glyph name="semicolon" format="2">
  <advance width="657"/>
  <unicode hex="003B"/>
  <outline>
    <contour>
      <point x="104.111661149" y="-225.37948717948333" type="line"/>
      <point x="176" y="-134"/>
      <point x="213" y="-40"/>
      <point x="213.0384868549" y="90.18205128206667" type="curve" smooth="yes"/>
      <point x="212.85433300875002" y="290.43333333333334" type="line"/>
      <point x="465.0801687763833" y="290.43333333333334" type="line"/>
      <point x="465.22924569943336" y="91.49487179488334" type="line" smooth="yes"/>
      <point x="465" y="-79"/>
      <point x="391" y="-222"/>
      <point x="268.1720908795833" y="-322.4653846154" type="curve"/>
    </contour>
    <contour>
      <point x="153.8923076923" y="921.3102564102334" type="curve" smooth="yes"/>
      <point x="154" y="1013"/>
      <point x="215" y="1087"/>
      <point x="327.6159175592333" y="1086.7673846154" type="curve" smooth="yes"/>
      <point x="440" y="1087"/>
      <point x="502" y="1013"/>
      <point x="501.5062966569167" y="921.3102564102334" type="curve" smooth="yes"/>
      <point x="502" y="830"/>
      <point x="440" y="756"/>
      <point x="327.4493021746333" y="756.0282051282167" type="curve" smooth="yes"/>
      <point x="215" y="756"/>
      <point x="154" y="830"/>
    </contour>
  </outline>
</glyph>
<glyph name="question" format="2">
  <advance width="1098"/>
  <unicode hex="003F"/>
  <outline>
    <contour>
      <point x="325.29842583578335" y="140.38205128206667" type="curve" smooth="yes"/>
      <point x="325" y="229"/>
      <point x="389" y="302"/>
      <point x="504.61690749754996" y="302.2641025640833" type="curve" smooth="yes"/>
      <point x="622" y="302"/>
      <point x="685" y="229"/>
      <point x="685.0020558260333" y="140.38205128206667" type="curve" smooth="yes"/>
      <point x="685" y="51"/>
      <point x="623" y="-22"/>
      <point x="505.6835741642167" y="-22.0" type="curve" smooth="yes"/>
      <point x="389" y="-22"/>
      <point x="325" y="51"/>
    </contour>
    <contour>
      <point x="130.0923076923" y="1049.61923076925" type="line"/>
      <point x="130.0923076923" y="1085.1653846154" type="line" smooth="yes"/>
      <point x="130" y="1347"/>
      <point x="291" y="1476"/>
      <point x="530.7852158390167" y="1476.0" type="curve" smooth="yes"/>
      <point x="773" y="1476"/>
      <point x="938" y="1342"/>
      <point x="937.7803369036" y="1079.5102564102333" type="curve" smooth="yes"/>
      <point x="938" y="891"/>
      <point x="842" y="773"/>
      <point x="739.1659805258" y="687.4769230769" type="curve" smooth="yes"/>
      <point x="655" y="616"/>
      <point x="650" y="518"/>
      <point x="649.7120837390501" y="439.67692307690004" type="curve" smooth="yes"/>
      <point x="649.7120837390501" y="427.7076923077" type="line"/>
      <point x="351.7494793898333" y="427.7076923077" type="line"/>
      <point x="351.7494793898333" y="441.0923076923" type="line" smooth="yes"/>
      <point x="352" y="598"/>
      <point x="370" y="695"/>
      <point x="496.1333333333333" y="817.2" type="curve" smooth="yes"/>
      <point x="593" y="909"/>
      <point x="636" y="956"/>
      <point x="635.9333333333334" y="1073.1333333333334" type="curve" smooth="yes"/>
      <point x="636" y="1205"/>
      <point x="606" y="1256"/>
      <point x="528.7666666666667" y="1256.3333333333333" type="curve" smooth="yes"/>
      <point x="457" y="1256"/>
      <point x="424" y="1204"/>
      <point x="423.66666666666663" y="1079.5" type="curve" smooth="yes"/>
      <point x="423.7390619928667" y="1049.61923076925" type="line"/>
    </contour>
  </outline>
</glyph>
<glyph name="at" format="2">
  <advance width="1939"/>
  <unicode hex="0040"/>
  <outline>
    <contour>
      <point x="557.4962719896333" y="400.0" type="curve" smooth="yes"/>
      <point x="558" y="791"/>
      <point x="765" y="1052"/>
      <point x="995.9666666666667" y="1052.0" type="curve" smooth="yes"/>
      <point x="1097" y="1052"/>
      <point x="1171" y="998"/>
      <point x="1218.5168691983167" y="946.0" type="curve"/>
      <point x="1402.3207997403333" y="946.0" type="line"/>
      <point x="1312.3207997403333" y="350.0" type="line" smooth="yes"/>
      <point x="1294" y="218"/>
      <point x="1329" y="172"/>
      <point x="1382.2054151249833" y="172.31794871793335" type="curve" smooth="yes"/>
      <point x="1486" y="172"/>
      <point x="1558" y="360"/>
      <point x="1558.37208179165" y="646.86153846155" type="curve" smooth="yes"/>
      <point x="1558" y="987"/>
      <point x="1357" y="1281"/>
      <point x="1004.1514845829166" y="1280.9871794871833" type="curve" smooth="yes"/>
      <point x="653" y="1281"/>
      <point x="390" y="916"/>
      <point x="389.76422070756666" y="456.86153846155" type="curve" smooth="yes"/>
      <point x="390" y="9"/>
      <point x="615" y="-240"/>
      <point x="924.8758435572834" y="-239.87948717948333" type="curve" smooth="yes"/>
      <point x="1065" y="-240"/>
      <point x="1158" y="-199"/>
      <point x="1225.04251022395" y="-150.49487179488335" type="curve"/>
      <point x="1225.04251022395" y="-356.6153846154" type="line"/>
      <point x="1153" y="-415"/>
      <point x="1065" y="-446"/>
      <point x="924.8758435572834" y="-446.0" type="curve" smooth="yes"/>
      <point x="478" y="-446"/>
      <point x="107" y="-103"/>
      <point x="107.1076923077" y="460.0" type="curve" smooth="yes"/>
      <point x="107" y="1023"/>
      <point x="515" y="1486"/>
      <point x="1004.1514845829166" y="1486.0" type="curve" smooth="yes"/>
      <point x="1501" y="1486"/>
      <point x="1835" y="1119"/>
      <point x="1834.6309457968332" y="650.0" type="curve" smooth="yes"/>
      <point x="1835" y="261"/>
      <point x="1628" y="0"/>
      <point x="1358.6432632262333" y="0.0" type="curve" smooth="yes"/>
      <point x="1229" y="0"/>
      <point x="1131" y="71"/>
      <point x="1090.40850827655" y="180.0" type="curve"/>
      <point x="1041" y="70"/>
      <point x="959" y="0"/>
      <point x="868.4066127880333" y="0.0" type="curve" smooth="yes"/>
      <point x="677" y="0"/>
      <point x="558" y="159"/>
    </contour>
    <contour>
      <point x="819.9194333009" y="401.66153846155" type="curve" smooth="yes"/>
      <point x="820" y="264"/>
      <point x="853" y="193"/>
      <point x="910.6489204803834" y="193.34358974356667" type="curve" smooth="yes"/>
      <point x="980" y="193"/>
      <point x="1040" y="251"/>
      <point x="1066.4724712755499" y="416.5" type="curve" smooth="yes"/>
      <point x="1124.1800240181667" y="825.2846153846" type="line"/>
      <point x="1095" y="853"/>
      <point x="1054" y="867"/>
      <point x="1015.9531009412667" y="866.8743589743667" type="curve" smooth="yes"/>
      <point x="903" y="867"/>
      <point x="820" y="669"/>
    </contour>
  </outline>
</glyph>
<glyph name="A" format="2">
  <advance width="1085"/>
  <unicode hex="0041"/>
  <outline>
    <contour>
      <point x="-17.73076923075" y="0.0" type="line"/>
      <point x="370.2701071081" y="1463.1923076923" type="line"/>
      <point x="716.2615157416667" y="1463.1923076923" type="line"/>
      <point x="1110.1673742291332" y="0.0" type="line"/>
      <point x="793.8918305745" y="0.0" type="line"/>
      <point x="555.2718701720166" y="1028.1487179487333" type="line" smooth="yes"/>
      <point x="545" y="1075"/>
      <point x="536" y="1114"/>
      <point x="530.1077676079333" y="1154.8564102564333" type="curve"/>
      <point x="523.6103317104667" y="1154.8564102564333" type="line"/>
      <point x="517" y="1114"/>
      <point x="508" y="1075"/>
      <point x="496.3744342746" y="1028.2102564102333" type="curve" smooth="yes"/>
      <point x="255.02966504379998" y="0.0" type="line"/>
    </contour>
    <contour>
      <point x="210.16653683868333" y="323.24102564103333" type="line"/>
      <point x="267.52849724116663" y="546.1974358974167" type="line"/>
      <point x="803.56594547225" y="546.1974358974167" type="line"/>
      <point x="861.2603752028334" y="323.24102564103333" type="line"/>
    </contour>
  </outline>
</glyph>
<glyph name="C" format="2">
  <advance width="1187"/>
  <unicode hex="0043"/>
  <outline>
    <contour>
      <point x="99.5" y="682.5" type="curve" smooth="yes"/>
      <point x="99.5" y="773.5" type="line" smooth="yes"/>
      <point x="100" y="1281"/>
      <point x="308" y="1486"/>
      <point x="659.9" y="1485.5" type="curve" smooth="yes"/>
      <point x="975" y="1486"/>
      <point x="1163" y="1301"/>
      <point x="1168.652380952381" y="972.5" type="curve" smooth="yes"/>
      <point x="1168.8666666666668" y="948.5" type="line"/>
      <point x="867.9" y="948.5" type="line"/>
      <point x="867.6857142857143" y="976.5" type="line" smooth="yes"/>
      <point x="864" y="1132"/>
      <point x="820" y="1255"/>
      <point x="656.9" y="1254.8333333333333" type="curve" smooth="yes"/>
      <point x="474" y="1255"/>
      <point x="405" y="1134"/>
      <point x="405.4" y="850.2333333333333" type="curve" smooth="yes"/>
      <point x="405.4" y="606.8333333333334" type="line" smooth="yes"/>
      <point x="405" y="325"/>
      <point x="489" y="201"/>
      <point x="659.8333333333334" y="200.66666666666669" type="curve" smooth="yes"/>
      <point x="810" y="201"/>
      <point x="871" y="339"/>
      <point x="868.4666666666667" y="481.0" type="curve"/>
      <point x="867.9" y="507.0" type="line"/>
      <point x="1168.8666666666668" y="507.0" type="line"/>
      <point x="1169.4333333333334" y="481.0" type="line" smooth="yes"/>
      <point x="1185" y="155"/>
      <point x="975" y="-30"/>
      <point x="659.9" y="-29.5" type="curve" smooth="yes"/>
      <point x="303" y="-30"/>
      <point x="100" y="186"/>
    </contour>
  </outline>
</glyph>
<glyph name="M" format="2">
  <advance width="1576"/>
  <unicode hex="004D"/>
  <outline>
    <contour>
      <point x="155.0" y="0.0" type="line"/>
      <point x="155.0" y="1456.0" type="line"/>
      <point x="551.5213112625667" y="1456.0" type="line"/>
      <point x="760.4666666666667" y="528.1904761904761" type="line" smooth="yes"/>
      <point x="773" y="475"/>
      <point x="780" y="432"/>
      <point x="784.7333333333333" y="368.4238095238095" type="curve"/>
      <point x="789.1" y="368.4238095238095" type="line"/>
      <point x="795" y="432"/>
      <point x="801" y="477"/>
      <point x="813.8666666666667" y="529.2571428571429" type="curve" smooth="yes"/>
      <point x="1029.5349230769" y="1456.0" type="line"/>
      <point x="1431.0998227848" y="1456.0" type="line"/>
      <point x="1431.0998227848" y="0.0" type="line"/>
      <point x="1136.3556410256333" y="0.0" type="line"/>
      <point x="1136.3556410256333" y="869.1728010386166" type="line" smooth="yes"/>
      <point x="1136" y="923"/>
      <point x="1143" y="990"/>
      <point x="1144.557142857143" y="1041.0" type="curve"/>
      <point x="1135.7" y="1041.0" type="line"/>
      <point x="1130" y="990"/>
      <point x="1113" y="923"/>
      <point x="1100.1389743589666" y="869.1728010386166" type="curve" smooth="yes"/>
      <point x="890.6974871794833" y="0.0" type="line"/>
      <point x="642.2083998701667" y="0.0" type="line"/>
      <point x="432.84876923075" y="868.9955858487667" type="line" smooth="yes"/>
      <point x="420" y="923"/>
      <point x="406" y="990"/>
      <point x="399.9666666666667" y="1041.0" type="curve"/>
      <point x="391.1095238095238" y="1041.0" type="line"/>
      <point x="393" y="990"/>
      <point x="398" y="922"/>
      <point x="398.2038974359167" y="868.9955858487667" type="curve" smooth="yes"/>
      <point x="398.2038974359167" y="0.0" type="line"/>
    </contour>
  </outline>
</glyph>
<glyph name="N" format="2">
  <advance width="1279"/>
  <unicode hex="004E"/>
  <outline>
    <contour>
      <point x="155.0" y="0.0" type="line"/>
      <point x="155.0" y="1456.0" type="line"/>
      <point x="500.0333333333333" y="1456.0" type="line"/>
      <point x="826.6333333333333" y="563.2333333333333" type="line" smooth="yes"/>
      <point x="837" y="530"/>
      <point x="859" y="474"/>
      <point x="869.7571428571429" y="421.0" type="curve"/>
      <point x="878.1857142857143" y="421.0" type="line"/>
      <point x="872" y="473"/>
      <point x="873" y="526"/>
      <point x="873.3333333333334" y="574.1" type="curve" smooth="yes"/>
      <point x="873.3333333333334" y="1456.0" type="line"/>
      <point x="1129.2333333333333" y="1456.0" type="line"/>
      <point x="1129.2333333333333" y="0.0" type="line"/>
      <point x="776.7" y="0.0" type="line"/>
      <point x="450.26666666666665" y="901.1666666666666" type="line" smooth="yes"/>
      <point x="435" y="942"/>
      <point x="421" y="980"/>
      <point x="411.5571428571429" y="1030.9" type="curve"/>
      <point x="402.34761904761905" y="1030.9" type="line"/>
      <point x="408" y="980"/>
      <point x="409" y="934"/>
      <point x="408.76666666666665" y="883.6666666666666" type="curve" smooth="yes"/>
      <point x="408.76666666666665" y="0.0" type="line"/>
    </contour>
  </outline>
</glyph>
<glyph name="P" format="2">
  <advance width="1162"/>
  <unicode hex="0050"/>
  <outline>
    <contour>
      <point x="155.0" y="0.0" type="line"/>
      <point x="155.0" y="1456.0" type="line"/>
      <point x="626.8" y="1456.0" type="line" smooth="yes"/>
      <point x="924" y="1456"/>
      <point x="1086" y="1317"/>
      <point x="1086.0333333333333" y="986.5666666666667" type="curve" smooth="yes"/>
      <point x="1086" y="657"/>
      <point x="925" y="514"/>
      <point x="626.3" y="513.6333333333333" type="curve" smooth="yes"/>
      <point x="452.9666666666667" y="513.6333333333333" type="line"/>
      <point x="452.9666666666667" y="0.0" type="line"/>
    </contour>
    <contour>
      <point x="452.9666666666667" y="737.8666666666667" type="line"/>
      <point x="598.8" y="737.8666666666667" type="line" smooth="yes"/>
      <point x="743" y="738"/>
      <point x="789" y="823"/>
      <point x="788.5666666666666" y="986.0666666666667" type="curve" smooth="yes"/>
      <point x="789" y="1149"/>
      <point x="743" y="1231"/>
      <point x="598.8" y="1231.3333333333333" type="curve" smooth="yes"/>
      <point x="452.9666666666667" y="1231.3333333333333" type="line"/>
    </contour>
  </outline>
</glyph>
<glyph name="V" format="2">
  <advance width="1026"/>
  <unicode hex="0056"/>
  <outline>
    <contour>
      <point x="-27.6923076923" y="1456.0" type="line"/>
      <point x="290.9793852645166" y="1456.0" type="line"/>
      <point x="508.0333333333333" y="456.9" type="line" smooth="yes"/>
      <point x="516" y="419"/>
      <point x="523" y="380"/>
      <point x="526.4333333333334" y="332.9666666666667" type="curve"/>
      <point x="534.0809523809523" y="332.9666666666667" type="line"/>
      <point x="536" y="380"/>
      <point x="543" y="420"/>
      <point x="551.1333333333333" y="456.9" type="curve" smooth="yes"/>
      <point x="775.72104576435" y="1456.0" type="line"/>
      <point x="1054.0626828951833" y="1456.0" type="line"/>
      <point x="683.7934521259333" y="-4.74615384615" type="line"/>
      <point x="344.5769230769" y="-4.74615384615" type="line"/>
    </contour>
  </outline>
</glyph>
<glyph name="W" format="2">
  <advance width="1639"/>
  <unicode hex="0057"/>
  <outline>
    <contour>
      <point x="287.5214436871167" y="-4.1923076923" type="line"/>
      <point x="30.0769230769" y="1456.0" type="line"/>
      <point x="319.71369184403807" y="1456.0" type="line"/>
      <point x="469.0761904761905" y="467.4666666666667" type="line" smooth="yes"/>
      <point x="477" y="418"/>
      <point x="479" y="404"/>
      <point x="481.5952380952381" y="354.18095238095236" type="curve"/>
      <point x="487.6047619047619" y="354.18095238095236" type="line"/>
      <point x="492" y="404"/>
      <point x="492" y="418"/>
      <point x="500.4761904761905" y="467.4666666666667" type="curve" smooth="yes"/>
      <point x="672.1460874483953" y="1456.0" type="line"/>
      <point x="1001.2931725321047" y="1456.0" type="line"/>
      <point x="1189.0238095238096" y="468.9666666666667" type="line" smooth="yes"/>
      <point x="1198" y="420"/>
      <point x="1198" y="404"/>
      <point x="1203.4619047619049" y="354.18095238095236" type="curve"/>
      <point x="1210.252380952381" y="354.18095238095236" type="line"/>
      <point x="1215" y="404"/>
      <point x="1217" y="420"/>
      <point x="1222.557142857143" y="468.9666666666667" type="curve" smooth="yes"/>
      <point x="1354.4419809894619" y="1456.0" type="line"/>
      <point x="1609.3395780590668" y="1456.0" type="line"/>
      <point x="1350.3731165206166" y="-4.1923076923" type="line"/>
      <point x="1018.8956492789953" y="-4.1923076923" type="line"/>
      <point x="839.0666666666666" y="990.4333333333334" type="line" smooth="yes"/>
      <point x="830" y="1040"/>
      <point x="828" y="1060"/>
      <point x="824.1857142857143" y="1108.5333333333333" type="curve"/>
      <point x="816.6142857142858" y="1108.5333333333333" type="line"/>
      <point x="812" y="1060"/>
      <point x="813" y="1040"/>
      <point x="803.3" y="990.4333333333334" type="curve" smooth="yes"/>
      <point x="622.5791121621048" y="-4.1923076923" type="line"/>
    </contour>
  </outline>
</glyph>
<glyph name="Y" format="2">
  <advance width="1049"/>
  <unicode hex="0059"/>
  <outline>
    <contour>
      <point x="376.56500357026664" y="0.0" type="line"/>
      <point x="376.56500357026664" y="517.5150275884333" type="line"/>
      <point x="-9.307692307699998" y="1456.0" type="line"/>
      <point x="317.77553197013333" y="1456.0" type="line"/>
      <point x="498.7" y="941.8" type="line" smooth="yes"/>
      <point x="513" y="904"/>
      <point x="527" y="848"/>
      <point x="538.3" y="806.047619047619" type="curve"/>
      <point x="547.4333333333334" y="806.047619047619" type="line"/>
      <point x="559" y="848"/>
      <point x="573" y="902"/>
      <point x="587.5333333333333" y="941.8" type="curve" smooth="yes"/>
      <point x="772.9119935085834" y="1456.0" type="line"/>
      <point x="1049.32449853945" y="1456.0" type="line"/>
      <point x="675.0196702369333" y="534.2871794871834" type="line"/>
      <point x="675.0196702369333" y="0.0" type="line"/>
    </contour>
  </outline>
</glyph>
<glyph name="a" format="2">
  <advance width="1050"/>
  <unicode hex="0061"/>
  <outline>
    <contour>
      <point x="77.0" y="314.7952380952381" type="curve" smooth="yes"/>
      <point x="77" y="563"/>
      <point x="235" y="675"/>
      <point x="485.6" y="675.2238095238096" type="curve" smooth="yes"/>
      <point x="629.8666666666667" y="675.2238095238096" type="line"/>
      <point x="629.8666666666667" y="748.8571428571429" type="line" smooth="yes"/>
      <point x="630" y="846"/>
      <point x="603" y="912"/>
      <point x="520.9" y="911.6238095238095" type="curve" smooth="yes"/>
      <point x="438" y="912"/>
      <point x="408" y="852"/>
      <point x="407.93333333333334" y="773.7857142857143" type="curve" smooth="yes"/>
      <point x="407.93333333333334" y="758.2857142857143" type="line"/>
      <point x="123.46666666666667" y="758.2857142857143" type="line"/>
      <point x="123.46666666666667" y="773.7857142857143" type="line" smooth="yes"/>
      <point x="123" y="983"/>
      <point x="292" y="1110"/>
      <point x="531.8333333333334" y="1109.857142857143" type="curve" smooth="yes"/>
      <point x="775" y="1110"/>
      <point x="918" y="1010"/>
      <point x="918.3333333333334" y="747.3571428571429" type="curve" smooth="yes"/>
      <point x="918.3333333333334" y="236.5" type="line" smooth="yes"/>
      <point x="918" y="151"/>
      <point x="934" y="70"/>
      <point x="957.0666666666666" y="16.0" type="curve"/>
      <point x="957.0666666666666" y="0.0" type="line"/>
      <point x="672.5333333333333" y="0.0" type="line"/>
      <point x="661" y="29"/>
      <point x="650" y="79"/>
      <point x="643.8666666666667" y="123.91904761904762" type="curve"/>
      <point x="614" y="50"/>
      <point x="519" y="-20"/>
      <point x="384.9666666666667" y="-19.5" type="curve" smooth="yes"/>
      <point x="208" y="-20"/>
      <point x="77" y="76"/>
    </contour>
    <contour>
      <point x="366.4666666666667" y="330.62857142857143" type="curve" smooth="yes"/>
      <point x="366" y="225"/>
      <point x="404" y="178"/>
      <point x="477.43333333333334" y="177.73333333333335" type="curve" smooth="yes"/>
      <point x="566" y="178"/>
      <point x="630" y="230"/>
      <point x="629.8666666666667" y="365.8857142857143" type="curve" smooth="yes"/>
      <point x="629.8666666666667" y="499.4904761904762" type="line"/>
      <point x="523.4" y="499.4904761904762" type="line" smooth="yes"/>
      <point x="418" y="499"/>
      <point x="366" y="458"/>
    </contour>
  </outline>
</glyph>
<glyph name="b" format="2">
  <advance width="1092"/>
  <unicode hex="0062"/>
  <outline>
    <contour>
      <point x="130.0" y="0.0" type="line"/>
      <point x="130.0" y="1531.0" type="line"/>
      <point x="418.4666666666667" y="1531.0" type="line"/>
      <point x="418.4666666666667" y="987.8571428571429" type="line"/>
      <point x="473" y="1062"/>
      <point x="553" y="1101"/>
      <point x="655.2333333333333" y="1100.857142857143" type="curve" smooth="yes"/>
      <point x="882" y="1101"/>
      <point x="1020" y="880"/>
      <point x="1019.8" y="556.9285714285714" type="curve" smooth="yes"/>
      <point x="1019.8" y="524.9285714285714" type="line" smooth="yes"/>
      <point x="1020" y="199"/>
      <point x="880" y="-20"/>
      <point x="654.7333333333333" y="-20.0" type="curve" smooth="yes"/>
      <point x="551" y="-20"/>
      <point x="449" y="29"/>
      <point x="414.9666666666667" y="102.5" type="curve"/>
      <point x="411.6" y="102.5" type="line"/>
      <point x="406.1666666666667" y="0.0" type="line"/>
    </contour>
    <contour>
      <point x="418.4666666666667" y="330.9" type="line"/>
      <point x="441" y="259"/>
      <point x="489" y="200"/>
      <point x="573.0333333333333" y="200.23333333333335" type="curve" smooth="yes"/>
      <point x="675" y="200"/>
      <point x="724" y="293"/>
      <point x="724.3333333333334" y="477.92857142857144" type="curve" smooth="yes"/>
      <point x="724.3333333333334" y="602.4285714285714" type="line" smooth="yes"/>
      <point x="724" y="787"/>
      <point x="675" y="880"/>
      <point x="575.3" y="879.6238095238095" type="curve"/>
      <point x="500" y="880"/>
      <point x="435" y="809"/>
      <point x="418.4666666666667" y="749.4571428571428" type="curve"/>
    </contour>
  </outline>
</glyph>
<glyph name="d" format="2">
  <advance width="1092"/>
  <unicode hex="0064"/>
  <outline>
    <contour>
      <point x="72.8846153846" y="524.0930329670214" type="curve" smooth="yes"/>
      <point x="72.8846153846" y="556.0930329670214" type="line" smooth="yes"/>
      <point x="73" y="879"/>
      <point x="227" y="1100"/>
      <point x="452.39927620901665" y="1100.0629890109929" type="curve" smooth="yes"/>
      <point x="556" y="1100"/>
      <point x="635" y="1056"/>
      <point x="675.2127101590333" y="988.3706813186928" type="curve"/>
      <point x="675.2127101590333" y="1531.2" type="line"/>
      <point x="962.6077000973501" y="1531.2" type="line"/>
      <point x="962.6077000973501" y="0.0" type="line"/>
      <point x="686.7742486205833" y="0.0" type="line"/>
      <point x="681.271684518" y="105.67692307690001" type="line"/>
      <point x="678.4319409282833" y="105.67692307690001" type="line"/>
      <point x="644" y="31"/>
      <point x="557" y="-20"/>
      <point x="453.39927620901665" y="-20.0" type="curve" smooth="yes"/>
      <point x="213" y="-20"/>
      <point x="73" y="201"/>
    </contour>
    <contour>
      <point x="367.9666666666667" y="477.42857142857144" type="line" smooth="yes"/>
      <point x="368" y="293"/>
      <point x="423" y="200"/>
      <point x="526.2666666666667" y="200.23333333333335" type="curve" smooth="yes"/>
      <point x="599" y="200"/>
      <point x="649" y="253"/>
      <point x="674.3333333333334" y="320.9" type="curve"/>
      <point x="674.3333333333334" y="759.4571428571428" type="line"/>
      <point x="650" y="829"/>
      <point x="605" y="880"/>
      <point x="527.2666666666667" y="880.1238095238095" type="curve" smooth="yes"/>
      <point x="426" y="880"/>
      <point x="368" y="787"/>
      <point x="367.9666666666667" y="602.4285714285714" type="curve" smooth="yes"/>
    </contour>
  </outline>
</glyph>
<glyph name="e" format="2">
  <advance width="994"/>
  <unicode hex="0065"/>
  <outline>
    <contour>
      <point x="73.0" y="524.4285714285714" type="curve" smooth="yes"/>
      <point x="73.0" y="556.4285714285714" type="line" smooth="yes"/>
      <point x="73" y="920"/>
      <point x="261" y="1110"/>
      <point x="521.8333333333334" y="1110.357142857143" type="curve" smooth="yes"/>
      <point x="785" y="1110"/>
      <point x="945" y="939"/>
      <point x="944.9333333333334" y="573.9285714285714" type="curve" smooth="yes"/>
      <point x="944.9333333333334" y="469.56190476190477" type="line"/>
      <point x="259.5" y="469.56190476190477" type="line"/>
      <point x="259.5" y="655.2952380952381" type="line"/>
      <point x="657.7571428571429" y="655.2952380952381" type="line"/>
      <point x="657.7571428571429" y="666.2380952380952" type="line" smooth="yes"/>
      <point x="658" y="804"/>
      <point x="628" y="900"/>
      <point x="511.0857142857143" y="900.1238095238095" type="curve" smooth="yes"/>
      <point x="417" y="900"/>
      <point x="357" y="837"/>
      <point x="356.76666666666665" y="604.4285714285714" type="curve" smooth="yes"/>
      <point x="356.76666666666665" y="476.92857142857144" type="line" smooth="yes"/>
      <point x="357" y="261"/>
      <point x="411" y="185"/>
      <point x="525.9" y="185.23333333333335" type="curve" smooth="yes"/>
      <point x="623" y="185"/>
      <point x="678" y="251"/>
      <point x="719.5666666666666" y="322.6666666666667" type="curve"/>
      <point x="939.8" y="202.23333333333335" type="line"/>
      <point x="876" y="47"/>
      <point x="726" y="-30"/>
      <point x="542.0666666666666" y="-30.5" type="curve" smooth="yes"/>
      <point x="250" y="-30"/>
      <point x="73" y="160"/>
    </contour>
  </outline>
</glyph>
<glyph name="f" format="2">
  <advance width="550"/>
  <unicode hex="0066"/>
  <outline>
    <contour>
      <point x="127.20256410258334" y="0.0" type="line"/>
      <point x="127.20256410258334" y="1139.9230769230999" type="line" smooth="yes"/>
      <point x="127" y="1416"/>
      <point x="280" y="1551"/>
      <point x="490.06666666666666" y="1551.0" type="curve" smooth="yes"/>
      <point x="533" y="1551"/>
      <point x="577" y="1546"/>
      <point x="607.2744771178" y="1534.95384615385" type="curve"/>
      <point x="599.1296053229667" y="1321.4743589743666" type="line"/>
      <point x="579" y="1328"/>
      <point x="555" y="1332"/>
      <point x="527.2770412203834" y="1332.3564102564333" type="curve" smooth="yes"/>
      <point x="457" y="1332"/>
      <point x="415" y="1267"/>
      <point x="414.5975540409" y="1133.46153846155" type="curve" smooth="yes"/>
      <point x="414.5975540409" y="991.8386300366262" type="line"/>
      <point x="415.21293865629997" y="970.6386300366262" type="line"/>
      <point x="415.21293865629997" y="0.0" type="line"/>
    </contour>
    <contour>
      <point x="23.7076923077" y="867.4527326007095" type="line"/>
      <point x="23.7076923077" y="1080.0629890109929" type="line"/>
      <point x="240.74749496918332" y="1080.0629890109929" type="line"/>
      <point x="270.860315482" y="1080.0629890109929" type="line"/>
      <point x="558.6898617332" y="1080.0629890109929" type="line"/>
      <point x="558.6898617332" y="867.4527326007095" type="line"/>
    </contour>
  </outline>
</glyph>
<glyph name="h" format="2">
  <advance width="1076"/>
  <unicode hex="0068"/>
  <outline>
    <contour>
      <point x="130.0" y="0.0" type="line"/>
      <point x="130.0" y="1531.0" type="line"/>
      <point x="417.9666666666667" y="1531.0" type="line"/>
      <point x="417.9666666666667" y="932.3238095238095" type="line"/>
      <point x="458" y="1032"/>
      <point x="532" y="1101"/>
      <point x="682.6952380952381" y="1100.857142857143" type="curve" smooth="yes"/>
      <point x="837" y="1101"/>
      <point x="951" y="981"/>
      <point x="950.5333333333333" y="747.3571428571429" type="curve" smooth="yes"/>
      <point x="950.5333333333333" y="0.0" type="line"/>
      <point x="662.0666666666666" y="0.0" type="line"/>
      <point x="662.0666666666666" y="730.3571428571429" type="line" smooth="yes"/>
      <point x="662" y="824"/>
      <point x="630" y="878"/>
      <point x="567.2333333333333" y="877.6904761904761" type="curve" smooth="yes"/>
      <point x="486" y="878"/>
      <point x="433" y="811"/>
      <point x="418.4666666666667" y="723.8571428571429" type="curve"/>
      <point x="418.4666666666667" y="0.0" type="line"/>
    </contour>
  </outline>
</glyph>
<glyph name="i" format="2">
  <advance width="556"/>
  <unicode hex="0069"/>
  <outline>
    <contour>
      <point x="133.5" y="0.0" type="line"/>
      <point x="133.5" y="1079.857142857143" type="line"/>
      <point x="422.9666666666667" y="1079.857142857143" type="line"/>
      <point x="422.9666666666667" y="0.0" type="line"/>
    </contour>
    <contour>
      <point x="114.4" y="1353.9190476190477" type="curve" smooth="yes"/>
      <point x="114" y="1440"/>
      <point x="173" y="1506"/>
      <point x="278.23333333333335" y="1505.952380952381" type="curve" smooth="yes"/>
      <point x="384" y="1506"/>
      <point x="442" y="1440"/>
      <point x="442.06666666666666" y="1353.9190476190477" type="curve" smooth="yes"/>
      <point x="442" y="1267"/>
      <point x="384" y="1201"/>
      <point x="277.73333333333335" y="1200.8857142857144" type="curve" smooth="yes"/>
      <point x="172" y="1201"/>
      <point x="114" y="1267"/>
    </contour>
  </outline>
</glyph>
<glyph name="j" format="2">
  <advance width="559"/>
  <unicode hex="006A"/>
  <outline>
    <contour>
      <point x="-35.06666666666667" y="-410.5" type="curve"/>
      <point x="-36.06666666666667" y="-197.83333333333334" type="line"/>
      <point x="-17" y="-206"/>
      <point x="28" y="-218"/>
      <point x="64.73333333333333" y="-217.83333333333334" type="curve" smooth="yes"/>
      <point x="118" y="-218"/>
      <point x="142" y="-175"/>
      <point x="142.0" y="-60.5" type="curve" smooth="yes"/>
      <point x="142.0" y="1079.857142857143" type="line"/>
      <point x="430.9666666666667" y="1079.857142857143" type="line"/>
      <point x="430.9666666666667" y="-66.0" type="line" smooth="yes"/>
      <point x="431" y="-314"/>
      <point x="312" y="-436"/>
      <point x="110.83333333333333" y="-436.0" type="curve" smooth="yes"/>
      <point x="70" y="-436"/>
      <point x="-9" y="-423"/>
    </contour>
    <contour>
      <point x="122.4" y="1353.9190476190477" type="curve" smooth="yes"/>
      <point x="122" y="1440"/>
      <point x="181" y="1506"/>
      <point x="286.73333333333335" y="1505.952380952381" type="curve" smooth="yes"/>
      <point x="392" y="1506"/>
      <point x="450" y="1440"/>
      <point x="450.06666666666666" y="1353.9190476190477" type="curve" smooth="yes"/>
      <point x="450" y="1267"/>
      <point x="392" y="1201"/>
      <point x="286.23333333333335" y="1200.8857142857144" type="curve" smooth="yes"/>
      <point x="181" y="1201"/>
      <point x="122" y="1267"/>
    </contour>
  </outline>
</glyph>
<glyph name="k" format="2">
  <advance width="955"/>
  <unicode hex="006B"/>
  <outline>
    <contour>
      <point x="130.0" y="0.0" type="line"/>
      <point x="130.0" y="1531.0" type="line"/>
      <point x="418.4666666666667" y="1531.0" type="line"/>
      <point x="418.4666666666667" y="744.7904761904762" type="line"/>
      <point x="632.8904761904762" y="1080.357142857143" type="line"/>
      <point x="952.4333333333334" y="1080.357142857143" type="line"/>
      <point x="418.4666666666667" y="377.64285714285717" type="line"/>
      <point x="418.4666666666667" y="0.0" type="line"/>
    </contour>
    <contour>
      <point x="650.1190476190476" y="0.0" type="line"/>
      <point x="433.05238095238093" y="585.1904761904761" type="line"/>
      <point x="621.7047619047619" y="809.6476190476191" type="line"/>
      <point x="985.8333333333334" y="0.0" type="line"/>
    </contour>
  </outline>
</glyph>
<glyph name="n" format="2">
  <advance width="1076"/>
  <unicode hex="006E"/>
  <outline>
    <contour>
      <point x="130.0" y="0.0" type="line"/>
      <point x="130.0" y="1079.857142857143" type="line"/>
      <point x="406.6666666666667" y="1079.857142857143" type="line"/>
      <point x="412.1" y="977.3571428571429" type="line"/>
      <point x="415.4666666666667" y="977.3571428571429" type="line"/>
      <point x="454" y="1051"/>
      <point x="548" y="1101"/>
      <point x="652.6" y="1101.357142857143" type="curve" smooth="yes"/>
      <point x="832" y="1101"/>
      <point x="956" y="1002"/>
      <point x="955.5333333333333" y="705.1238095238095" type="curve" smooth="yes"/>
      <point x="955.5333333333333" y="0.0" type="line"/>
      <point x="667.0666666666666" y="0.0" type="line"/>
      <point x="667.0666666666666" y="725.2904761904762" type="line" smooth="yes"/>
      <point x="667" y="834"/>
      <point x="637" y="878"/>
      <point x="559.0333333333333" y="877.6904761904761" type="curve" smooth="yes"/>
      <point x="490" y="878"/>
      <point x="434" y="822"/>
      <point x="418.4666666666667" y="765.3571428571429" type="curve"/>
      <point x="418.4666666666667" y="0.0" type="line"/>
    </contour>
  </outline>
</glyph>
<glyph name="p" format="2">
  <advance width="1092"/>
  <unicode hex="0070"/>
  <outline>
    <contour>
      <point x="130.0" y="-416.0" type="line"/>
      <point x="130.0" y="1079.857142857143" type="line"/>
      <point x="402.6666666666667" y="1079.857142857143" type="line"/>
      <point x="408.1" y="976.8571428571429" type="line"/>
      <point x="411.4666666666667" y="976.8571428571429" type="line"/>
      <point x="445" y="1051"/>
      <point x="542" y="1101"/>
      <point x="645.2333333333333" y="1100.857142857143" type="curve" smooth="yes"/>
      <point x="871" y="1101"/>
      <point x="1019" y="889"/>
      <point x="1019.3" y="556.4285714285714" type="curve" smooth="yes"/>
      <point x="1019.3" y="524.4285714285714" type="line" smooth="yes"/>
      <point x="1019" y="194"/>
      <point x="874" y="-20"/>
      <point x="654.7333333333333" y="-20.0" type="curve" smooth="yes"/>
      <point x="552" y="-20"/>
      <point x="459" y="11"/>
      <point x="418.4666666666667" y="82.03333333333333" type="curve"/>
      <point x="418.4666666666667" y="-416.0" type="line"/>
    </contour>
    <contour>
      <point x="418.4666666666667" y="312.6" type="line"/>
      <point x="434" y="268"/>
      <point x="486" y="200"/>
      <point x="573.0333333333333" y="200.23333333333335" type="curve" smooth="yes"/>
      <point x="670" y="200"/>
      <point x="724" y="280"/>
      <point x="724.3333333333334" y="475.92857142857144" type="curve" smooth="yes"/>
      <point x="724.3333333333334" y="604.4285714285714" type="line" smooth="yes"/>
      <point x="724" y="800"/>
      <point x="673" y="880"/>
      <point x="576.8666666666667" y="880.1238095238095" type="curve" smooth="yes"/>
      <point x="495" y="880"/>
      <point x="441" y="824"/>
      <point x="418.4666666666667" y="770.1238095238095" type="curve"/>
    </contour>
  </outline>
</glyph>
<glyph name="q" format="2">
  <advance width="1092"/>
  <unicode hex="0071"/>
  <outline>
    <contour>
      <point x="72.8846153846" y="523.9439560439714" type="curve" smooth="yes"/>
      <point x="72.8846153846" y="555.9439560439714" type="line" smooth="yes"/>
      <point x="73" y="886"/>
      <point x="228" y="1100"/>
      <point x="447.26773774746664" y="1100.2032967032928" type="curve" smooth="yes"/>
      <point x="561" y="1100"/>
      <point x="640" y="1051"/>
      <point x="678.5988640051834" y="976.3109890109929" type="curve"/>
      <point x="681.1578383641499" y="976.3109890109929" type="line"/>
      <point x="686.6604024667333" y="1080.2032967032928" type="line"/>
      <point x="962.4498539435001" y="1080.2032967032928" type="line"/>
      <point x="962.4498539435001" y="-416.12307692310003" type="line"/>
      <point x="674.9757870821334" y="-416.12307692310003" type="line"/>
      <point x="674.9757870821334" y="93.73551258868571" type="line"/>
      <point x="675.2219409282833" y="93.4769230769" type="line"/>
      <point x="634" y="20"/>
      <point x="565" y="-20"/>
      <point x="447.76773774746664" y="-20.0" type="curve" smooth="yes"/>
      <point x="222" y="-20"/>
      <point x="73" y="194"/>
    </contour>
    <contour>
      <point x="367.9666666666667" y="477.42857142857144" type="line" smooth="yes"/>
      <point x="368" y="285"/>
      <point x="421" y="200"/>
      <point x="521.2666666666667" y="200.23333333333335" type="curve" smooth="yes"/>
      <point x="596" y="200"/>
      <point x="651" y="252"/>
      <point x="674.3333333333334" y="325.9" type="curve"/>
      <point x="674.3333333333334" y="770.1238095238095" type="line"/>
      <point x="657" y="824"/>
      <point x="612" y="880"/>
      <point x="531.9333333333334" y="880.1238095238095" type="curve" smooth="yes"/>
      <point x="432" y="880"/>
      <point x="368" y="809"/>
      <point x="367.9666666666667" y="602.4285714285714" type="curve" smooth="yes"/>
    </contour>
  </outline>
</glyph>
<glyph name="r" format="2">
  <advance width="662"/>
  <unicode hex="0072"/>
  <outline>
    <contour>
      <point x="130.0" y="0.0" type="line"/>
      <point x="130.0" y="1080.0629890109929" type="line"/>
      <point x="407.42575916911665" y="1080.0629890109929" type="line"/>
      <point x="412.92832327165" y="986.0963223443262" type="line"/>
      <point x="416.2680668614166" y="986.0963223443262" type="line"/>
      <point x="447" y="1055"/>
      <point x="504" y="1109"/>
      <point x="567.11678481015" y="1108.9552967032928" type="curve" smooth="yes"/>
      <point x="592" y="1109"/>
      <point x="618" y="1100"/>
      <point x="628.5001181434834" y="1095.0168351648429" type="curve"/>
      <point x="628.5001181434834" y="844.4399120878928" type="line"/>
      <point x="608" y="850"/>
      <point x="587" y="853"/>
      <point x="560.5924258357833" y="853.1783736263928" type="curve" smooth="yes"/>
      <point x="499" y="853"/>
      <point x="443" y="803"/>
      <point x="419.54883609216665" y="729.5552967032929" type="curve"/>
      <point x="419.54883609216665" y="0.0" type="line"/>
    </contour>
  </outline>
</glyph>
<glyph name="s" format="2">
  <advance width="951"/>
  <unicode hex="0073"/>
  <outline>
    <contour>
      <point x="64.0" y="336.7857142857143" type="line"/>
      <point x="347.4666666666667" y="335.7857142857143" type="line"/>
      <point x="347.4666666666667" y="319.7857142857143" type="line" smooth="yes"/>
      <point x="347" y="215"/>
      <point x="396" y="165"/>
      <point x="473.73333333333335" y="164.96666666666667" type="curve" smooth="yes"/>
      <point x="552" y="165"/>
      <point x="588" y="208"/>
      <point x="588.2904761904762" y="289.81904761904764" type="curve" smooth="yes"/>
      <point x="588" y="365"/>
      <point x="566" y="404"/>
      <point x="375.76666666666665" y="456.3952380952381" type="curve" smooth="yes"/>
      <point x="170" y="510"/>
      <point x="100" y="621"/>
      <point x="99.85238095238095" y="780.6380952380953" type="curve" smooth="yes"/>
      <point x="100" y="993"/>
      <point x="251" y="1110"/>
      <point x="488.04285714285714" y="1110.357142857143" type="curve" smooth="yes"/>
      <point x="731" y="1110"/>
      <point x="876" y="993"/>
      <point x="875.5428571428572" y="760.1666666666666" type="curve" smooth="yes"/>
      <point x="875.5428571428572" y="748.6666666666666" type="line"/>
      <point x="593.0761904761905" y="748.6666666666666" type="line"/>
      <point x="593.0761904761905" y="781.3761904761905" type="line" smooth="yes"/>
      <point x="593" y="876"/>
      <point x="559" y="914"/>
      <point x="487.04285714285714" y="913.8904761904762" type="curve" smooth="yes"/>
      <point x="417" y="914"/>
      <point x="383" y="879"/>
      <point x="382.8857142857143" y="804.4047619047619" type="curve" smooth="yes"/>
      <point x="383" y="736"/>
      <point x="395" y="701"/>
      <point x="589.3" y="646.4619047619047" type="curve" smooth="yes"/>
      <point x="793" y="590"/>
      <point x="878" y="497"/>
      <point x="878.1" y="317.2190476190476" type="curve" smooth="yes"/>
      <point x="878" y="92"/>
      <point x="739" y="-30"/>
      <point x="474.73333333333335" y="-30.0" type="curve" smooth="yes"/>
      <point x="203" y="-30"/>
      <point x="64" y="87"/>
      <point x="64.0" y="325.7857142857143" type="curve" smooth="yes"/>
    </contour>
  </outline>
</glyph>
<glyph name="u" format="2">
  <advance width="1076"/>
  <unicode hex="0075"/>
  <outline>
    <contour>
      <point x="120.0" y="390.23333333333335" type="curve" smooth="yes"/>
      <point x="120.0" y="1079.857142857143" type="line"/>
      <point x="408.9666666666667" y="1079.857142857143" type="line"/>
      <point x="408.9666666666667" y="380.23333333333335" type="line" smooth="yes"/>
      <point x="409" y="246"/>
      <point x="441" y="202"/>
      <point x="516.4333333333334" y="202.16666666666669" type="curve" smooth="yes"/>
      <point x="588" y="202"/>
      <point x="627" y="241"/>
      <point x="657.0666666666666" y="303.3333333333333" type="curve"/>
      <point x="657.0666666666666" y="1079.857142857143" type="line"/>
      <point x="945.5333333333333" y="1079.857142857143" type="line"/>
      <point x="945.5333333333333" y="0.0" type="line"/>
      <point x="669.3666666666667" y="0.0" type="line"/>
      <point x="664.5" y="81.16666666666666" type="line"/>
      <point x="659.0" y="81.16666666666666" type="line"/>
      <point x="616" y="22"/>
      <point x="538" y="-20"/>
      <point x="404.26666666666665" y="-20.5" type="curve" smooth="yes"/>
      <point x="248" y="-20"/>
      <point x="120" y="93"/>
    </contour>
  </outline>
</glyph>
<glyph name="v" format="2">
  <advance width="852"/>
  <unicode hex="0076"/>
  <outline>
    <contour>
      <point x="-21.1153846154" y="1080.0629890109929" type="line"/>
      <point x="279.8347224927" y="1080.0629890109929" type="line"/>
      <point x="411.0047619047619" y="471.8142857142857" type="line" smooth="yes"/>
      <point x="422" y="421"/>
      <point x="429" y="388"/>
      <point x="435.8857142857143" y="315.552380952381" type="curve"/>
      <point x="442.3857142857143" y="315.552380952381" type="line"/>
      <point x="448" y="388"/>
      <point x="456" y="420"/>
      <point x="467.26666666666665" y="471.8142857142857" type="curve" smooth="yes"/>
      <point x="599.2794534242166" y="1080.0629890109929" type="line"/>
      <point x="865.9383252191001" y="1080.0629890109929" type="line"/>
      <point x="566.4229406037" y="0.0" type="line"/>
      <point x="274.02804284325" y="0.0" type="line"/>
    </contour>
  </outline>
</glyph>
<glyph name="w" format="2">
  <advance width="1393"/>
  <unicode hex="0077"/>
  <outline>
    <contour>
      <point x="12.846153846149999" y="1080.0629890109929" type="line"/>
      <point x="303.7188640051833" y="1080.0629890109929" type="line"/>
      <point x="384.34285714285716" y="500.8142857142857" type="line" smooth="yes"/>
      <point x="393" y="448"/>
      <point x="406" y="381"/>
      <point x="406.93333333333334" y="329.052380952381" type="curve"/>
      <point x="413.43333333333334" y="329.052380952381" type="line"/>
      <point x="417" y="381"/>
      <point x="430" y="448"/>
      <point x="441.2285714285714" y="500.8142857142857" type="curve" smooth="yes"/>
      <point x="554.6810217461834" y="1080.0629890109929" type="line"/>
      <point x="866.9561973385166" y="1080.0629890109929" type="line"/>
      <point x="980.6714285714286" y="500.3142857142857" type="line" smooth="yes"/>
      <point x="991" y="447"/>
      <point x="1003" y="381"/>
      <point x="1008.1190476190476" y="328.552380952381" type="curve"/>
      <point x="1014.1190476190476" y="328.552380952381" type="line"/>
      <point x="1018" y="381"/>
      <point x="1034" y="447"/>
      <point x="1040.3380952380953" y="500.3142857142857" type="curve" smooth="yes"/>
      <point x="1126.66707302825" y="1080.0629890109929" type="line"/>
      <point x="1381.8084063615834" y="1080.0629890109929" type="line"/>
      <point x="1171.8545602077334" y="0.0" type="line"/>
      <point x="846.3370210970667" y="0.0" type="line"/>
      <point x="723.2" y="581.2523809523809" type="line" smooth="yes"/>
      <point x="712" y="632"/>
      <point x="701" y="686"/>
      <point x="697.8666666666667" y="736.7523809523809" type="curve"/>
      <point x="693.3666666666667" y="736.7523809523809" type="line"/>
      <point x="689" y="686"/>
      <point x="679" y="632"/>
      <point x="669.1" y="581.2523809523809" type="curve" smooth="yes"/>
      <point x="560.2984063615834" y="0.0" type="line"/>
      <point x="223.68205128206665" y="0.0" type="line"/>
    </contour>
  </outline>
</glyph>
<glyph name="y" format="2">
  <advance width="862"/>
  <unicode hex="0079"/>
  <outline>
    <contour>
      <point x="68.20667315808333" y="-415.26153846155" type="curve"/>
      <point x="71.96051931193333" y="-201.41025641023333" type="line"/>
      <point x="99" y="-212"/>
      <point x="136" y="-219"/>
      <point x="166.38205777343333" y="-218.97948717948333" type="curve" smooth="yes"/>
      <point x="240" y="-219"/>
      <point x="288" y="-220"/>
      <point x="339.03809523809525" y="-12.452380952380953" type="curve"/>
      <point x="301.8952380952381" y="11.404761904761905" type="line"/>
      <point x="-3.7641025640833323" y="1080.0629890109929" type="line"/>
      <point x="297.31151574166665" y="1080.0629890109929" type="line"/>
      <point x="432.8666666666667" y="465.5047619047619" type="line" smooth="yes"/>
      <point x="445" y="414"/>
      <point x="449" y="378"/>
      <point x="452.2809523809524" y="315.552380952381" type="curve"/>
      <point x="458.7809523809524" y="315.552380952381" type="line"/>
      <point x="460" y="378"/>
      <point x="466" y="413"/>
      <point x="477.4142857142857" y="465.5047619047619" type="curve" smooth="yes"/>
      <point x="613.3393911067667" y="1080.0629890109929" type="line"/>
      <point x="870.0282116195833" y="1080.0629890109929" type="line"/>
      <point x="569.7294936709" y="-43.34358974356667" type="line" smooth="yes"/>
      <point x="479" y="-361"/>
      <point x="354" y="-436"/>
      <point x="187.37539110676667" y="-436.0" type="curve" smooth="yes"/>
      <point x="134" y="-436"/>
      <point x="99" y="-430"/>
    </contour>
  </outline>
</glyph>
<glyph name="z" format="2">
  <advance width="827"/>
  <unicode hex="007A"/>
  <outline>
    <contour>
      <point x="45.5" y="0.0" type="line"/>
      <point x="45.5" y="189.3" type="line"/>
      <point x="402.34285714285716" y="858.1238095238095" type="line"/>
      <point x="52.43333333333334" y="858.1238095238095" type="line"/>
      <point x="52.43333333333334" y="1079.857142857143" type="line"/>
      <point x="763.6" y="1079.857142857143" type="line"/>
      <point x="763.6" y="896.0571428571428" type="line"/>
      <point x="401.25714285714287" y="220.73333333333335" type="line"/>
      <point x="790.8333333333334" y="220.73333333333335" type="line"/>
      <point x="790.8333333333334" y="0.0" type="line"/>
    </contour>
  </outline>
</glyph>
<glyph name="braceleft" format="2">
  <advance width="743"/>
  <unicode hex="007B"/>
  <outline>
    <contour>
      <point x="644.03046153845" y="-312.0" type="line"/>
      <point x="364" y="-314"/>
      <point x="152" y="-181"/>
      <point x="193.14153846155" y="71.66666666666667" type="curve" smooth="yes"/>
      <point x="230.19692307690002" y="310.65384615385" type="line" smooth="yes"/>
      <point x="253" y="451"/>
      <point x="192" y="481"/>
      <point x="101.38333333333333" y="480.75641025643336" type="curve"/>
      <point x="101.38333333333333" y="667.2435897435666" type="line"/>
      <point x="192" y="667"/>
      <point x="253" y="697"/>
      <point x="230.19692307690002" y="837.34615384615" type="curve" smooth="yes"/>
      <point x="193.14153846155" y="1076.3333333333333" type="line" smooth="yes"/>
      <point x="153" y="1328"/>
      <point x="364" y="1461"/>
      <point x="644.03046153845" y="1460.0" type="curve"/>
      <point x="644.03046153845" y="1256.0205128205166" type="line"/>
      <point x="567" y="1256"/>
      <point x="443" y="1232"/>
      <point x="469.2417435897667" y="1051.7564102564334" type="curve" smooth="yes"/>
      <point x="506.7971282051167" y="814.0" type="line" smooth="yes"/>
      <point x="526" y="700"/>
      <point x="482" y="626"/>
      <point x="345.81123076925" y="574.0" type="curve"/>
      <point x="482" y="522"/>
      <point x="526" y="448"/>
      <point x="506.7971282051167" y="334.0" type="curve" smooth="yes"/>
      <point x="469.2417435897667" y="96.24358974356667" type="line" smooth="yes"/>
      <point x="443" y="-84"/>
      <point x="567" y="-108"/>
      <point x="644.03046153845" y="-108.02051282051667" type="curve"/>
    </contour>
  </outline>
</glyph>
<glyph name="braceright" format="2">
  <advance width="743"/>
  <unicode hex="007D"/>
  <outline>
    <contour>
      <point x="103.13589743591666" y="-312.12307692310003" type="curve"/>
      <point x="103.13589743591666" y="-108.14358974356666" type="line"/>
      <point x="181" y="-108"/>
      <point x="288" y="-84"/>
      <point x="257.42461538460003" y="96.12051282051667" type="curve" smooth="yes"/>
      <point x="215.36923076925" y="333.87692307689997" type="line" smooth="yes"/>
      <point x="193" y="448"/>
      <point x="246" y="522"/>
      <point x="381.35512820511667" y="573.8769230769001" type="curve"/>
      <point x="246" y="626"/>
      <point x="193" y="700"/>
      <point x="215.36923076925" y="813.8769230769001" type="curve" smooth="yes"/>
      <point x="257.42461538460003" y="1051.6333333333332" type="line" smooth="yes"/>
      <point x="288" y="1231"/>
      <point x="181" y="1256"/>
      <point x="103.13589743591666" y="1255.8974358974167" type="curve"/>
      <point x="103.13589743591666" y="1459.8769230768999" type="line"/>
      <point x="383" y="1462"/>
      <point x="582" y="1328"/>
      <point x="533.5248205128166" y="1076.2102564102333" type="curve" smooth="yes"/>
      <point x="491.4694358974167" y="837.2230769231" type="line" smooth="yes"/>
      <point x="466" y="698"/>
      <point x="555" y="667"/>
      <point x="645.7830256410333" y="667.1205128205166" type="curve"/>
      <point x="645.7830256410333" y="480.6333333333333" type="line"/>
      <point x="555" y="481"/>
      <point x="466" y="450"/>
      <point x="491.4694358974167" y="310.53076923075" type="curve" smooth="yes"/>
      <point x="533.5248205128166" y="71.54358974356667" type="line" smooth="yes"/>
      <point x="581" y="-180"/>
      <point x="383" y="-313"/>
    </contour>
  </outline>
</glyph>
<glyph name="exclamdown" format="2">
  <advance width="680"/>
  <unicode hex="00A1"/>
  <outline>
    <contour>
      <point x="519.9666666666667" y="1009.6333333333333" type="curve" smooth="yes"/>
      <point x="520" y="921"/>
      <point x="457" y="848"/>
      <point x="340.73333333333335" y="847.7666666666667" type="curve" smooth="yes"/>
      <point x="224" y="848"/>
      <point x="160" y="921"/>
      <point x="160.5" y="1009.6333333333333" type="curve" smooth="yes"/>
      <point x="160" y="1099"/>
      <point x="224" y="1172"/>
      <point x="340.23333333333335" y="1172.0" type="curve" smooth="yes"/>
      <point x="457" y="1172"/>
      <point x="520" y="1099"/>
    </contour>
    <contour>
      <point x="468.0333333333333" y="686.5" type="line"/>
      <point x="489.4666666666667" y="-306.0" type="line"/>
      <point x="192.06666666666666" y="-306.0" type="line"/>
      <point x="214.5" y="686.5" type="line"/>
    </contour>
  </outline>
</glyph>
<glyph name="currency" format="2">
  <advance width="1140"/>
  <unicode hex="00A4"/>
  <guideline x="0" y="901.0" angle="0" identifier="bRYxxRaQQf"/>
  <guideline x="0" y="555.0" angle="0" identifier="917FhrihjR"/>
  <outline>
    <contour>
      <point x="338.0" y="712.0" type="curve"/>
      <point x="338" y="539"/>
      <point x="410" y="410"/>
      <point x="567.1666666666666" y="410.5" type="curve" smooth="yes"/>
      <point x="723" y="410"/>
      <point x="794" y="539"/>
      <point x="794.3333333333334" y="712.0" type="curve" smooth="yes"/>
      <point x="794" y="882"/>
      <point x="723" y="1012"/>
      <point x="567.1666666666666" y="1011.5" type="curve" smooth="yes"/>
      <point x="410" y="1012"/>
      <point x="338" y="882"/>
    </contour>
    <contour>
      <point x="101.5" y="718.0" type="curve"/>
      <point x="102" y="1019"/>
      <point x="285" y="1247"/>
      <point x="566.1666666666666" y="1247.0" type="curve" smooth="yes"/>
      <point x="847" y="1247"/>
      <point x="1031" y="1019"/>
      <point x="1030.8333333333333" y="718.0" type="curve" smooth="yes"/>
      <point x="1031" y="419"/>
      <point x="847" y="187"/>
      <point x="566.1666666666666" y="187.0" type="curve" smooth="yes"/>
      <point x="285" y="187"/>
      <point x="102" y="419"/>
    </contour>
    <contour>
      <point x="1080.8333333333333" y="1196.5" type="line"/>
      <point x="869.8333333333334" y="981.0" type="line"/>
      <point x="742.3333333333334" y="1114.0" type="line"/>
      <point x="953.3333333333334" y="1329.5" type="line"/>
    </contour>
    <contour>
      <point x="368.5" y="336.5" type="line"/>
      <point x="157.5" y="121.0" type="line"/>
      <point x="31.0" y="253.0" type="line"/>
      <point x="242.0" y="467.5" type="line"/>
    </contour>
    <contour>
      <point x="980.8333333333334" y="128.5" type="line"/>
      <point x="769.8333333333334" y="344.0" type="line"/>
      <point x="898.3333333333334" y="475.5" type="line"/>
      <point x="1109.3333333333333" y="261.5" type="line"/>
    </contour>
    <contour>
      <point x="260.0" y="995.5" type="line"/>
      <point x="49.0" y="1211.0" type="line"/>
      <point x="175.5" y="1343.0" type="line"/>
      <point x="386.5" y="1127.5" type="line"/>
    </contour>
  </outline>
</glyph>
<glyph name="yen" format="2">
  <advance width="1074"/>
  <unicode hex="00A5"/>
  <outline>
    <contour>
      <point x="59.0" y="296.0" type="line"/>
      <point x="59.0" y="470.0" type="line"/>
      <point x="1017.5333333333333" y="470.0" type="line"/>
      <point x="1017.5333333333333" y="296.0" type="line"/>
    </contour>
    <contour>
      <point x="59.0" y="606.0" type="line"/>
      <point x="59.0" y="775.0" type="line"/>
      <point x="388.73333333333335" y="775.0" type="line"/>
      <point x="441.73333333333335" y="669.0" type="line"/>
      <point x="650.7333333333333" y="669.0" type="line"/>
      <point x="698.7333333333333" y="775.0" type="line"/>
      <point x="1017.5333333333333" y="775.0" type="line"/>
      <point x="1017.5333333333333" y="606.0" type="line"/>
    </contour>
    <contour>
      <point x="399.73333333333335" y="0.0" type="line"/>
      <point x="399.73333333333335" y="548.0" type="line"/>
      <point x="-19.0" y="1456.0" type="line"/>
      <point x="310.0" y="1456.0" type="line"/>
      <point x="500.73333333333335" y="956.5" type="line" smooth="yes"/>
      <point x="517" y="916"/>
      <point x="545" y="836"/>
      <point x="554.7333333333333" y="786.5" type="curve"/>
      <point x="568.7333333333333" y="786.5" type="line"/>
      <point x="581" y="862"/>
      <point x="604" y="916"/>
      <point x="622.7333333333333" y="956.5" type="curve" smooth="yes"/>
      <point x="802.0333333333333" y="1456.0" type="line"/>
      <point x="1087.5333333333333" y="1456.0" type="line"/>
      <point x="683.7333333333333" y="548.0" type="line"/>
      <point x="683.7333333333333" y="0.0" type="line"/>
    </contour>
  </outline>
</glyph>
<glyph name="dieresis" format="2">
  <advance width="1024"/>
  <unicode hex="00A8"/>
  <outline>
    <contour>
      <point x="166.16666666666666" y="1325.0" type="curve" smooth="yes"/>
      <point x="166" y="1405"/>
      <point x="220" y="1466"/>
      <point x="318.1666666666667" y="1466.0" type="curve" smooth="yes"/>
      <point x="417" y="1466"/>
      <point x="471" y="1405"/>
      <point x="470.66666666666663" y="1325.0" type="curve" smooth="yes"/>
      <point x="471" y="1247"/>
      <point x="417" y="1186"/>
      <point x="317.6666666666667" y="1185.5" type="curve" smooth="yes"/>
      <point x="219" y="1186"/>
      <point x="166" y="1247"/>
    </contour>
    <contour>
      <point x="552.8333333333334" y="1324.0" type="curve" smooth="yes"/>
      <point x="553" y="1404"/>
      <point x="606" y="1465"/>
      <point x="704.8333333333334" y="1465.0" type="curve" smooth="yes"/>
      <point x="803" y="1465"/>
      <point x="858" y="1404"/>
      <point x="857.8333333333334" y="1324.0" type="curve" smooth="yes"/>
      <point x="858" y="1246"/>
      <point x="803" y="1184"/>
      <point x="704.3333333333334" y="1184.5" type="curve" smooth="yes"/>
      <point x="605" y="1184"/>
      <point x="553" y="1246"/>
    </contour>
  </outline>
</glyph>
<glyph name="copyright" format="2">
  <advance width="1654"/>
  <unicode hex="00A9"/>
  <guideline x="0" y="901.0" angle="0" identifier="0Pjz0qKr8z"/>
  <guideline x="0" y="555.0" angle="0" identifier="sJo8BlDiJ7"/>
  <outline>
    <contour>
      <point x="941.1333333333333" y="564.0" type="curve"/>
      <point x="1205.1333333333334" y="564.0" type="line"/>
      <point x="1205" y="349"/>
      <point x="1079" y="204"/>
      <point x="828.4666666666667" y="204.5" type="curve" smooth="yes"/>
      <point x="572" y="204"/>
      <point x="431" y="374"/>
      <point x="430.8" y="670.0" type="curve" smooth="yes"/>
      <point x="430.8" y="703.5" type="line" smooth="yes"/>
      <point x="431" y="1003"/>
      <point x="580" y="1172"/>
      <point x="836.9666666666667" y="1172.0" type="curve" smooth="yes"/>
      <point x="1068" y="1172"/>
      <point x="1197" y="1044"/>
      <point x="1206.1333333333334" y="812.0" type="curve"/>
      <point x="942.1333333333333" y="812.0" type="line"/>
      <point x="942" y="908"/>
      <point x="902" y="965"/>
      <point x="834.4666666666667" y="965.0" type="curve" smooth="yes"/>
      <point x="757" y="965"/>
      <point x="708" y="894"/>
      <point x="708.3" y="739.5" type="curve" smooth="yes"/>
      <point x="708.3" y="634.0" type="line" smooth="yes"/>
      <point x="708" y="480"/>
      <point x="751" y="408"/>
      <point x="838.4666666666667" y="408.0" type="curve" smooth="yes"/>
      <point x="903" y="408"/>
      <point x="941" y="459"/>
    </contour>
    <contour>
      <point x="219.3" y="687.0" type="curve" smooth="yes"/>
      <point x="219" y="295"/>
      <point x="451" y="4"/>
      <point x="827.9666666666667" y="4.0" type="curve" smooth="yes"/>
      <point x="1204" y="4"/>
      <point x="1436" y="295"/>
      <point x="1435.6333333333334" y="687.0" type="curve" smooth="yes"/>
      <point x="1436" y="1079"/>
      <point x="1204" y="1367"/>
      <point x="827.9666666666667" y="1367.0" type="curve" smooth="yes"/>
      <point x="451" y="1367"/>
      <point x="219" y="1079"/>
    </contour>
    <contour>
      <point x="66.3" y="687.0" type="curve" smooth="yes"/>
      <point x="66" y="1166"/>
      <point x="363" y="1519"/>
      <point x="826.9666666666667" y="1519.0" type="curve" smooth="yes"/>
      <point x="1290" y="1519"/>
      <point x="1588" y="1166"/>
      <point x="1588.1333333333334" y="687.0" type="curve" smooth="yes"/>
      <point x="1588" y="209"/>
      <point x="1290" y="-147"/>
      <point x="826.9666666666667" y="-147.0" type="curve" smooth="yes"/>
      <point x="363" y="-147"/>
      <point x="66" y="209"/>
    </contour>
  </outline>
</glyph>
<glyph name="ordfeminine" format="2">
  <advance width="798"/>
  <unicode hex="00AA"/>
  <guideline x="0" y="1681.0" angle="0" identifier="3CJlALCfkl"/>
  <guideline x="0" y="909.0" angle="0" identifier="Zdl6NZVQAy"/>
  <outline>
    <contour>
      <point x="467.26666666666665" y="836.5" type="line"/>
      <point x="467" y="794"/>
      <point x="483" y="737"/>
      <point x="507.26666666666665" y="706.0" type="curve"/>
      <point x="717.7666666666667" y="706.0" type="line"/>
      <point x="698" y="760"/>
      <point x="688" y="813"/>
      <point x="687.7666666666667" y="887.0" type="curve" smooth="yes"/>
      <point x="687.7666666666667" y="1210.5" type="line" smooth="yes"/>
      <point x="688" y="1387"/>
      <point x="587" y="1477"/>
      <point x="405.43333333333334" y="1477.0" type="curve" smooth="yes"/>
      <point x="214" y="1477"/>
      <point x="109" y="1399"/>
      <point x="108.6" y="1247.5" type="curve" smooth="yes"/>
      <point x="108.6" y="1224.5" type="line"/>
      <point x="328.1" y="1224.5" type="line"/>
      <point x="328.1" y="1240.5" type="line" smooth="yes"/>
      <point x="328" y="1294"/>
      <point x="350" y="1320"/>
      <point x="399.93333333333334" y="1320.5" type="curve" smooth="yes"/>
      <point x="448" y="1320"/>
      <point x="467" y="1276"/>
      <point x="467.26666666666665" y="1212.0" type="curve" smooth="yes"/>
    </contour>
    <contour>
      <point x="508.26666666666665" y="1162.5" type="line"/>
      <point x="384.93333333333334" y="1162.5" type="line" smooth="yes"/>
      <point x="206" y="1162"/>
      <point x="80" y="1090"/>
      <point x="79.6" y="922.0" type="curve" smooth="yes"/>
      <point x="80" y="763"/>
      <point x="164" y="692"/>
      <point x="290.93333333333334" y="692.5" type="curve" smooth="yes"/>
      <point x="417" y="692"/>
      <point x="480" y="755"/>
      <point x="501.76666666666665" y="811.5" type="curve"/>
      <point x="486.26666666666665" y="945.0" type="line"/>
      <point x="476" y="897"/>
      <point x="442" y="848"/>
      <point x="367.93333333333334" y="847.5" type="curve" smooth="yes"/>
      <point x="326" y="848"/>
      <point x="304" y="874"/>
      <point x="303.6" y="933.0" type="curve" smooth="yes"/>
      <point x="304" y="1005"/>
      <point x="340" y="1028"/>
      <point x="407.43333333333334" y="1028.5" type="curve" smooth="yes"/>
      <point x="508.26666666666665" y="1028.5" type="line"/>
    </contour>
  </outline>
</glyph>
<glyph name="registered" format="2">
  <advance width="1654"/>
  <unicode hex="00AE"/>
  <outline>
    <contour>
      <point x="66.3" y="687.0" type="curve" smooth="yes"/>
      <point x="66" y="1166"/>
      <point x="363" y="1519"/>
      <point x="826.9666666666667" y="1519.0" type="curve" smooth="yes"/>
      <point x="1290" y="1519"/>
      <point x="1588" y="1166"/>
      <point x="1588.1333333333334" y="687.0" type="curve" smooth="yes"/>
      <point x="1588" y="209"/>
      <point x="1290" y="-147"/>
      <point x="826.9666666666667" y="-147.0" type="curve" smooth="yes"/>
      <point x="363" y="-147"/>
      <point x="66" y="209"/>
    </contour>
    <contour>
      <point x="219.3" y="687.0" type="curve" smooth="yes"/>
      <point x="219" y="295"/>
      <point x="451" y="4"/>
      <point x="827.9666666666667" y="4.0" type="curve" smooth="yes"/>
      <point x="1204" y="4"/>
      <point x="1436" y="295"/>
      <point x="1435.6333333333334" y="687.0" type="curve" smooth="yes"/>
      <point x="1436" y="1079"/>
      <point x="1204" y="1367"/>
      <point x="827.9666666666667" y="1367.0" type="curve" smooth="yes"/>
      <point x="451" y="1367"/>
      <point x="219" y="1079"/>
    </contour>
    <contour>
      <point x="824.4666666666667" y="581.0" type="line"/>
      <point x="755.8" y="581.0" type="line"/>
      <point x="755.8" y="225.0" type="line"/>
      <point x="538.3" y="225.0" type="line"/>
      <point x="538.3" y="1158.5" type="line"/>
      <point x="833.9666666666667" y="1158.5" type="line" smooth="yes"/>
      <point x="1046" y="1158"/>
      <point x="1159" y="1055"/>
      <point x="1158.6333333333334" y="873.5" type="curve" smooth="yes"/>
      <point x="1159" y="738"/>
      <point x="1089" y="626"/>
      <point x="988.8666666666667" y="607.5" type="curve"/>
      <point x="1016" y="587"/>
      <point x="1034" y="573"/>
      <point x="1049.8666666666668" y="536.0" type="curve" smooth="yes"/>
      <point x="1174.6333333333334" y="249.0" type="line"/>
      <point x="1174.6333333333334" y="225.0" type="line"/>
      <point x="943.1333333333333" y="225.0" type="line"/>
    </contour>
    <contour>
      <point x="827.9666666666667" y="986.5" type="curve" smooth="yes"/>
      <point x="755.8" y="986.5" type="line"/>
      <point x="755.8" y="743.5" type="line"/>
      <point x="840.4666666666667" y="743.5" type="line" smooth="yes"/>
      <point x="910" y="744"/>
      <point x="933" y="787"/>
      <point x="933.1333333333333" y="859.0" type="curve" smooth="yes"/>
      <point x="934" y="935"/>
      <point x="881" y="986"/>
    </contour>
  </outline>
</glyph>
<glyph name="degree" format="2">
  <advance width="752"/>
  <unicode hex="00B0"/>
  <outline>
    <contour>
      <point x="116.16666666666667" y="1198.5" type="curve" smooth="yes"/>
      <point x="116" y="1361"/>
      <point x="225" y="1477"/>
      <point x="379.0" y="1477.0" type="curve" smooth="yes"/>
      <point x="530" y="1477"/>
      <point x="637" y="1361"/>
      <point x="637.3333333333334" y="1198.5" type="curve" smooth="yes"/>
      <point x="637" y="1038"/>
      <point x="530" y="923"/>
      <point x="379.0" y="923.0" type="curve" smooth="yes"/>
      <point x="225" y="923"/>
      <point x="116" y="1037"/>
    </contour>
    <contour>
      <point x="261.1666666666667" y="1198.5" type="curve" smooth="yes"/>
      <point x="261" y="1122"/>
      <point x="307" y="1067"/>
      <point x="379.0" y="1067.0" type="curve" smooth="yes"/>
      <point x="447" y="1067"/>
      <point x="492" y="1122"/>
      <point x="492.3333333333333" y="1198.5" type="curve" smooth="yes"/>
      <point x="492" y="1279"/>
      <point x="447" y="1333"/>
      <point x="379.0" y="1333.0" type="curve" smooth="yes"/>
      <point x="307" y="1333"/>
      <point x="261" y="1279"/>
    </contour>
  </outline>
</glyph>
<glyph name="twosuperior" format="2">
  <advance width="672"/>
  <unicode hex="00B2"/>
  <outline>
    <contour>
      <point x="62.03333333333333" y="697.0" type="line"/>
      <point x="62.03333333333333" y="812.5" type="line"/>
      <point x="284.0333333333333" y="1093.5" type="line" smooth="yes"/>
      <point x="346" y="1174"/>
      <point x="389" y="1213"/>
      <point x="388.8666666666667" y="1257.5" type="curve" smooth="yes"/>
      <point x="389" y="1311"/>
      <point x="367" y="1340"/>
      <point x="330.0333333333333" y="1340.3333333333333" type="curve" smooth="yes"/>
      <point x="278" y="1340"/>
      <point x="257" y="1294"/>
      <point x="257.7" y="1196.0" type="curve"/>
      <point x="49.03333333333333" y="1196.0" type="line"/>
      <point x="48" y="1395"/>
      <point x="144" y="1487"/>
      <point x="327.0333333333333" y="1487.0" type="curve" smooth="yes"/>
      <point x="518" y="1487"/>
      <point x="601" y="1410"/>
      <point x="602.0333333333333" y="1262.0" type="curve" smooth="yes"/>
      <point x="602" y="1189"/>
      <point x="551" y="1109"/>
      <point x="445.7" y="994.0" type="curve" smooth="yes"/>
      <point x="329.2" y="855.0" type="line"/>
      <point x="623.5333333333333" y="855.0" type="line"/>
      <point x="623.5333333333333" y="697.0" type="line"/>
    </contour>
  </outline>
</glyph>
<glyph name="paragraph" format="2">
  <advance width="1090"/>
  <unicode hex="00B6"/>
  <guideline x="0" y="901.0" angle="0" identifier="27539Lsr1A"/>
  <guideline x="0" y="555.0" angle="0" identifier="e34wUdCmXR"/>
  <outline>
    <contour>
      <point x="670.9666666666667" y="-146.0" type="line"/>
      <point x="440.6333333333333" y="-146.0" type="line"/>
      <point x="440.6333333333333" y="657.3333333333334" type="line"/>
      <point x="346.6333333333333" y="657.3333333333334" type="line" smooth="yes"/>
      <point x="177" y="657"/>
      <point x="57" y="822"/>
      <point x="57.266666666666666" y="1056.6666666666667" type="curve" smooth="yes"/>
      <point x="57" y="1291"/>
      <point x="177" y="1456"/>
      <point x="346.6333333333333" y="1456.0" type="curve" smooth="yes"/>
      <point x="670.9666666666667" y="1456.0" type="line"/>
    </contour>
    <contour>
      <point x="812.9666666666667" y="1459.0" type="line"/>
      <point x="988.3" y="1459.0" type="line"/>
      <point x="988.3" y="-146.0" type="line"/>
      <point x="812.9666666666667" y="-146.0" type="line"/>
    </contour>
  </outline>
</glyph>
<glyph name="questiondown" format="2">
  <advance width="1098"/>
  <unicode hex="00BF"/>
  <guideline x="0" y="-181.0" angle="0" identifier="apukwP5ffL"/>
  <guideline x="0" y="921.0" angle="0" identifier="5ZPZZL8Rim"/>
  <outline>
    <contour>
      <point x="764.7" y="1007.6333333333333" type="curve" smooth="yes"/>
      <point x="765" y="919"/>
      <point x="701" y="846"/>
      <point x="585.5333333333333" y="845.7666666666667" type="curve" smooth="yes"/>
      <point x="468" y="846"/>
      <point x="405" y="919"/>
      <point x="405.3" y="1007.6333333333333" type="curve" smooth="yes"/>
      <point x="405" y="1097"/>
      <point x="467" y="1170"/>
      <point x="584.4666666666667" y="1170.0" type="curve" smooth="yes"/>
      <point x="701" y="1170"/>
      <point x="765" y="1097"/>
    </contour>
    <contour>
      <point x="960.2333333333333" y="98.5" type="line"/>
      <point x="960.2333333333333" y="63.0" type="line" smooth="yes"/>
      <point x="960" y="-199"/>
      <point x="799" y="-328"/>
      <point x="559.6666666666666" y="-328.0" type="curve" smooth="yes"/>
      <point x="317" y="-328"/>
      <point x="153" y="-193"/>
      <point x="152.53333333333333" y="68.36666666666667" type="curve" smooth="yes"/>
      <point x="153" y="257"/>
      <point x="248" y="375"/>
      <point x="351.23333333333335" y="460.5" type="curve" smooth="yes"/>
      <point x="436" y="532"/>
      <point x="441" y="630"/>
      <point x="440.73333333333335" y="708.5" type="curve" smooth="yes"/>
      <point x="440.73333333333335" y="720.5" type="line"/>
      <point x="738.7" y="720.5" type="line"/>
      <point x="738.7" y="707.0" type="line" smooth="yes"/>
      <point x="739" y="550"/>
      <point x="721" y="453"/>
      <point x="594.3" y="330.8" type="curve" smooth="yes"/>
      <point x="498" y="239"/>
      <point x="454" y="192"/>
      <point x="454.5" y="74.86666666666667" type="curve" smooth="yes"/>
      <point x="454" y="-57"/>
      <point x="484" y="-108"/>
      <point x="561.6666666666666" y="-108.33333333333334" type="curve" smooth="yes"/>
      <point x="633" y="-108"/>
      <point x="667" y="-56"/>
      <point x="666.7666666666667" y="68.5" type="curve" smooth="yes"/>
      <point x="666.2666666666667" y="98.5" type="line"/>
    </contour>
  </outline>
</glyph>
<glyph name="Thorn" format="2">
  <advance width="1179"/>
  <unicode hex="00DE"/>
  <guideline x="0" y="901.0" angle="0" identifier="i9jYwjBDP4"/>
  <guideline x="0" y="555.0" angle="0" identifier="T8KKW8oxop"/>
  <outline>
    <contour>
      <point x="155.0" y="1456.0" type="line"/>
      <point x="455.3666666666667" y="1456.0" type="line"/>
      <point x="455.3666666666667" y="1201.6333333333334" type="line"/>
      <point x="637.5666666666667" y="1201.6333333333334" type="line" smooth="yes"/>
      <point x="939" y="1202"/>
      <point x="1103" y="1073"/>
      <point x="1103.0333333333333" y="740.2" type="curve" smooth="yes"/>
      <point x="1103" y="408"/>
      <point x="940" y="272"/>
      <point x="637.0666666666667" y="270.3" type="curve" smooth="yes"/>
      <point x="456.93333333333334" y="270.3" type="line"/>
      <point x="456.93333333333334" y="0.0" type="line"/>
      <point x="155.0" y="0.0" type="line"/>
    </contour>
    <contour>
      <point x="609.5666666666667" y="973.0" type="curve" smooth="yes"/>
      <point x="456.93333333333334" y="973.0" type="line"/>
      <point x="456.93333333333334" y="498.5" type="line"/>
      <point x="609.5666666666667" y="498.5" type="line" smooth="yes"/>
      <point x="762" y="498"/>
      <point x="802" y="587"/>
      <point x="801.6" y="740.8333333333334" type="curve" smooth="yes"/>
      <point x="802" y="894"/>
      <point x="762" y="972"/>
    </contour>
  </outline>
</glyph>
<glyph name="germandbls" format="2">
  <advance width="1385"/>
  <unicode hex="00DF"/>
  <outline>
    <contour>
      <point x="416.1666666666667" y="1092.0" type="curve" name="hr00"/>
      <point x="416.1666666666667" y="0.0" type="line"/>
      <point x="130.0" y="0.0" type="line"/>
      <point x="130.0" y="1092.0" type="line" smooth="yes"/>
      <point x="130" y="1371"/>
      <point x="300" y="1534"/>
      <point x="614.5" y="1534.0" type="curve" smooth="yes"/>
      <point x="888" y="1534"/>
      <point x="1028" y="1416"/>
      <point x="1027.6666666666667" y="1215.0" type="curve" smooth="yes"/>
      <point x="1028" y="1115"/>
      <point x="1004" y="1045"/>
      <point x="942.8333333333334" y="969.5" type="curve" smooth="yes"/>
      <point x="902" y="919"/>
      <point x="873" y="877"/>
      <point x="873.1666666666666" y="837.0" type="curve" smooth="yes"/>
      <point x="873" y="783"/>
      <point x="907" y="739"/>
      <point x="1083.6666666666667" y="656.0" type="curve" smooth="yes"/>
      <point x="1263" y="574"/>
      <point x="1333" y="485"/>
      <point x="1333.3333333333333" y="310.0" type="curve" smooth="yes"/>
      <point x="1333" y="74"/>
      <point x="1202" y="-25"/>
      <point x="924.0" y="-25.0" type="curve" smooth="yes"/>
      <point x="661" y="-25"/>
      <point x="522" y="91"/>
      <point x="522.1666666666666" y="308.0" type="curve" smooth="yes"/>
      <point x="522.1666666666666" y="329.5" type="line"/>
      <point x="802.6666666666666" y="328.5" type="line"/>
      <point x="802.6666666666666" y="310.5" type="line" smooth="yes"/>
      <point x="803" y="223"/>
      <point x="845" y="178"/>
      <point x="924.0" y="178.0" type="curve" smooth="yes"/>
      <point x="1005" y="178"/>
      <point x="1043" y="225"/>
      <point x="1042.8333333333333" y="304.0" type="curve" smooth="yes"/>
      <point x="1043" y="377"/>
      <point x="1008" y="407"/>
      <point x="855.6666666666666" y="475.0" type="curve" smooth="yes"/>
      <point x="673" y="557"/>
      <point x="584" y="657"/>
      <point x="584.0" y="786.0" type="curve" smooth="yes"/>
      <point x="584" y="870"/>
      <point x="625" y="939"/>
      <point x="699.8333333333334" y="1044.0" type="curve" smooth="yes"/>
      <point x="733" y="1091"/>
      <point x="741" y="1130"/>
      <point x="741.1666666666666" y="1182.0" type="curve" smooth="yes"/>
      <point x="741" y="1280"/>
      <point x="702" y="1330"/>
      <point x="610.5" y="1330.5" type="curve" smooth="yes"/>
      <point x="490" y="1330"/>
      <point x="416" y="1252"/>
    </contour>
  </outline>
</glyph>
<glyph name="eth" format="2">
  <advance width="1098"/>
  <unicode hex="00F0"/>
  <outline>
    <contour>
      <point x="192.2" y="1397.5333333333333" type="curve"/>
      <point x="267.5" y="1598.5" type="line"/>
      <point x="748.7833333333333" y="1496.3473333333334"/>
      <point x="1025.3333333333333" y="1129.7826666666667"/>
      <point x="1025.3333333333333" y="633.0" type="curve"/>
      <point x="1025.3333333333333" y="535.0" type="line"/>
      <point x="1025.3333333333333" y="208.03999999999996"/>
      <point x="876.1166666666667" y="-20.0"/>
      <point x="551.1666666666666" y="-20.0" type="curve" smooth="yes"/>
      <point x="238.94666666666666" y="-20.0"/>
      <point x="73.0" y="189.27999999999997"/>
      <point x="73.0" y="468.0" type="curve" smooth="yes"/>
      <point x="73.0" y="792.95"/>
      <point x="214.37666666666667" y="988.0"/>
      <point x="507.1666666666667" y="988.0" type="curve" smooth="yes"/>
      <point x="724.9166666666666" y="988.0"/>
      <point x="805.3333333333334" y="828.07"/>
      <point x="805.3333333333334" y="613.0" type="curve"/>
      <point x="737.3333333333334" y="577.0" type="line"/>
      <point x="737.3333333333334" y="713.5013333333334"/>
      <point x="655.4133333333334" y="767.7666666666667"/>
      <point x="561.1666666666666" y="767.7666666666667" type="curve" smooth="yes"/>
      <point x="396.3466666666667" y="767.7666666666667"/>
      <point x="368.6666666666667" y="667.14"/>
      <point x="368.6666666666667" y="471.5" type="curve" smooth="yes"/>
      <point x="368.6666666666667" y="314.04999999999995"/>
      <point x="399.05666666666673" y="185.56666666666666"/>
      <point x="555.1666666666666" y="185.56666666666666" type="curve" smooth="yes"/>
      <point x="695.8666666666667" y="185.56666666666666"/>
      <point x="731.1666666666666" y="326.73"/>
      <point x="731.1666666666666" y="515.0" type="curve" smooth="yes"/>
      <point x="731.1666666666666" y="635.0" type="line" smooth="yes"/>
      <point x="731.1666666666666" y="1024.5826666666667"/>
      <point x="557.5286666666666" y="1302.304"/>
    </contour>
    <contour>
      <point x="933.3333333333334" y="1427.0" type="line"/>
      <point x="390.5" y="1039.0" type="line"/>
      <point x="307.5" y="1159.0" type="line"/>
      <point x="850.3333333333334" y="1546.0" type="line"/>
    </contour>
  </outline>
</glyph>
<glyph name="thorn" format="2">
  <advance width="1092"/>
  <unicode hex="00FE"/>
  <outline>
    <contour>
      <point x="130.0" y="-416.0" type="line"/>
      <point x="130.0" y="1536.0" type="line"/>
      <point x="402.43333333333334" y="1536.0" type="line"/>
      <point x="402.43333333333334" y="944.6333333333333" type="line"/>
      <point x="440.4893333333333" y="1018.5566666666666"/>
      <point x="541.83" y="1076.0"/>
      <point x="645.2333333333333" y="1076.0" type="curve" smooth="yes"/>
      <point x="870.7553333333333" y="1076.0"/>
      <point x="1019.3" y="868.95"/>
      <point x="1019.3" y="544.0" type="curve" smooth="yes"/>
      <point x="1019.3" y="512.0" type="line" smooth="yes"/>
      <point x="1019.3" y="188.39"/>
      <point x="873.5553333333332" y="-20.0"/>
      <point x="654.7333333333333" y="-20.0" type="curve" smooth="yes"/>
      <point x="552.0" y="-20.0"/>
      <point x="456.9446666666667" y="11.049333333333323"/>
      <point x="412.23333333333335" y="86.0" type="curve"/>
      <point x="411.5" y="86.0" type="line"/>
      <point x="416.0333333333333" y="-416.0" type="line"/>
    </contour>
    <contour>
      <point x="418.4666666666667" y="312.6" type="line"/>
      <point x="433.564" y="267.844"/>
      <point x="485.6653333333333" y="200.23333333333335"/>
      <point x="573.0333333333333" y="200.23333333333335" type="curve" smooth="yes"/>
      <point x="669.6473333333333" y="200.23333333333335"/>
      <point x="724.3333333333334" y="275.05133333333333"/>
      <point x="724.3333333333334" y="463.5" type="curve" smooth="yes"/>
      <point x="724.3333333333334" y="592.0" type="line" smooth="yes"/>
      <point x="724.3333333333334" y="780.4486666666667"/>
      <point x="672.6320000000001" y="855.2666666666667"/>
      <point x="576.8666666666667" y="855.2666666666667" type="curve" smooth="yes"/>
      <point x="494.81399999999996" y="855.2666666666667"/>
      <point x="441.202" y="798.7773333333334"/>
      <point x="418.4666666666667" y="745.2666666666667" type="curve"/>
    </contour>
  </outline>
</glyph>
<glyph name="OE" format="2">
  <advance width="1760"/>
  <unicode hex="0152"/>
  <outline>
    <contour>
      <point x="668.3333333333334" y="1481.0" type="curve" smooth="yes"/>
      <point x="729.3033333333334" y="1481.0"/>
      <point x="860.1933333333334" y="1469.4"/>
      <point x="955.3333333333334" y="1456.0" type="curve"/>
      <point x="1684.6" y="1456.0" type="line"/>
      <point x="1684.6" y="1228.3333333333333" type="line"/>
      <point x="1138.7333333333333" y="1228.3333333333333" type="line"/>
      <point x="1138.7333333333333" y="861.8666666666667" type="line"/>
      <point x="1593.6" y="861.8666666666667" type="line"/>
      <point x="1593.6" y="636.0666666666667" type="line"/>
      <point x="1138.7333333333333" y="636.0666666666667" type="line"/>
      <point x="1138.7333333333333" y="227.23333333333335" type="line"/>
      <point x="1695.1" y="227.23333333333335" type="line"/>
      <point x="1695.1" y="0.0" type="line"/>
      <point x="956.8333333333334" y="0.0" type="line"/>
      <point x="861.6933333333334" y="-12.73"/>
      <point x="738.2833333333334" y="-25.0"/>
      <point x="647.8333333333334" y="-25.0" type="curve" smooth="yes"/>
      <point x="300.1033333333333" y="-25.0"/>
      <point x="99.5" y="212.15999999999997"/>
      <point x="99.5" y="682.5" type="curve" smooth="yes"/>
      <point x="99.5" y="772.5" type="line" smooth="yes"/>
      <point x="99.5" y="1236.81"/>
      <point x="291.1233333333333" y="1481.0"/>
    </contour>
    <contour>
      <point x="403.8333333333333" y="654.5" type="line" smooth="yes"/>
      <point x="403.8333333333333" y="345.63"/>
      <point x="474.36333333333334" y="203.0"/>
      <point x="669.3333333333334" y="203.0" type="curve" smooth="yes"/>
      <point x="722.9333333333334" y="203.0"/>
      <point x="785.7133333333334" y="208.79"/>
      <point x="843.3333333333334" y="217.5" type="curve"/>
      <point x="843.3333333333334" y="1235.5" type="line"/>
      <point x="776.3333333333334" y="1245.55"/>
      <point x="704.5033333333333" y="1251.0"/>
      <point x="670.3333333333334" y="1251.0" type="curve" smooth="yes"/>
      <point x="472.0133333333333" y="1251.0"/>
      <point x="403.8333333333333" y="1105.18"/>
      <point x="403.8333333333333" y="801.0" type="curve" smooth="yes"/>
    </contour>
  </outline>
</glyph>
<glyph name="Schwa" format="2">
  <advance width="1297"/>
  <unicode hex="018F"/>
  <outline>
    <contour>
      <point x="29.0" y="1199.0" type="line"/>
      <point x="157.46133333333336" y="1405.0919999999999"/>
      <point x="377.16666666666663" y="1519.0"/>
      <point x="589.3333333333334" y="1519.0" type="curve" smooth="yes"/>
      <point x="1069.7233333333334" y="1519.0"/>
      <point x="1262.1666666666667" y="1229.19"/>
      <point x="1262.1666666666667" y="789.0" type="curve" smooth="yes"/>
      <point x="1262.1666666666667" y="293.86999999999995"/>
      <point x="1056.5433333333335" y="-30.0"/>
      <point x="612.3333333333334" y="-30.0" type="curve" smooth="yes"/>
      <point x="257.45666666666665" y="-30.0"/>
      <point x="69.37" y="192.3773333333333"/>
      <point x="62.0" y="590.0" type="curve" smooth="yes"/>
      <point x="62.0" y="773.0" type="line"/>
      <point x="1002.6666666666666" y="773.0" type="line"/>
      <point x="1002.6666666666666" y="579.5" type="line"/>
      <point x="635.8333333333334" y="587.0" type="line"/>
      <point x="369.5" y="581.5" type="line"/>
      <point x="369.5" y="517.0" type="line" smooth="yes"/>
      <point x="369.5" y="291.5226666666667"/>
      <point x="464.558" y="190.5"/>
      <point x="629.3333333333334" y="190.5" type="curve" smooth="yes"/>
      <point x="876.5633333333334" y="190.5"/>
      <point x="958.0066666666667" y="405.96999999999997"/>
      <point x="956.6666666666666" y="747.0" type="curve" smooth="yes"/>
      <point x="955.3266666666666" y="1092.05"/>
      <point x="839.3333333333334" y="1285.0"/>
      <point x="571.3333333333334" y="1285.0" type="curve" smooth="yes"/>
      <point x="417.2333333333333" y="1285.0"/>
      <point x="269.70533333333333" y="1212.1019999999999"/>
      <point x="186.0" y="1071.0" type="curve"/>
    </contour>
  </outline>
</glyph>
<glyph name="apostrophemod" format="2">
  <advance width="606"/>
  <unicode hex="02BC"/>
  <outline>
    <contour>
      <point x="129.0" y="1038.0" type="line"/>
      <point x="183.94" y="1076.86"/>
      <point x="272.4" y="1153.38"/>
      <point x="292.5" y="1244.5" type="curve"/>
      <point x="191.32999999999998" y="1244.5"/>
      <point x="137.0" y="1308.05"/>
      <point x="137.0" y="1398.5" type="curve" smooth="yes"/>
      <point x="137.0" y="1487.61"/>
      <point x="208.67" y="1553.5"/>
      <point x="308.5" y="1553.5" type="curve" smooth="yes"/>
      <point x="402.97" y="1553.5"/>
      <point x="493.5" y="1473.59"/>
      <point x="493.5" y="1355.0" type="curve" smooth="yes"/>
      <point x="493.5" y="1166.73"/>
      <point x="345.47" y="1031.7"/>
      <point x="184.0" y="958.0" type="curve"/>
    </contour>
  </outline>
</glyph>
<glyph name="dotaccent" format="2">
  <advance width="1024"/>
  <unicode hex="02D9"/>
  <outline>
    <contour>
      <point x="355.0" y="1371.0" type="curve" smooth="yes"/>
      <point x="355.0" y="1450.73"/>
      <point x="413.34" y="1516.5"/>
      <point x="512.5" y="1516.5" type="curve" smooth="yes"/>
      <point x="610.32" y="1516.5"/>
      <point x="670.0" y="1450.73"/>
      <point x="670.0" y="1371.0" type="curve" smooth="yes"/>
      <point x="670.0" y="1291.94"/>
      <point x="610.49" y="1226.0"/>
      <point x="512.0" y="1226.0" type="curve" smooth="yes"/>
      <point x="412.84" y="1226.0"/>
      <point x="355.0" y="1291.94"/>
    </contour>
  </outline>
</glyph>
<glyph name="ogonek" format="2">
  <advance width="1024"/>
  <unicode hex="02DB"/>
  <outline>
    <contour>
      <point x="524.0" y="57.5" type="curve"/>
      <point x="606.0" y="-4.5" type="line"/>
      <point x="524.26" y="-68.82000000000001"/>
      <point x="443.0" y="-140.42000000000002"/>
      <point x="443.0" y="-223.5" type="curve" smooth="yes"/>
      <point x="443.0" y="-267.72"/>
      <point x="470.04" y="-295.0"/>
      <point x="529.0" y="-295.0" type="curve" smooth="yes"/>
      <point x="574.56" y="-295.0"/>
      <point x="609.06" y="-279.05"/>
      <point x="630.5" y="-269.0" type="curve"/>
      <point x="651.5" y="-428.0" type="line"/>
      <point x="611.3" y="-449.44"/>
      <point x="554.96" y="-475.5"/>
      <point x="462.5" y="-475.5" type="curve" smooth="yes"/>
      <point x="335.87" y="-475.5"/>
      <point x="246.5" y="-403.84000000000003"/>
      <point x="246.5" y="-268.5" type="curve" smooth="yes"/>
      <point x="246.5" y="-151.92"/>
      <point x="331.03999999999996" y="-38.31"/>
    </contour>
  </outline>
</glyph>
<glyph name="horncomb" format="2">
  <advance width="1024"/>
  <unicode hex="031B"/>
  <outline>
    <contour>
      <point x="0.0" y="998.0" type="line"/>
      <point x="86.5" y="998.0" type="line" smooth="yes"/>
      <point x="153.5" y="998.0"/>
      <point x="210.5" y="1015.96"/>
      <point x="210.5" y="1091.0" type="curve" smooth="yes"/>
      <point x="210.5" y="1158.0"/>
      <point x="201.07" y="1206.74"/>
      <point x="187.0" y="1259.0" type="curve"/>
      <point x="360.5" y="1259.0" type="line"/>
      <point x="389.98" y="1208.08"/>
      <point x="419.0" y="1126.66"/>
      <point x="419.0" y="1027.5" type="curve" smooth="yes"/>
      <point x="419.0" y="890.8199999999999"/>
      <point x="300.54" y="827.0"/>
      <point x="158.5" y="827.0" type="curve" smooth="yes"/>
      <point x="90.83" y="827.0"/>
      <point x="38.190000000000005" y="837.43"/>
      <point x="0.0" y="851.5" type="curve"/>
    </contour>
  </outline>
</glyph>
<glyph name="dieresisbelowcomb" format="2">
  <advance width="1024"/>
  <unicode hex="0324"/>
  <outline>
    <contour>
      <point x="227.13333333333333" y="-351.0333333333333" type="curve" smooth="yes"/>
      <point x="227.13333333333333" y="-278.2266666666667"/>
      <point x="278.95466666666664" y="-214.0"/>
      <point x="375.1666666666667" y="-214.0" type="curve" smooth="yes"/>
      <point x="474.41600000000005" y="-214.0"/>
      <point x="524.2666666666667" y="-275.18933333333337"/>
      <point x="524.2666666666667" y="-351.0333333333333" type="curve" smooth="yes"/>
      <point x="524.2666666666667" y="-421.0706666666667"/>
      <point x="471.5486666666667" y="-485.43333333333334"/>
      <point x="374.6666666666667" y="-485.43333333333334" type="curve" smooth="yes"/>
      <point x="276.1766666666667" y="-485.43333333333334"/>
      <point x="227.13333333333333" y="-423.3486666666667"/>
    </contour>
    <contour>
      <point x="597.3666666666667" y="-353.1666666666667" type="curve" smooth="yes"/>
      <point x="597.3666666666667" y="-280.35999999999996"/>
      <point x="647.7586666666666" y="-216.13333333333333"/>
      <point x="745.4" y="-216.13333333333333" type="curve" smooth="yes"/>
      <point x="843.89" y="-216.13333333333333"/>
      <point x="895.0" y="-277.32266666666663"/>
      <point x="895.0" y="-353.1666666666667" type="curve" smooth="yes"/>
      <point x="895.0" y="-423.204"/>
      <point x="841.0226666666666" y="-487.56666666666666"/>
      <point x="744.9" y="-487.56666666666666" type="curve" smooth="yes"/>
      <point x="644.9806666666667" y="-487.56666666666666"/>
      <point x="597.3666666666667" y="-425.48199999999997"/>
    </contour>
  </outline>
</glyph>
<glyph name="brevebelowcomb" format="2">
  <advance width="1024"/>
  <unicode hex="032E"/>
  <outline>
    <contour>
      <point x="715.2333333333333" y="-110.06666666666666" type="curve"/>
      <point x="858.8666666666667" y="-178.0" type="line"/>
      <point x="818.354" y="-307.31"/>
      <point x="690.0086666666666" y="-463.0"/>
      <point x="514.0666666666667" y="-463.0" type="curve" smooth="yes"/>
      <point x="353.9366666666666" y="-463.0"/>
      <point x="217.58400000000003" y="-328.92"/>
      <point x="167.2" y="-177.5" type="curve"/>
      <point x="313.9666666666667" y="-110.06666666666666" type="line"/>
      <point x="353.452" y="-179.21066666666667"/>
      <point x="424.7726666666666" y="-253.33333333333334"/>
      <point x="515.1333333333333" y="-253.33333333333334" type="curve" smooth="yes"/>
      <point x="610.0053333333333" y="-253.33333333333334"/>
      <point x="673.6486666666667" y="-183.14133333333334"/>
    </contour>
  </outline>
</glyph>
<glyph name="Theta" format="2">
  <advance width="1339"/>
  <unicode hex="0398"/>
  <outline>
    <contour>
      <point x="667.8" y="-29.5" type="curve" smooth="yes"/>
      <point x="335.4353333333333" y="-29.5"/>
      <point x="115.0" y="187.5933333333333"/>
      <point x="115.0" y="682.5" type="curve" smooth="yes"/>
      <point x="115.0" y="773.5" type="line" smooth="yes"/>
      <point x="115.0" y="1268.4066666666665"/>
      <point x="335.4353333333333" y="1485.5"/>
      <point x="667.8" y="1485.5" type="curve" smooth="yes"/>
      <point x="999.4946666666667" y="1485.5"/>
      <point x="1222.5333333333333" y="1268.4066666666665"/>
      <point x="1222.5333333333333" y="773.5" type="curve" smooth="yes"/>
      <point x="1222.5333333333333" y="682.5" type="line" smooth="yes"/>
      <point x="1222.5333333333333" y="187.5933333333333"/>
      <point x="999.4946666666667" y="-29.5"/>
    </contour>
    <contour>
      <point x="667.8" y="200.66666666666669" type="curve" smooth="yes"/>
      <point x="841.7320000000001" y="200.66666666666669"/>
      <point x="927.0666666666666" y="316.1313333333333"/>
      <point x="927.0666666666666" y="622.5" type="curve" smooth="yes"/>
      <point x="927.0666666666666" y="834.0666666666666" type="line" smooth="yes"/>
      <point x="927.0666666666666" y="1141.1053333333334"/>
      <point x="841.7320000000001" y="1254.8333333333333"/>
      <point x="667.8" y="1254.8333333333333" type="curve" smooth="yes"/>
      <point x="494.538" y="1254.8333333333333"/>
      <point x="409.9" y="1141.1053333333334"/>
      <point x="409.9" y="834.0666666666666" type="curve" smooth="yes"/>
      <point x="409.9" y="622.5" type="line" smooth="yes"/>
      <point x="409.9" y="316.1313333333333"/>
      <point x="494.538" y="200.66666666666669"/>
    </contour>
    <contour>
      <point x="476.8" y="614.0" type="line"/>
      <point x="476.8" y="857.0" type="line"/>
      <point x="860.1666666666666" y="857.0" type="line"/>
      <point x="860.1666666666666" y="614.0" type="line"/>
    </contour>
  </outline>
</glyph>
<glyph name="Lambda" format="2">
  <advance width="1045"/>
  <unicode hex="039B"/>
  <outline>
    <contour>
      <point x="-17.5" y="0.0" type="line"/>
      <point x="350.3" y="1463.0" type="line"/>
      <point x="696.2666666666667" y="1463.0" type="line"/>
      <point x="1070.1333333333332" y="0.0" type="line"/>
      <point x="754.0" y="0.0" type="line"/>
      <point x="539.7666666666667" y="1028.0333333333333" type="line" smooth="yes"/>
      <point x="529.8953333333333" y="1074.3526666666667"/>
      <point x="518.654" y="1114.2526666666665"/>
      <point x="510.0333333333333" y="1155.0333333333333" type="curve"/>
      <point x="503.6666666666667" y="1155.0333333333333" type="line"/>
      <point x="495.716" y="1114.2526666666665"/>
      <point x="480.91200000000003" y="1074.3526666666667"/>
      <point x="471.8" y="1028.0333333333333" type="curve" smooth="yes"/>
      <point x="255.2" y="0.0" type="line"/>
    </contour>
  </outline>
</glyph>
<glyph name="alpha" format="2">
  <advance width="1137"/>
  <unicode hex="03B1"/>
  <anchor x="495" y="1077" name="GRK_top"/>
  <outline>
    <contour>
      <point x="453" y="-20.0" type="curve" smooth="yes"/>
      <point x="224" y="-20.0"/>
      <point x="73.0" y="188"/>
      <point x="73.0" y="524" type="curve" smooth="yes"/>
      <point x="73.0" y="556.0" type="line" smooth="yes"/>
      <point x="73.0" y="883"/>
      <point x="228" y="1100"/>
      <point x="445.0" y="1100" type="curve" smooth="yes"/>
      <point x="552" y="1100"/>
      <point x="630" y="1062"/>
      <point x="679" y="976" type="curve"/>
      <point x="681" y="976" type="line"/>
      <point x="687" y="1080" type="line"/>
      <point x="962" y="1080" type="line"/>
      <point x="962" y="298" type="line" smooth="yes"/>
      <point x="962" y="219"/>
      <point x="988.0" y="199.0"/>
      <point x="1033" y="199" type="curve" smooth="yes"/>
      <point x="1055" y="199"/>
      <point x="1079" y="205"/>
      <point x="1097" y="214" type="curve"/>
      <point x="1097" y="12" type="line"/>
      <point x="1078" y="-3"/>
      <point x="1009" y="-19"/>
      <point x="950" y="-19" type="curve" smooth="yes"/>
      <point x="835.0" y="-19"/>
      <point x="760.0" y="28.0"/>
      <point x="731" y="122" type="curve"/>
      <point x="727" y="122" type="line"/>
      <point x="697" y="50"/>
      <point x="617" y="-20.0"/>
    </contour>
    <contour>
      <point x="523" y="200" type="curve" smooth="yes"/>
      <point x="585" y="200"/>
      <point x="649" y="242"/>
      <point x="674" y="328" type="curve"/>
      <point x="674" y="770" type="line"/>
      <point x="657" y="823"/>
      <point x="615" y="880"/>
      <point x="531" y="880" type="curve" smooth="yes"/>
      <point x="432" y="880"/>
      <point x="368" y="811"/>
      <point x="368" y="602.0" type="curve"/>
      <point x="368" y="487" type="line" smooth="yes"/>
      <point x="368" y="280"/>
      <point x="421" y="200"/>
    </contour>
  </outline>
</glyph>
<glyph name="delta" format="2">
  <advance width="1042"/>
  <unicode hex="03B4"/>
  <outline>
    <contour>
      <point x="523" y="-30.0" type="curve" smooth="yes"/>
      <point x="804" y="-30.0"/>
      <point x="976" y="187"/>
      <point x="976" y="475" type="curve" smooth="yes"/>
      <point x="976" y="497" type="line" smooth="yes"/>
      <point x="976" y="763"/>
      <point x="849" y="920"/>
      <point x="651" y="1057" type="curve" smooth="yes"/>
      <point x="528" y="1146"/>
      <point x="501" y="1179"/>
      <point x="501" y="1239" type="curve" smooth="yes"/>
      <point x="502" y="1292"/>
      <point x="535" y="1332"/>
      <point x="612" y="1332" type="curve"/>
      <point x="688" y="1332"/>
      <point x="779" y="1297"/>
      <point x="854" y="1250" type="curve"/>
      <point x="888" y="1471.0" type="line"/>
      <point x="833" y="1512"/>
      <point x="709" y="1551.0"/>
      <point x="567" y="1551.0" type="curve"/>
      <point x="309" y="1551.0"/>
      <point x="196" y="1427"/>
      <point x="197" y="1254" type="curve"/>
      <point x="196" y="1113"/>
      <point x="271" y="1032"/>
      <point x="497" y="869" type="curve" smooth="yes"/>
      <point x="614" y="785"/>
      <point x="689" y="686"/>
      <point x="689" y="481" type="curve" smooth="yes"/>
      <point x="689" y="451" type="line" smooth="yes"/>
      <point x="689" y="266"/>
      <point x="630" y="191"/>
      <point x="523" y="191" type="curve" smooth="yes"/>
      <point x="418" y="191"/>
      <point x="364" y="265"/>
      <point x="364" y="456" type="curve" smooth="yes"/>
      <point x="364" y="476" type="line" smooth="yes"/>
      <point x="364" y="683"/>
      <point x="436" y="806"/>
      <point x="583" y="872" type="curve"/>
      <point x="471" y="1009" type="line"/>
      <point x="196" y="939"/>
      <point x="78" y="730"/>
      <point x="78" y="476" type="curve" smooth="yes"/>
      <point x="78" y="465" type="line" smooth="yes"/>
      <point x="78" y="149"/>
      <point x="223" y="-30.0"/>
    </contour>
  </outline>
</glyph>
<glyph name="eta" format="2">
  <advance width="1076"/>
  <unicode hex="03B7"/>
  <anchor x="451.3333333333333" y="1079.857142857143" name="GRK_top"/>
  <outline>
    <contour>
      <point x="667" y="-416" type="line"/>
      <point x="667" y="725" type="line" smooth="yes"/>
      <point x="667" y="834"/>
      <point x="637" y="878"/>
      <point x="559" y="878" type="curve" smooth="yes"/>
      <point x="490" y="878"/>
      <point x="434" y="822"/>
      <point x="418" y="765" type="curve"/>
      <point x="418" y="0.0" type="line"/>
      <point x="130.0" y="0.0" type="line"/>
      <point x="130.0" y="1080" type="line"/>
      <point x="407" y="1080" type="line"/>
      <point x="412" y="977" type="line"/>
      <point x="415" y="977" type="line"/>
      <point x="454" y="1051"/>
      <point x="548" y="1101"/>
      <point x="653" y="1101" type="curve" smooth="yes"/>
      <point x="832" y="1101"/>
      <point x="955" y="1002"/>
      <point x="956" y="705" type="curve" smooth="yes"/>
      <point x="956" y="-416" type="line"/>
    </contour>
  </outline>
</glyph>
<glyph name="iota" format="2">
  <advance width="593"/>
  <unicode hex="03B9"/>
  <anchor x="270.93333333333334" y="1079.857142857143" name="GRK_top"/>
  <outline>
    <contour>
      <point x="420" y="-29" type="curve" smooth="yes"/>
      <point x="239" y="-29"/>
      <point x="120" y="76"/>
      <point x="120.0" y="314.0" type="curve" smooth="yes"/>
      <point x="120.0" y="1080" type="line"/>
      <point x="407" y="1080" type="line"/>
      <point x="407" y="313" type="line" smooth="yes"/>
      <point x="407" y="208"/>
      <point x="436" y="189"/>
      <point x="484" y="189" type="curve" smooth="yes"/>
      <point x="508" y="189"/>
      <point x="530" y="195"/>
      <point x="552" y="203" type="curve"/>
      <point x="552" y="1.0" type="line"/>
      <point x="527" y="-15"/>
      <point x="476" y="-29"/>
    </contour>
  </outline>
</glyph>
<glyph name="kappa" format="2">
  <advance width="983"/>
  <unicode hex="03BA"/>
  <outline>
    <contour>
      <point x="130.0" y="0.0" type="line"/>
      <point x="130.0" y="1080" type="line"/>
      <point x="418" y="1080" type="line"/>
      <point x="418" y="0.0" type="line"/>
    </contour>
    <contour>
      <point x="267" y="439" type="line"/>
      <point x="267" y="664" type="line"/>
      <point x="482" y="664" type="line"/>
      <point x="683" y="1080" type="line"/>
      <point x="969" y="1080" type="line"/>
      <point x="630" y="439" type="line"/>
    </contour>
    <contour>
      <point x="702" y="0.0" type="line"/>
      <point x="450" y="491" type="line"/>
      <point x="667" y="617" type="line"/>
      <point x="1000" y="0.0" type="line"/>
    </contour>
  </outline>
</glyph>
<glyph name="pi" format="2">
  <advance width="1123"/>
  <unicode hex="03C0"/>
  <outline>
    <contour>
      <point x="32.0" y="848" type="line"/>
      <point x="32.0" y="1080" type="line"/>
      <point x="1112" y="1080" type="line"/>
      <point x="1112" y="848" type="line"/>
    </contour>
    <contour>
      <point x="163" y="0.0" type="line"/>
      <point x="163" y="960" type="line"/>
      <point x="450" y="960" type="line"/>
      <point x="450" y="0.0" type="line"/>
    </contour>
    <contour>
      <point x="970" y="-19" type="curve" smooth="yes"/>
      <point x="773" y="-19"/>
      <point x="700" y="49"/>
      <point x="700" y="268" type="curve"/>
      <point x="700" y="960" type="line"/>
      <point x="988" y="960" type="line"/>
      <point x="988" y="287" type="line" smooth="yes"/>
      <point x="988" y="199"/>
      <point x="1026" y="195"/>
      <point x="1053" y="195" type="curve" smooth="yes"/>
      <point x="1084" y="195"/>
      <point x="1107" y="204"/>
      <point x="1122" y="212" type="curve"/>
      <point x="1122" y="7" type="line"/>
      <point x="1098" y="-7"/>
      <point x="1011" y="-19"/>
    </contour>
  </outline>
</glyph>
<glyph name="rho" format="2">
  <advance width="1061"/>
  <unicode hex="03C1"/>
  <outline>
    <contour>
      <point x="98.66666666666667" y="-416.0" type="line"/>
      <point x="98.66666666666667" y="551.5" type="line" smooth="yes"/>
      <point x="98.66666666666667" y="887.84"/>
      <point x="245.54266666666666" y="1107.5"/>
      <point x="549.6333333333333" y="1107.5" type="curve" smooth="yes"/>
      <point x="846.9793333333333" y="1107.5"/>
      <point x="987.9666666666667" y="893.7591428571429"/>
      <point x="987.9666666666667" y="563.1428571428571" type="curve" smooth="yes"/>
      <point x="987.9666666666667" y="515.9904761904762" type="line" smooth="yes"/>
      <point x="987.9666666666667" y="185.19552380952376"/>
      <point x="841.8593333333334" y="-20.0"/>
      <point x="624.4666666666667" y="-20.0" type="curve"/>
      <point x="523.1626666666666" y="-20.0"/>
      <point x="428.718" y="9.450000000000003"/>
      <point x="387.1333333333333" y="82.03333333333333" type="curve"/>
      <point x="387.1333333333333" y="-416.0" type="line"/>
    </contour>
    <contour>
      <point x="542.7666666666667" y="200.23333333333335" type="curve" smooth="yes"/>
      <point x="635.0926666666667" y="200.23333333333335"/>
      <point x="693.0" y="265.37152380952386"/>
      <point x="693.0" y="478.15714285714284" type="curve" smooth="yes"/>
      <point x="693.0" y="589.8095238095239" type="line" smooth="yes"/>
      <point x="693.0" y="809.7418095238095"/>
      <point x="627.8691428571428" y="882.2666666666667"/>
      <point x="530.3809523809524" y="882.2666666666667" type="curve" smooth="yes"/>
      <point x="421.0624761904762" y="882.2666666666667"/>
      <point x="387.1333333333333" y="795.05"/>
      <point x="387.1333333333333" y="584.0" type="curve"/>
      <point x="387.1333333333333" y="312.6" type="line"/>
      <point x="406.5186666666667" y="260.69733333333335"/>
      <point x="458.25733333333335" y="200.23333333333335"/>
    </contour>
  </outline>
</glyph>
<glyph name="tau" format="2">
  <advance width="761"/>
  <unicode hex="03C4"/>
  <outline>
    <contour>
      <point x="32.0" y="848" type="line"/>
      <point x="32.0" y="1080" type="line"/>
      <point x="752" y="1080" type="line"/>
      <point x="752" y="848" type="line"/>
    </contour>
    <contour>
      <point x="519" y="-29" type="curve" smooth="yes"/>
      <point x="338" y="-29"/>
      <point x="243" y="61"/>
      <point x="243" y="299.0" type="curve" smooth="yes"/>
      <point x="243" y="960" type="line"/>
      <point x="531" y="960" type="line"/>
      <point x="531" y="313" type="line" smooth="yes"/>
      <point x="531" y="208"/>
      <point x="559" y="189"/>
      <point x="607" y="189" type="curve" smooth="yes"/>
      <point x="631" y="189"/>
      <point x="654" y="195"/>
      <point x="676" y="203" type="curve"/>
      <point x="676" y="1.0" type="line"/>
      <point x="650" y="-15"/>
      <point x="575" y="-29"/>
    </contour>
  </outline>
</glyph>
<glyph name="omega" format="2">
  <advance width="1447"/>
  <unicode hex="03C9"/>
  <anchor x="718.8333333333334" y="1076.857142857143" name="GRK_top"/>
  <outline>
    <contour>
      <point x="446.4666666666667" y="-30.0" type="curve" smooth="yes"/>
      <point x="222.95466666666667" y="-30.0"/>
      <point x="83.0" y="115.35761904761898"/>
      <point x="83.0" y="482.1666666666667" type="curve" smooth="yes"/>
      <point x="83.0" y="750.5495238095239"/>
      <point x="175.62733333333335" y="962.4371428571429"/>
      <point x="290.73333333333335" y="1080.357142857143" type="curve"/>
      <point x="524.3333333333334" y="1014.8571428571429" type="line"/>
      <point x="422.13599999999997" y="876.1671428571428"/>
      <point x="368.9666666666667" y="695.1695238095239"/>
      <point x="368.9666666666667" y="469.6666666666667" type="curve" smooth="yes"/>
      <point x="368.9666666666667" y="270.53628571428567"/>
      <point x="400.1106666666667" y="193.23333333333335"/>
      <point x="489.53333333333336" y="193.23333333333335" type="curve"/>
      <point x="548.1806666666666" y="193.23333333333335"/>
      <point x="588.8666666666667" y="248.32"/>
      <point x="588.8666666666667" y="385.0" type="curve" smooth="yes"/>
      <point x="588.8666666666667" y="706.5952380952381" type="line"/>
      <point x="857.3333333333334" y="706.5952380952381" type="line"/>
      <point x="857.3333333333334" y="385.0" type="line" smooth="yes"/>
      <point x="857.3333333333334" y="251.17866666666666"/>
      <point x="896.2613333333333" y="193.23333333333335"/>
      <point x="959.8666666666667" y="193.23333333333335" type="curve" smooth="yes"/>
      <point x="1042.1426666666666" y="193.23333333333335"/>
      <point x="1076.1666666666667" y="264.8189523809524"/>
      <point x="1076.1666666666667" y="469.6666666666667" type="curve"/>
      <point x="1076.1666666666667" y="695.1695238095239"/>
      <point x="1024.9933333333333" y="876.1671428571428"/>
      <point x="921.3666666666667" y="1014.8571428571429" type="curve"/>
      <point x="1155.4666666666667" y="1080.357142857143" type="line"/>
      <point x="1274.8606666666665" y="955.2904761904762"/>
      <point x="1364.2666666666667" y="745.4935238095238"/>
      <point x="1364.2666666666667" y="492.8333333333333" type="curve"/>
      <point x="1364.2666666666667" y="106.01361904761899"/>
      <point x="1220.7493333333334" y="-30.0"/>
      <point x="998.6666666666666" y="-30.0" type="curve" smooth="yes"/>
      <point x="866.4086666666667" y="-30.0"/>
      <point x="746.926" y="65.18333333333331"/>
      <point x="712.6666666666666" y="229.33333333333334" type="curve"/>
      <point x="732.4666666666667" y="229.33333333333334" type="line"/>
      <point x="700.2173333333333" y="69.20333333333332"/>
      <point x="588.2833333333333" y="-30.0"/>
    </contour>
  </outline>
</glyph>
<glyph name="Ieukran" format="2">
  <advance width="1187"/>
  <unicode hex="0404"/>
  <guideline x="254.0" y="759.0" angle="90.0" identifier="mFTeE97JTj"/>
  <outline>
    <contour>
      <point x="250.8" y="840.0666666666667" type="line"/>
      <point x="761.6666666666666" y="840.0666666666667" type="line"/>
      <point x="761.6666666666666" y="621.3333333333334" type="line"/>
      <point x="250.8" y="621.3333333333334" type="line"/>
    </contour>
    <contour>
      <point x="99.5" y="682.5" type="curve" smooth="yes"/>
      <point x="99.5" y="773.5" type="line" smooth="yes"/>
      <point x="99.5" y="1281.1813333333332"/>
      <point x="307.7033333333333" y="1485.5"/>
      <point x="659.9" y="1485.5" type="curve" smooth="yes"/>
      <point x="974.7553333333334" y="1485.5"/>
      <point x="1168.8666666666668" y="1304.6773333333333"/>
      <point x="1168.8666666666668" y="983.1666666666666" type="curve" smooth="yes"/>
      <point x="1168.8666666666668" y="959.1666666666666" type="line"/>
      <point x="870.4" y="959.1666666666666" type="line"/>
      <point x="870.4" y="987.1666666666666" type="line" smooth="yes"/>
      <point x="870.4" y="1142.6960000000001"/>
      <point x="821.0053333333334" y="1259.8333333333333"/>
      <point x="656.9" y="1259.8333333333333" type="curve" smooth="yes"/>
      <point x="474.08768702288904" y="1259.8333333333333"/>
      <point x="399.9" y="1147.678"/>
      <point x="399.9" y="837.2" type="curve" smooth="yes"/>
      <point x="399.9" y="611.3666666666667" type="line" smooth="yes"/>
      <point x="399.9" y="320.006"/>
      <point x="489.1421481481457" y="195.66666666666666"/>
      <point x="659.8333333333334" y="195.66666666666666" type="curve" smooth="yes"/>
      <point x="807.412" y="195.66666666666666"/>
      <point x="873.0213333333334" y="325.88133333333326"/>
      <point x="870.9666666666667" y="470.3333333333333" type="curve"/>
      <point x="870.4" y="496.3333333333333" type="line"/>
      <point x="1168.8666666666668" y="496.3333333333333" type="line"/>
      <point x="1169.4333333333334" y="470.3333333333333" type="line" smooth="yes"/>
      <point x="1184.62" y="151.41333333333336"/>
      <point x="974.7553333333334" y="-29.5"/>
      <point x="659.9" y="-29.5" type="curve" smooth="yes"/>
      <point x="302.83466666666664" y="-29.5"/>
      <point x="99.5" y="185.98533333333336"/>
    </contour>
  </outline>
</glyph>
<glyph name="Lje" format="2">
  <advance width="1836"/>
  <unicode hex="0409"/>
  <outline>
    <contour>
      <point x="279.93333333333334" y="1456.0" type="line"/>
      <point x="1124.9333333333334" y="1456.0" type="line"/>
      <point x="1124.9333333333334" y="938.5333333333333" type="line"/>
      <point x="1297.2666666666667" y="938.5333333333333" type="line" smooth="yes"/>
      <point x="1623.5566666666666" y="938.5333333333333"/>
      <point x="1758.0" y="779.0026666666666"/>
      <point x="1758.0" y="470.26666666666665" type="curve" smooth="yes"/>
      <point x="1758.0" y="156.84066666666666"/>
      <point x="1623.7266666666667" y="0.0"/>
      <point x="1296.7666666666667" y="0.0" type="curve" smooth="yes"/>
      <point x="826.4666666666667" y="0.0" type="line"/>
      <point x="826.4666666666667" y="1227.2666666666667" type="line"/>
      <point x="523.4666666666667" y="1227.2666666666667" type="line"/>
      <point x="490.8" y="539.0" type="line" smooth="yes"/>
      <point x="472.978" y="152.94599999999997"/>
      <point x="393.41200000000003" y="-15.633333333333333"/>
      <point x="123.0" y="-15.633333333333333" type="curve" smooth="yes"/>
      <point x="89.768" y="-15.633333333333333"/>
      <point x="49.17266666666667" y="-12.703333333333333"/>
      <point x="10.0" y="1.3666666666666671" type="curve"/>
      <point x="10.0" y="268.56666666666666" type="line"/>
      <point x="37.202" y="257.84666666666664"/>
      <point x="57.018" y="255.56666666666666"/>
      <point x="80.2" y="255.56666666666666" type="curve" smooth="yes"/>
      <point x="191.5093333333333" y="255.56666666666666"/>
      <point x="227.51866666666666" y="341.534"/>
      <point x="239.4" y="596.0" type="curve" smooth="yes"/>
    </contour>
    <contour>
      <point x="1124.9333333333334" y="712.8" type="line"/>
      <point x="1124.9333333333334" y="224.66666666666669" type="line"/>
      <point x="1273.2666666666667" y="224.66666666666669" type="line" smooth="yes"/>
      <point x="1405.8373333333334" y="224.66666666666669"/>
      <point x="1460.0333333333333" y="308.752"/>
      <point x="1460.0333333333333" y="470.26666666666665" type="curve" smooth="yes"/>
      <point x="1460.0333333333333" y="626.5106666666667"/>
      <point x="1406.03" y="712.8"/>
      <point x="1272.7" y="712.8" type="curve" smooth="yes"/>
    </contour>
  </outline>
</glyph>
<glyph name="Nje" format="2">
  <advance width="1735"/>
  <unicode hex="040A"/>
  <outline>
    <contour>
      <point x="155.0" y="0.0" type="line"/>
      <point x="155.0" y="1456.0" type="line"/>
      <point x="452.9666666666667" y="1456.0" type="line"/>
      <point x="452.9666666666667" y="884.2" type="line"/>
      <point x="887.1333333333333" y="884.2" type="line"/>
      <point x="887.1333333333333" y="1456.0" type="line"/>
      <point x="1185.6" y="1456.0" type="line"/>
      <point x="1185.6" y="884.2" type="line"/>
      <point x="1358.4333333333334" y="884.2" type="line" smooth="yes"/>
      <point x="1684.7233333333334" y="869.9066666666666"/>
      <point x="1819.1666666666667" y="734.8533333333334"/>
      <point x="1819.1666666666667" y="442.73333333333335" type="curve" smooth="yes"/>
      <point x="1819.1666666666667" y="147.75466666666665"/>
      <point x="1684.8933333333334" y="0.0"/>
      <point x="1357.9333333333334" y="0.0" type="curve" smooth="yes"/>
      <point x="887.1333333333333" y="0.0" type="line"/>
      <point x="887.1333333333333" y="658.4666666666667" type="line"/>
      <point x="452.9666666666667" y="658.4666666666667" type="line"/>
      <point x="452.9666666666667" y="0.0" type="line"/>
    </contour>
    <contour>
      <point x="1185.6" y="653.4666666666667" type="line"/>
      <point x="1185.6" y="224.66666666666669" type="line"/>
      <point x="1344.4333333333334" y="224.66666666666669" type="line" smooth="yes"/>
      <point x="1473.6540000000002" y="224.66666666666669"/>
      <point x="1521.2" y="301.00600000000003"/>
      <point x="1521.2" y="442.73333333333335" type="curve" smooth="yes"/>
      <point x="1521.2" y="578.3413333333333"/>
      <point x="1473.8466666666668" y="653.4666666666667"/>
      <point x="1343.8666666666668" y="653.4666666666667" type="curve" smooth="yes"/>
    </contour>
  </outline>
</glyph>
<glyph name="Be" format="2">
  <advance width="1169"/>
  <unicode hex="0411"/>
  <outline>
    <contour>
      <point x="155.0" y="0.0" type="line"/>
      <point x="155.0" y="1456.0" type="line"/>
      <point x="1019.6666666666666" y="1456.0" type="line"/>
      <point x="1019.6666666666666" y="1228.3333333333333" type="line"/>
      <point x="453.4666666666667" y="1228.3333333333333" type="line"/>
      <point x="453.4666666666667" y="895.5333333333333" type="line"/>
      <point x="664.4666666666667" y="895.5333333333333" type="line" smooth="yes"/>
      <point x="943.1866666666667" y="895.5333333333333"/>
      <point x="1094.2" y="760.6826666666666"/>
      <point x="1094.2" y="449.26666666666665" type="curve" smooth="yes"/>
      <point x="1094.2" y="138.61"/>
      <point x="943.1866666666667" y="0.0"/>
      <point x="664.4666666666667" y="0.0" type="curve" smooth="yes"/>
    </contour>
    <contour>
      <point x="453.4666666666667" y="670.8" type="line"/>
      <point x="453.4666666666667" y="224.66666666666669" type="line"/>
      <point x="636.9666666666667" y="224.66666666666669" type="line" smooth="yes"/>
      <point x="758.1473333333333" y="224.66666666666669"/>
      <point x="810.7333333333333" y="307.182"/>
      <point x="810.7333333333333" y="449.26666666666665" type="curve" smooth="yes"/>
      <point x="810.7333333333333" y="593.4506666666666"/>
      <point x="758.51" y="670.8"/>
      <point x="635.9" y="670.8" type="curve" smooth="yes"/>
    </contour>
  </outline>
</glyph>
<glyph name="Ze" format="2">
  <advance width="1193"/>
  <unicode hex="0417"/>
  <outline>
    <contour>
      <point x="557.3666666666667" y="198.16666666666669" type="curve" smooth="yes"/>
      <point x="721.338" y="198.16666666666669"/>
      <point x="810.7966666666667" y="280.594"/>
      <point x="811.4666666666667" y="431.43333333333334" type="curve" smooth="yes"/>
      <point x="812.1366666666667" y="564.808"/>
      <point x="744.5526666666667" y="645.0"/>
      <point x="535.2" y="645.0" type="curve" smooth="yes"/>
      <point x="439.1333333333333" y="645.0" type="line"/>
      <point x="439.1333333333333" y="863.8666666666667" type="line"/>
      <point x="555.3333333333334" y="863.8666666666667" type="line" smooth="yes"/>
      <point x="697.552" y="863.8666666666667"/>
      <point x="774.4666666666667" y="933.7820911680703"/>
      <point x="774.4666666666667" y="1066.5333333333333" type="curve" smooth="yes"/>
      <point x="774.4666666666667" y="1184.0430026455076"/>
      <point x="710.1064705882775" y="1257.3333333333333"/>
      <point x="568.5" y="1257.3333333333333" type="curve" smooth="yes"/>
      <point x="396.75666666666666" y="1257.3333333333333"/>
      <point x="359.6" y="1100.99"/>
      <point x="359.6" y="1009.2" type="curve" smooth="yes"/>
      <point x="359.6" y="999.3333333333334" type="line"/>
      <point x="61.13333333333333" y="999.3333333333334" type="line"/>
      <point x="61.13333333333333" y="1009.3333333333334" type="line" smooth="yes"/>
      <point x="61.13333333333333" y="1317.444"/>
      <point x="245.46466666666663" y="1486.0"/>
      <point x="578.6333333333333" y="1486.0" type="curve" smooth="yes"/>
      <point x="899.1166666666666" y="1486.0"/>
      <point x="1068.9333333333334" y="1331.1222195512937"/>
      <point x="1068.9333333333334" y="1111.6333333333334" type="curve" smooth="yes"/>
      <point x="1068.9333333333334" y="915.9386092715326"/>
      <point x="970.8267500950797" y="809.1871852190166"/>
      <point x="805.8666666666667" y="766.9333333333333" type="curve"/>
      <point x="805.8666666666667" y="762.9333333333333" type="line"/>
      <point x="1006.7326666666667" y="722.7333333333332"/>
      <point x="1108.4333333333334" y="607.7387283236671"/>
      <point x="1108.4333333333334" y="417.8666666666667" type="curve" smooth="yes"/>
      <point x="1108.4333333333334" y="133.6644210526165"/>
      <point x="911.5240000000001" y="-29.5"/>
      <point x="565.0" y="-29.5" type="curve" smooth="yes"/>
      <point x="191.8993333333333" y="-29.5"/>
      <point x="35.733333333333334" y="161.87866666666667"/>
      <point x="35.733333333333334" y="445.3333333333333" type="curve" smooth="yes"/>
      <point x="35.733333333333334" y="455.3333333333333" type="line"/>
      <point x="334.2" y="455.3333333333333" type="line"/>
      <point x="334.2" y="445.3333333333333" type="line"/>
      <point x="342.776" y="342.01933333333335"/>
      <point x="405.27666666666664" y="198.16666666666669"/>
    </contour>
  </outline>
</glyph>
<glyph name="El" format="2">
  <advance width="1344"/>
  <unicode hex="041B"/>
  <outline>
    <contour>
      <point x="279.93333333333334" y="1456.0" type="line"/>
      <point x="1188.6" y="1456.0" type="line"/>
      <point x="1188.6" y="0.0" type="line"/>
      <point x="890.1333333333333" y="0.0" type="line"/>
      <point x="890.1333333333333" y="1227.2666666666667" type="line"/>
      <point x="523.4666666666667" y="1227.2666666666667" type="line"/>
      <point x="490.8" y="539.0" type="line" smooth="yes"/>
      <point x="472.978" y="152.94599999999997"/>
      <point x="393.41200000000003" y="-15.633333333333333"/>
      <point x="123.0" y="-15.633333333333333" type="curve" smooth="yes"/>
      <point x="89.768" y="-15.633333333333333"/>
      <point x="49.17266666666667" y="-12.703333333333333"/>
      <point x="10.0" y="1.3666666666666671" type="curve"/>
      <point x="10.0" y="268.56666666666666" type="line"/>
      <point x="37.202" y="257.84666666666664"/>
      <point x="57.018" y="255.56666666666666"/>
      <point x="80.2" y="255.56666666666666" type="curve" smooth="yes"/>
      <point x="191.5093333333333" y="255.56666666666666"/>
      <point x="227.51866666666666" y="341.534"/>
      <point x="239.4" y="596.0" type="curve" smooth="yes"/>
    </contour>
  </outline>
</glyph>
<glyph name="Soft" format="2">
  <advance width="1164"/>
  <unicode hex="042C"/>
  <outline>
    <contour>
      <point x="155.0" y="1456.0" type="line"/>
      <point x="155.0" y="0.0" type="line"/>
      <point x="625.3" y="0.0" type="line" smooth="yes"/>
      <point x="952.26" y="0.0"/>
      <point x="1086.5333333333333" y="156.46223378095146"/>
      <point x="1086.5333333333333" y="470.26666666666665" type="curve" smooth="yes"/>
      <point x="1086.5333333333333" y="779.9988686867869"/>
      <point x="952.0934809387968" y="938.5333333333333"/>
      <point x="625.8" y="938.5333333333333" type="curve" smooth="yes"/>
      <point x="453.4666666666667" y="938.5333333333333" type="line"/>
      <point x="453.4666666666667" y="1456.0" type="line"/>
    </contour>
    <contour>
      <point x="453.4666666666667" y="712.8" type="line"/>
      <point x="601.2333333333333" y="712.8" type="line" smooth="yes"/>
      <point x="734.5633333333334" y="712.8"/>
      <point x="788.5666666666666" y="626.8829483849679"/>
      <point x="788.5666666666666" y="470.26666666666665" type="curve" smooth="yes"/>
      <point x="788.5666666666666" y="308.7842336769877"/>
      <point x="734.3706666666667" y="224.66666666666669"/>
      <point x="601.8" y="224.66666666666669" type="curve" smooth="yes"/>
      <point x="453.4666666666667" y="224.66666666666669" type="line"/>
    </contour>
  </outline>
</glyph>
<glyph name="Ecyr" format="2">
  <advance width="1218"/>
  <unicode hex="042D"/>
  <guideline x="1147.0" y="753.0" angle="90.0" identifier="Ovo68woMtl"/>
  <outline>
    <contour>
      <point x="966.3666666666667" y="845.0666666666667" type="line"/>
      <point x="966.3666666666667" y="626.3333333333334" type="line"/>
      <point x="459.2" y="626.3333333333334" type="line"/>
      <point x="459.2" y="845.0666666666667" type="line"/>
    </contour>
    <contour>
      <point x="816.7" y="611.3666666666667" type="curve" smooth="yes"/>
      <point x="816.7" y="837.2" type="line" smooth="yes"/>
      <point x="816.7" y="1132.7146666666667"/>
      <point x="746.6193333333334" y="1254.8333333333333"/>
      <point x="568.5333333333333" y="1254.8333333333333" type="curve" smooth="yes"/>
      <point x="401.56933333333336" y="1254.8333333333333"/>
      <point x="370.0333333333333" y="1133.358"/>
      <point x="370.0333333333333" y="985.4666666666667" type="curve" smooth="yes"/>
      <point x="370.0333333333333" y="969.1666666666666" type="line"/>
      <point x="69.06666666666666" y="969.1666666666666" type="line"/>
      <point x="69.06666666666666" y="985.4666666666667" type="line" smooth="yes"/>
      <point x="69.06666666666666" y="1288.5746666666669"/>
      <point x="252.90266666666668" y="1485.5"/>
      <point x="565.0333333333333" y="1485.5" type="curve" smooth="yes"/>
      <point x="898.3806666666667" y="1485.5"/>
      <point x="1117.1" y="1283.9320000000002"/>
      <point x="1117.1" y="761.6" type="curve" smooth="yes"/>
      <point x="1117.1" y="668.3333333333334" type="line" smooth="yes"/>
      <point x="1117.1" y="190.80200000000002"/>
      <point x="898.998" y="-29.5"/>
      <point x="557.7" y="-29.5" type="curve" smooth="yes"/>
      <point x="236.14466666666664" y="-29.5"/>
      <point x="47.733333333333334" y="152.76169795921464"/>
      <point x="47.733333333333334" y="466.5" type="curve" smooth="yes"/>
      <point x="47.733333333333334" y="486.3333333333333" type="line"/>
      <point x="348.7" y="486.3333333333333" type="line"/>
      <point x="348.7" y="466.5" type="line"/>
      <point x="357.276" y="330.57933333333335"/>
      <point x="412.18066666666664" y="200.66666666666669"/>
      <point x="556.7666666666667" y="200.66666666666669" type="curve" smooth="yes"/>
      <point x="707.6953333333333" y="200.66666666666669"/>
      <point x="816.7" y="320.89933333333335"/>
    </contour>
  </outline>
</glyph>
<glyph name="Ya" format="2">
  <advance width="1194"/>
  <unicode hex="042F"/>
  <outline>
    <contour>
      <point x="1039.2666666666667" y="0.0" type="line"/>
      <point x="1039.2666666666667" y="1456.0" type="line"/>
      <point x="583.8" y="1456.0" type="line" smooth="yes"/>
      <point x="278.69758139536214" y="1456.0"/>
      <point x="108.33333333333333" y="1310.3139999999999"/>
      <point x="108.33333333333333" y="997.0666666666667" type="curve" smooth="yes"/>
      <point x="108.33333333333333" y="739.3699270743036"/>
      <point x="219.6165074986867" y="588.7782643200175"/>
      <point x="424.5" y="559.5666666666667" type="curve"/>
      <point x="462.73333333333335" y="531.1333333333333" type="line"/>
      <point x="740.8" y="531.1333333333333" type="line"/>
      <point x="740.8" y="0.0" type="line"/>
    </contour>
    <contour>
      <point x="740.8" y="752.3666666666667" type="line"/>
      <point x="603.4666666666667" y="752.3666666666667" type="line" smooth="yes"/>
      <point x="455.97733333333326" y="752.3666666666667"/>
      <point x="405.8" y="846.6206666666666"/>
      <point x="405.8" y="996.5666666666667" type="curve" smooth="yes"/>
      <point x="405.8" y="1145.932"/>
      <point x="457.33061246616535" y="1233.3333333333333"/>
      <point x="608.8" y="1233.3333333333333" type="curve" smooth="yes"/>
      <point x="740.8" y="1233.3333333333333" type="line"/>
    </contour>
    <contour>
      <point x="397.6" y="0.0" type="line"/>
      <point x="676.9666666666667" y="672.0" type="line"/>
      <point x="355.43333333333334" y="672.0" type="line"/>
      <point x="64.0" y="0.0" type="line"/>
    </contour>
  </outline>
</glyph>
<glyph name="el" format="2">
  <advance width="1104"/>
  <unicode hex="043B"/>
  <outline>
    <contour>
      <point x="443.5333333333333" y="832.5" type="line"/>
      <point x="431.73333333333335" y="382.73333333333335" type="line" smooth="yes"/>
      <point x="425.65866666666665" y="156.6753333333333"/>
      <point x="374.514" y="-19.233333333333334"/>
      <point x="137.2" y="-19.233333333333334" type="curve" smooth="yes"/>
      <point x="81.322" y="-19.233333333333334"/>
      <point x="48.05066666666667" y="-11.034000000000002"/>
      <point x="20.0" y="0.2666666666666666" type="curve"/>
      <point x="20.0" y="233.76666666666665" type="line"/>
      <point x="41.35066666666667" y="224.38666666666666"/>
      <point x="50.49333333333333" y="220.76666666666665"/>
      <point x="78.63333333333333" y="220.76666666666665" type="curve" smooth="yes"/>
      <point x="148.62600000000003" y="220.76666666666665"/>
      <point x="174.06499711759574" y="314.2163221392618"/>
      <point x="175.13333333333333" y="392.26666666666665" type="curve" smooth="yes"/>
      <point x="193.86666666666667" y="1055.0" type="line"/>
      <point x="975.7333333333333" y="1055.0" type="line"/>
      <point x="975.7333333333333" y="0.0" type="line"/>
      <point x="687.2666666666667" y="0.0" type="line"/>
      <point x="687.2666666666667" y="832.5" type="line"/>
    </contour>
  </outline>
</glyph>
<glyph name="dje" format="2">
  <advance width="1071"/>
  <unicode hex="0452"/>
  <outline>
    <contour>
      <point x="278.4" y="1211.0" type="line"/>
      <point x="49.733333333333334" y="1211.0" type="line"/>
      <point x="57.233333333333334" y="1406.5" type="line"/>
      <point x="300.9" y="1406.5" type="line"/>
      <point x="576.5666666666666" y="1406.5" type="line"/>
      <point x="576.5666666666666" y="1211.0" type="line"/>
    </contour>
    <contour>
      <point x="950.5333333333333" y="-65.0" type="line" smooth="yes"/>
      <point x="950.5333333333333" y="-316.92"/>
      <point x="828.9693333333335" y="-436.0"/>
      <point x="631.9" y="-436.0" type="curve" smooth="yes"/>
      <point x="583.526" y="-436.0"/>
      <point x="514.212" y="-423.06"/>
      <point x="485.0" y="-411.0" type="curve"/>
      <point x="484.0" y="-197.83333333333334" type="line"/>
      <point x="510.6213333333333" y="-207.88333333333335"/>
      <point x="549.7280000000001" y="-217.83333333333334"/>
      <point x="584.3" y="-217.83333333333334" type="curve" smooth="yes"/>
      <point x="636.828" y="-217.83333333333334"/>
      <point x="662.0666666666666" y="-174.978"/>
      <point x="662.0666666666666" y="-65.5" type="curve" smooth="yes"/>
      <point x="662.0666666666666" y="703.5" type="line" smooth="yes"/>
      <point x="662.0666666666666" y="800.5606666666666"/>
      <point x="628.7926666666666" y="852.8333333333334"/>
      <point x="567.7333333333333" y="852.8333333333334" type="curve" smooth="yes"/>
      <point x="486.70799999999997" y="852.8333333333334"/>
      <point x="433.29599999999994" y="788.0740000000001"/>
      <point x="418.4666666666667" y="699.5" type="curve"/>
      <point x="418.4666666666667" y="0.0" type="line"/>
      <point x="130.0" y="0.0" type="line"/>
      <point x="130.0" y="1531.0" type="line"/>
      <point x="417.9666666666667" y="1531.0" type="line"/>
      <point x="417.9666666666667" y="907.4666666666667" type="line"/>
      <point x="466.1173333333333" y="1017.7040000000001"/>
      <point x="543.4053333333333" y="1076.0"/>
      <point x="685.2666666666667" y="1076.0" type="curve" smooth="yes"/>
      <point x="837.7586666666666" y="1076.0"/>
      <point x="950.5333333333333" y="952.924"/>
      <point x="950.5333333333333" y="727.0" type="curve" smooth="yes"/>
    </contour>
  </outline>
</glyph>
<glyph name="ieukran" format="2">
  <advance width="956"/>
  <unicode hex="0454"/>
  <guideline x="180.0" y="548.0" angle="90.0" identifier="n4jm0tBg3Y"/>
  <outline>
    <contour>
      <point x="73.0" y="512.0" type="curve" smooth="yes"/>
      <point x="73.0" y="544.0" type="line" smooth="yes"/>
      <point x="73.0" y="906.9166666666667"/>
      <point x="255.48466666666667" y="1085.5"/>
      <point x="533.2666666666667" y="1085.5" type="curve" smooth="yes"/>
      <point x="796.4873333333335" y="1085.5"/>
      <point x="932.61" y="933.572"/>
      <point x="944.0" y="720.3333333333334" type="curve" smooth="yes"/>
      <point x="945.5" y="702.3333333333334" type="line"/>
      <point x="669.5333333333333" y="702.3333333333334" type="line"/>
      <point x="669.5333333333333" y="710.3333333333334" type="line" smooth="yes"/>
      <point x="669.5333333333333" y="810.2973333333332"/>
      <point x="636.3639999999999" y="873.2"/>
      <point x="529.7" y="873.2" type="curve" smooth="yes"/>
      <point x="423.6166666666666" y="873.2"/>
      <point x="363.4666666666667" y="790.8573333333334"/>
      <point x="363.4666666666667" y="585.0333333333333" type="curve" smooth="yes"/>
      <point x="363.4666666666667" y="464.1666666666667" type="line" smooth="yes"/>
      <point x="363.4666666666667" y="266.2728211730736"/>
      <point x="416.6433333333333" y="180.73333333333335"/>
      <point x="519.6" y="180.73333333333335" type="curve" smooth="yes"/>
      <point x="639.1726666666667" y="180.73333333333335"/>
      <point x="669.0333333333333" y="251.73266666666666"/>
      <point x="669.0333333333333" y="345.6666666666667" type="curve" smooth="yes"/>
      <point x="669.0333333333333" y="352.6666666666667" type="line"/>
      <point x="944.5" y="352.6666666666667" type="line"/>
      <point x="944.5" y="340.1666666666667" type="line" smooth="yes"/>
      <point x="944.5" y="127.59799999999998"/>
      <point x="800.0586666666668" y="-30.0"/>
      <point x="524.7333333333333" y="-30.0" type="curve" smooth="yes"/>
      <point x="259.05600000000004" y="-30.0"/>
      <point x="73.0" y="149.08333333333326"/>
    </contour>
    <contour>
      <point x="181.0" y="630.0" type="line"/>
      <point x="619.0" y="630.0" type="line"/>
      <point x="619.0" y="445.0" type="line"/>
      <point x="181.0" y="445.0" type="line"/>
    </contour>
  </outline>
</glyph>
<glyph name="nje" format="2">
  <advance width="1569"/>
  <unicode hex="045A"/>
  <outline>
    <contour>
      <point x="130.0" y="1055.0" type="line"/>
      <point x="418.4666666666667" y="1055.0" type="line"/>
      <point x="418.4666666666667" y="683.8333333333334" type="line"/>
      <point x="669.9333333333334" y="683.8333333333334" type="line"/>
      <point x="669.9333333333334" y="1055.0" type="line"/>
      <point x="958.4" y="1055.0" type="line"/>
      <point x="958.4" y="683.8333333333334" type="line"/>
      <point x="1104.0666666666666" y="683.8333333333334" type="line" smooth="yes"/>
      <point x="1372.3793333333333" y="683.8333333333334"/>
      <point x="1510.5333333333333" y="551.9149133154917"/>
      <point x="1510.5333333333333" y="338.6666666666667" type="curve" smooth="yes"/>
      <point x="1510.5333333333333" y="119.54730711611765"/>
      <point x="1372.3793333333333" y="0.0"/>
      <point x="1104.0666666666666" y="0.0" type="curve" smooth="yes"/>
      <point x="669.9333333333334" y="0.0" type="line"/>
      <point x="669.9333333333334" y="461.3333333333333" type="line"/>
      <point x="418.4666666666667" y="461.3333333333333" type="line"/>
      <point x="418.4666666666667" y="0.0" type="line"/>
      <point x="130.0" y="0.0" type="line"/>
    </contour>
    <contour>
      <point x="1050.5666666666666" y="481.8333333333333" type="curve" smooth="yes"/>
      <point x="958.4" y="481.8333333333333" type="line"/>
      <point x="958.4" y="201.5" type="line"/>
      <point x="1050.5666666666666" y="201.5" type="line" smooth="yes"/>
      <point x="1177.8666666666666" y="201.5"/>
      <point x="1221.0666666666666" y="254.70318196458152"/>
      <point x="1221.0666666666666" y="343.6666666666667" type="curve" smooth="yes"/>
      <point x="1221.0666666666666" y="429.31797777775245"/>
      <point x="1177.8713366128297" y="481.8333333333333"/>
    </contour>
  </outline>
</glyph>
<glyph name="ustraight" format="2">
  <advance width="852"/>
  <unicode hex="04AF"/>
  <outline>
    <contour>
      <point x="564.8333333333334" y="-416.0" type="line"/>
      <point x="276.3666666666667" y="-416.0" type="line"/>
      <point x="276.3666666666667" y="0.0" type="line"/>
      <point x="-21.0" y="1055.0" type="line"/>
      <point x="280.0" y="1055.0" type="line"/>
      <point x="411.43333333333334" y="488.0" type="line" smooth="yes"/>
      <point x="423.31466666666665" y="437.08"/>
      <point x="429.9806666666666" y="400.25333333333333"/>
      <point x="436.1" y="338.16666666666663" type="curve"/>
      <point x="442.6" y="338.16666666666663" type="line"/>
      <point x="447.29" y="400.25333333333333"/>
      <point x="454.7153333333333" y="435.07"/>
      <point x="467.26666666666665" y="488.0" type="curve" smooth="yes"/>
      <point x="599.2666666666667" y="1055.0" type="line"/>
      <point x="865.7" y="1055.0" type="line"/>
      <point x="564.8333333333334" y="0.0" type="line"/>
    </contour>
  </outline>
</glyph>
<glyph name="cheverticalstroke-cy" format="2">
  <advance width="1168"/>
  <unicode hex="04B9"/>
  <outline>
    <contour>
      <point x="749.2" y="0.0" type="line"/>
      <point x="749.2" y="1055.0" type="line"/>
      <point x="1037.6666666666667" y="1055.0" type="line"/>
      <point x="1037.6666666666667" y="0.0" type="line"/>
    </contour>
    <contour>
      <point x="393.8" y="772.5" type="line" smooth="yes"/>
      <point x="393.8" y="631.6213333333333"/>
      <point x="440.554" y="588.5"/>
      <point x="588.2666666666667" y="588.5" type="curve" smooth="yes"/>
      <point x="696.092" y="588.5"/>
      <point x="796.852" y="593.516"/>
      <point x="904.7666666666667" y="621.5666666666667" type="curve"/>
      <point x="904.7666666666667" y="405.56666666666666" type="line"/>
      <point x="796.584" y="384.39466666666664"/>
      <point x="636.5173333333335" y="372.5"/>
      <point x="501.26666666666665" y="372.5" type="curve" smooth="yes"/>
      <point x="234.33866666666665" y="372.5"/>
      <point x="105.33333333333333" y="466.4946666666666"/>
      <point x="105.33333333333333" y="744.5" type="curve" smooth="yes"/>
      <point x="105.33333333333333" y="1055.0" type="line"/>
      <point x="393.8" y="1055.0" type="line"/>
    </contour>
    <contour>
      <point x="675.3333333333334" y="856.0" type="line"/>
      <point x="675.3333333333334" y="202.0" type="line"/>
      <point x="474.8333333333333" y="202.0" type="line"/>
      <point x="474.8333333333333" y="856.0" type="line"/>
    </contour>
  </outline>
</glyph>
<glyph name="Schwacyr" format="2">
  <advance width="1298"/>
  <unicode hex="04D8"/>
  <guideline x="144.20000000000005" y="784.8666666666667" angle="90.0" identifier="UtNSclIhRG"/>
  <guideline x="1361.5666666666666" y="805.2666666666667" angle="90.0" identifier="hwb5F7EShy"/>
  <outline>
    <contour>
      <point x="252.23333333333335" y="827.8666666666667" type="line"/>
      <point x="1044.8" y="827.8666666666667" type="line"/>
      <point x="1044.8" y="624.1333333333333" type="line"/>
      <point x="252.23333333333335" y="624.1333333333333" type="line"/>
    </contour>
    <contour>
      <point x="891.5666666666666" y="821.0333333333333" type="line" smooth="yes"/>
      <point x="891.5666666666666" y="1137.318"/>
      <point x="821.3293333333335" y="1254.8333333333333"/>
      <point x="634.5333333333333" y="1254.8333333333333" type="curve" smooth="yes"/>
      <point x="479.1826666666667" y="1254.8333333333333"/>
      <point x="430.531691835689" y="1134.1834843476681"/>
      <point x="438.73333333333335" y="1010.5333333333333" type="curve" smooth="yes"/>
      <point x="438.8666666666667" y="1000.6666666666666" type="line"/>
      <point x="134.9" y="1000.6666666666666" type="line"/>
      <point x="134.83333333333334" y="1010.6666666666666" type="line" smooth="yes"/>
      <point x="133.04869503960765" y="1300.1269503960098"/>
      <point x="319.44599999999997" y="1485.5"/>
      <point x="634.0333333333333" y="1485.5" type="curve" smooth="yes"/>
      <point x="981.4506666666666" y="1485.5"/>
      <point x="1197.0333333333333" y="1271.7826666666665"/>
      <point x="1197.0333333333333" y="761.6" type="curve" smooth="yes"/>
      <point x="1197.0333333333333" y="668.3333333333334" type="line" smooth="yes"/>
      <point x="1197.0333333333333" y="187.05"/>
      <point x="984.31" y="-29.5"/>
      <point x="647.3" y="-29.5" type="curve" smooth="yes"/>
      <point x="312.3" y="-29.5"/>
      <point x="99.5" y="197.24999999999994"/>
      <point x="99.5" y="683.0" type="curve" smooth="yes"/>
      <point x="99.5" y="827.8666666666667" type="line"/>
      <point x="404.4" y="827.8666666666667" type="line"/>
      <point x="404.4" y="654.7" type="line" smooth="yes"/>
      <point x="404.4" y="310.45399999999995"/>
      <point x="497.88133333333326" y="200.66666666666669"/>
      <point x="646.8" y="200.66666666666669" type="curve" smooth="yes"/>
      <point x="797.7286666666668" y="200.66666666666669"/>
      <point x="891.5666666666666" y="299.26666666666665"/>
      <point x="891.5666666666666" y="632.0333333333333" type="curve" smooth="yes"/>
    </contour>
  </outline>
</glyph>
<glyph name="Obarcyr" format="2">
  <advance width="1308"/>
  <unicode hex="04E8"/>
  <guideline x="252.0" y="757.0" angle="90.0" identifier="UtNSclIhRG"/>
  <guideline x="1254.5" y="729.0" angle="90.0" identifier="hwb5F7EShy"/>
  <outline>
    <contour>
      <point x="247.73333333333335" y="852.8666666666667" type="line"/>
      <point x="1060.4333333333334" y="852.8666666666667" type="line"/>
      <point x="1060.4333333333334" y="644.1333333333333" type="line"/>
      <point x="247.73333333333335" y="644.1333333333333" type="line"/>
    </contour>
    <contour>
      <point x="99.5" y="682.5" type="curve" smooth="yes"/>
      <point x="99.5" y="773.5" type="line" smooth="yes"/>
      <point x="99.5" y="1268.4066666666665"/>
      <point x="319.9353333333333" y="1485.5"/>
      <point x="652.3" y="1485.5" type="curve" smooth="yes"/>
      <point x="983.9946666666667" y="1485.5"/>
      <point x="1207.0333333333333" y="1268.4066666666665"/>
      <point x="1207.0333333333333" y="773.5" type="curve" smooth="yes"/>
      <point x="1207.0333333333333" y="682.5" type="line" smooth="yes"/>
      <point x="1207.0333333333333" y="187.5933333333333"/>
      <point x="983.9946666666667" y="-29.5"/>
      <point x="652.3" y="-29.5" type="curve" smooth="yes"/>
      <point x="319.9353333333333" y="-29.5"/>
      <point x="99.5" y="187.5933333333333"/>
    </contour>
    <contour>
      <point x="394.9" y="622.5" type="line" smooth="yes"/>
      <point x="394.9" y="316.1313333333333"/>
      <point x="486.47394488192305" y="200.66666666666669"/>
      <point x="652.3" y="200.66666666666669" type="curve" smooth="yes"/>
      <point x="818.37682758623" y="200.66666666666669"/>
      <point x="910.5666666666666" y="316.1313333333333"/>
      <point x="910.5666666666666" y="622.5" type="curve" smooth="yes"/>
      <point x="910.5666666666666" y="834.0666666666666" type="line" smooth="yes"/>
      <point x="910.5666666666666" y="1141.1053333333334"/>
      <point x="818.37682758623" y="1254.8333333333333"/>
      <point x="652.3" y="1254.8333333333333" type="curve" smooth="yes"/>
      <point x="486.47394488192305" y="1254.8333333333333"/>
      <point x="394.9" y="1141.1053333333334"/>
      <point x="394.9" y="834.0666666666666" type="curve" smooth="yes"/>
    </contour>
  </outline>
</glyph>
<glyph name="obarcyr" format="2">
  <advance width="1076"/>
  <unicode hex="04E9"/>
  <guideline x="176.66666666666666" y="651.8" angle="90.0" identifier="hR8aPakcxg"/>
  <guideline x="833.7333333333333" y="589.7333333333333" angle="90.0" identifier="Zk7mCVRpZk"/>
  <outline>
    <contour>
      <point x="215.6" y="622.0" type="line"/>
      <point x="863.8" y="622.0" type="line"/>
      <point x="863.8" y="447.0" type="line"/>
      <point x="215.6" y="447.0" type="line"/>
    </contour>
    <contour>
      <point x="73.0" y="512.0" type="curve" smooth="yes"/>
      <point x="73.0" y="544.0" type="line" smooth="yes"/>
      <point x="73.0" y="906.2466666666667"/>
      <point x="261.6913333333333" y="1085.5"/>
      <point x="538.1333333333333" y="1085.5" type="curve" smooth="yes"/>
      <point x="814.5753333333334" y="1085.5"/>
      <point x="1004.3333333333334" y="906.2466666666667"/>
      <point x="1004.3333333333334" y="544.0" type="curve" smooth="yes"/>
      <point x="1004.3333333333334" y="512.0" type="line" smooth="yes"/>
      <point x="1004.3333333333334" y="149.75333333333327"/>
      <point x="814.5753333333334" y="-30.0"/>
      <point x="538.1333333333333" y="-30.0" type="curve" smooth="yes"/>
      <point x="261.6913333333333" y="-30.0"/>
      <point x="73.0" y="149.75333333333327"/>
    </contour>
    <contour>
      <point x="359.4666666666667" y="591.8333333333334" type="curve" smooth="yes"/>
      <point x="359.4666666666667" y="464.1666666666667" type="line" smooth="yes"/>
      <point x="359.4666666666667" y="263.30066666666664"/>
      <point x="418.38199999999995" y="181.23333333333335"/>
      <point x="538.1333333333333" y="181.23333333333335" type="curve" smooth="yes"/>
      <point x="658.5546666666667" y="181.23333333333335"/>
      <point x="717.8666666666667" y="263.30066666666664"/>
      <point x="717.8666666666667" y="464.1666666666667" type="curve" smooth="yes"/>
      <point x="717.8666666666667" y="591.8333333333334" type="line" smooth="yes"/>
      <point x="717.8666666666667" y="799.1759999999999"/>
      <point x="663.1106666666667" y="874.2666666666667"/>
      <point x="538.1333333333333" y="874.2666666666667" type="curve" smooth="yes"/>
      <point x="412.486" y="874.2666666666667"/>
      <point x="359.4666666666667" y="792.0293333333334"/>
    </contour>
  </outline>
</glyph>
<glyph name="Germandbls" format="2">
  <advance width="1448"/>
  <unicode hex="1E9E"/>
  <outline>
    <contour>
      <point x="173.66666666666666" y="1079.0" type="line" smooth="yes"/>
      <point x="173.66666666666666" y="1374.9613333333332"/>
      <point x="337.7646666666667" y="1522.0"/>
      <point x="628.5" y="1522.0" type="curve" smooth="yes"/>
      <point x="873.3626666666667" y="1522.0"/>
      <point x="1043.3333333333333" y="1435.7233333333334"/>
      <point x="1043.3333333333333" y="1234.5" type="curve" smooth="yes"/>
      <point x="1043.3333333333333" y="1128.64"/>
      <point x="1008.2166666666667" y="1053.2"/>
      <point x="931.1666666666666" y="979.5" type="curve" smooth="yes"/>
      <point x="886.1426666666666" y="937.6473333333333"/>
      <point x="870.0" y="909.0386666666667"/>
      <point x="870.0" y="881.1666666666666" type="curve" smooth="yes"/>
      <point x="870.0" y="829.0853333333333"/>
      <point x="925.54" y="794.0033333333333"/>
      <point x="1096.1666666666667" y="737.5" type="curve" smooth="yes"/>
      <point x="1352.1066666666668" y="650.4"/>
      <point x="1413.5" y="525.94"/>
      <point x="1413.5" y="337.0" type="curve" smooth="yes"/>
      <point x="1413.5" y="74.35999999999996"/>
      <point x="1268.676" y="-30.0"/>
      <point x="960.8333333333334" y="-30.0" type="curve" smooth="yes"/>
      <point x="691.7166666666667" y="-30.0"/>
      <point x="523.3333333333334" y="102.29399999999998"/>
      <point x="523.3333333333334" y="338.0" type="curve" smooth="yes"/>
      <point x="523.3333333333334" y="352.5" type="line"/>
      <point x="823.8333333333334" y="351.5" type="line"/>
      <point x="823.8333333333334" y="332.0" type="line" smooth="yes"/>
      <point x="823.8333333333334" y="229.66866666666664"/>
      <point x="877.4173333333334" y="180.0"/>
      <point x="954.3333333333334" y="180.0" type="curve" smooth="yes"/>
      <point x="1064.392" y="180.0"/>
      <point x="1112.0" y="229.5533333333333"/>
      <point x="1112.0" y="330.5" type="curve" smooth="yes"/>
      <point x="1112.0" y="430.33000000000004"/>
      <point x="1087.0666666666668" y="469.47"/>
      <point x="872.6666666666666" y="542.5" type="curve" smooth="yes"/>
      <point x="661.6613333333335" y="611.7333333333333"/>
      <point x="571.8333333333334" y="713.1113333333334"/>
      <point x="571.8333333333334" y="833.6666666666666" type="curve" smooth="yes"/>
      <point x="571.8333333333334" y="903.972"/>
      <point x="604.8486666666668" y="980.7473333333332"/>
      <point x="682.1666666666666" y="1069.5" type="curve" smooth="yes"/>
      <point x="743.1366666666667" y="1121.76"/>
      <point x="768.1666666666666" y="1149.91"/>
      <point x="768.1666666666666" y="1201.5" type="curve" smooth="yes"/>
      <point x="768.1666666666666" y="1276.7186666666669"/>
      <point x="714.59" y="1313.0"/>
      <point x="629.5" y="1313.0" type="curve" smooth="yes"/>
      <point x="519.7093333333332" y="1313.0"/>
      <point x="458.5" y="1215.688"/>
      <point x="458.5" y="1064.0" type="curve" smooth="yes"/>
      <point x="458.5" y="366.5" type="line" smooth="yes"/>
      <point x="458.5" y="124.63"/>
      <point x="331.4366666666667" y="-16.0"/>
      <point x="109.66666666666666" y="-16.0" type="curve" smooth="yes"/>
      <point x="78.17666666666665" y="-16.0"/>
      <point x="15.776666666666667" y="-9.540000000000001"/>
      <point x="-6.333333333333336" y="-1.5" type="curve"/>
      <point x="-8.333333333333336" y="233.5" type="line"/>
      <point x="6.4066666666666645" y="227.47"/>
      <point x="41.36666666666666" y="221.0"/>
      <point x="68.16666666666666" y="221.0" type="curve" smooth="yes"/>
      <point x="138.51666666666668" y="221.0"/>
      <point x="173.66666666666666" y="274.75"/>
      <point x="173.66666666666666" y="392.0" type="curve" smooth="yes"/>
    </contour>
  </outline>
</glyph>
<glyph name="quotedblright" format="2">
  <advance width="1074"/>
  <unicode hex="201D"/>
  <outline>
    <contour>
      <point x="450.0" y="1458.0" type="line"/>
      <point x="450.0" y="1305.0" type="line" smooth="yes"/>
      <point x="450.0" y="1140.85"/>
      <point x="375.12" y="995.23"/>
      <point x="217.0" y="882.0" type="curve"/>
      <point x="45.5" y="1001.0" type="line"/>
      <point x="111.16000000000001" y="1088.1"/>
      <point x="146.5" y="1179.05"/>
      <point x="146.5" y="1303.0" type="curve" smooth="yes"/>
      <point x="146.5" y="1458.0" type="line"/>
    </contour>
    <contour>
      <point x="955.0" y="1458.0" type="line"/>
      <point x="955.0" y="1305.0" type="line" smooth="yes"/>
      <point x="955.0" y="1140.85"/>
      <point x="880.12" y="995.23"/>
      <point x="722.0" y="882.0" type="curve"/>
      <point x="550.5" y="1001.0" type="line"/>
      <point x="616.16" y="1088.1"/>
      <point x="651.5" y="1179.05"/>
      <point x="651.5" y="1303.0" type="curve" smooth="yes"/>
      <point x="651.5" y="1458.0" type="line"/>
    </contour>
  </outline>
</glyph>
<glyph name="quotedblbase" format="2">
  <advance width="1074"/>
  <unicode hex="201E"/>
  <outline>
    <contour>
      <point x="450.0" y="220.0" type="line"/>
      <point x="450.0" y="67.0" type="line" smooth="yes"/>
      <point x="450.0" y="-97.15"/>
      <point x="375.12" y="-242.76999999999998"/>
      <point x="217.0" y="-356.0" type="curve"/>
      <point x="45.5" y="-237.0" type="line"/>
      <point x="111.16000000000001" y="-149.89999999999998"/>
      <point x="146.5" y="-58.95"/>
      <point x="146.5" y="65.0" type="curve" smooth="yes"/>
      <point x="146.5" y="220.0" type="line"/>
    </contour>
    <contour>
      <point x="955.0" y="220.0" type="line"/>
      <point x="955.0" y="67.0" type="line" smooth="yes"/>
      <point x="955.0" y="-97.15"/>
      <point x="880.12" y="-242.76999999999998"/>
      <point x="722.0" y="-356.0" type="curve"/>
      <point x="550.5" y="-237.0" type="line"/>
      <point x="616.16" y="-149.89999999999998"/>
      <point x="651.5" y="-58.95"/>
      <point x="651.5" y="65.0" type="curve" smooth="yes"/>
      <point x="651.5" y="220.0" type="line"/>
    </contour>
  </outline>
</glyph>
<glyph name="commercialMinusSign" format="2">
  <advance width="961"/>
  <unicode hex="2052"/>
  <outline>
    <contour>
      <point x="74.0" y="-2.0" type="line"/>
      <point x="659.0" y="1501.0" type="line"/>
      <point x="875.5" y="1445.5" type="line"/>
      <point x="290.5" y="-57.5" type="line"/>
    </contour>
    <contour>
      <point x="550.5" y="161.5" type="curve" smooth="yes"/>
      <point x="550.5" y="255.3"/>
      <point x="622.99" y="336.5"/>
      <point x="725.5" y="336.5" type="curve" smooth="yes"/>
      <point x="828.6800000000001" y="336.5"/>
      <point x="901.0" y="255.3"/>
      <point x="901.0" y="161.5" type="curve" smooth="yes"/>
      <point x="901.0" y="68.36999999999999"/>
      <point x="828.6800000000001" y="-13.0"/>
      <point x="725.5" y="-13.0" type="curve" smooth="yes"/>
      <point x="622.99" y="-13.0"/>
      <point x="550.5" y="68.36999999999999"/>
    </contour>
    <contour>
      <point x="60.0" y="1291.0" type="curve" smooth="yes"/>
      <point x="60.0" y="1384.8"/>
      <point x="132.49" y="1466.0"/>
      <point x="235.0" y="1466.0" type="curve" smooth="yes"/>
      <point x="338.18" y="1466.0"/>
      <point x="410.5" y="1384.8"/>
      <point x="410.5" y="1291.0" type="curve" smooth="yes"/>
      <point x="410.5" y="1197.87"/>
      <point x="338.18" y="1116.5"/>
      <point x="235.0" y="1116.5" type="curve" smooth="yes"/>
      <point x="132.49" y="1116.5"/>
      <point x="60.0" y="1197.87"/>
    </contour>
  </outline>
</glyph>
<glyph name="peseta" format="2">
  <advance width="1787"/>
  <unicode hex="20A7"/>
  <outline>
    <contour>
      <point x="656.0" y="513.2666666666667" type="curve"/>
      <point x="335.0" y="513.2666666666667" type="line"/>
      <point x="335.0" y="730.2333333333333" type="line"/>
      <point x="628.5" y="730.2333333333333" type="line"/>
      <point x="819.3480000000094" y="730.2333333333333"/>
      <point x="863.5" y="834.9399999999687"/>
      <point x="863.5" y="982.0" type="curve"/>
      <point x="863.5" y="1129.4453333332942"/>
      <point x="819.3480000000094" y="1233.2666666666667"/>
      <point x="628.5" y="1233.2666666666667" type="curve"/>
      <point x="456.5" y="1233.2666666666667" type="line"/>
      <point x="456.5" y="0.0" type="line"/>
      <point x="153.5" y="0.0" type="line"/>
      <point x="153.5" y="1456.0" type="line"/>
      <point x="656.5" y="1456.0" type="line"/>
      <point x="1000.6760000000188" y="1456.0"/>
      <point x="1166.5" y="1280.9460000000033"/>
      <point x="1166.5" y="983.5" type="curve"/>
      <point x="1166.5" y="685.8613333333129"/>
      <point x="1001.5160000000187" y="513.2666666666667"/>
    </contour>
    <contour>
      <point x="1139.7333333333333" y="892.6666666666666" type="line"/>
      <point x="1139.7333333333333" y="974.8333333333334" type="line"/>
      <point x="1721.7333333333333" y="974.8333333333334" type="line"/>
      <point x="1721.7333333333333" y="892.6666666666666" type="line"/>
    </contour>
    <contour>
      <point x="1298.7666666666667" y="1320.0" type="line"/>
      <point x="1586.8" y="1320.0" type="line"/>
      <point x="1586.8" y="308.0" type="line" smooth="yes"/>
      <point x="1586.8" y="213.36066666664325"/>
      <point x="1603.2126666666481" y="183.56666666666666"/>
      <point x="1661.5666666666666" y="183.56666666666666" type="curve" smooth="yes"/>
      <point x="1688.934666666676" y="183.56666666666666"/>
      <point x="1707.7426666666665" y="197.68066666666667"/>
      <point x="1705.8666666666668" y="197.1" type="curve"/>
      <point x="1705.8666666666668" y="-5.800000000000001" type="line"/>
      <point x="1698.2286666666666" y="-17.324"/>
      <point x="1657.4913333332988" y="-35.166666666666664"/>
      <point x="1600.0333333333333" y="-35.166666666666664" type="curve" smooth="yes"/>
      <point x="1409.264666666615" y="-35.166666666666664"/>
      <point x="1298.7666666666667" y="80.11666666670573"/>
      <point x="1298.7666666666667" y="308.9" type="curve"/>
    </contour>
  </outline>
</glyph>
<glyph name="uni20B1" format="2">
  <advance width="1185"/>
  <unicode hex="20B1"/>
  <outline>
    <contour>
      <point x="562.8333333333334" y="387.0" type="curve" smooth="yes"/>
      <point x="321.0" y="387.0" type="line"/>
      <point x="321.0" y="614.5" type="line"/>
      <point x="534.3333333333334" y="614.5" type="line" smooth="yes"/>
      <point x="712.5533333333334" y="614.5"/>
      <point x="763.8333333333334" y="725.18"/>
      <point x="763.8333333333334" y="923.5" type="curve" smooth="yes"/>
      <point x="763.8333333333334" y="1120.48"/>
      <point x="712.5533333333334" y="1227.0"/>
      <point x="534.3333333333334" y="1227.0" type="curve" smooth="yes"/>
      <point x="419.0" y="1227.0" type="line"/>
      <point x="419.0" y="0.0" type="line"/>
      <point x="114.5" y="0.0" type="line"/>
      <point x="114.5" y="1456.0" type="line"/>
      <point x="563.8333333333334" y="1456.0" type="line" smooth="yes"/>
      <point x="900.8433333333335" y="1456.0"/>
      <point x="1066.8333333333333" y="1264.67"/>
      <point x="1066.8333333333333" y="929.0" type="curve" smooth="yes"/>
      <point x="1066.8333333333333" y="606.06"/>
      <point x="901.1833333333334" y="387.0"/>
    </contour>
    <contour>
      <point x="-1.0" y="964.2666666666667" type="line"/>
      <point x="-1.0" y="1122.7333333333333" type="line"/>
      <point x="201.0" y="1122.7333333333333" type="line"/>
      <point x="201.0" y="1097.7333333333333" type="line"/>
      <point x="959.3333333333334" y="1097.7333333333333" type="line"/>
      <point x="959.3333333333334" y="1122.7333333333333" type="line"/>
      <point x="1191.3333333333333" y="1124.7333333333333" type="line"/>
      <point x="1191.3333333333333" y="966.2666666666667" type="line"/>
      <point x="979.3333333333334" y="964.2666666666667" type="line"/>
      <point x="979.3333333333334" y="979.2666666666667" type="line"/>
      <point x="201.0" y="979.2666666666667" type="line"/>
      <point x="201.0" y="964.2666666666667" type="line"/>
    </contour>
    <contour>
      <point x="-1.0" y="714.2666666666667" type="line"/>
      <point x="-1.0" y="872.7333333333333" type="line"/>
      <point x="201.0" y="872.7333333333333" type="line"/>
      <point x="201.0" y="857.7333333333333" type="line"/>
      <point x="979.3333333333334" y="857.7333333333333" type="line"/>
      <point x="979.3333333333334" y="872.7333333333333" type="line"/>
      <point x="1191.3333333333333" y="874.7333333333333" type="line"/>
      <point x="1191.3333333333333" y="716.2666666666667" type="line"/>
      <point x="939.3333333333334" y="714.2666666666667" type="line"/>
      <point x="939.3333333333334" y="738.2666666666667" type="line"/>
      <point x="201.0" y="738.2666666666667" type="line"/>
      <point x="201.0" y="714.2666666666667" type="line"/>
    </contour>
  </outline>
</glyph>
<glyph name="uni20B2" format="2">
  <advance width="1073"/>
  <unicode hex="20B2"/>
  <outline>
    <contour>
      <point x="496.93333333333334" y="-190.0" type="line"/>
      <point x="496.93333333333334" y="57.0" type="line"/>
      <point x="514.9333333333333" y="71.0" type="line"/>
      <point x="514.9333333333333" y="708.0" type="line"/>
      <point x="636.4" y="708.0" type="line"/>
      <point x="636.4" y="70.0" type="line"/>
      <point x="658.4" y="60.0" type="line"/>
      <point x="658.4" y="-190.0" type="line"/>
    </contour>
    <contour>
      <point x="514.9333333333333" y="708.0" type="line"/>
      <point x="514.9333333333333" y="1342.0" type="line"/>
      <point x="499.93333333333334" y="1352.0" type="line"/>
      <point x="499.93333333333334" y="1582.0" type="line"/>
      <point x="651.4" y="1582.0" type="line"/>
      <point x="651.4" y="1352.0" type="line"/>
      <point x="636.4" y="1339.0" type="line"/>
      <point x="636.4" y="708.0" type="line"/>
    </contour>
    <contour>
      <point x="1032.3333333333333" y="755.0" type="line"/>
      <point x="1032.3333333333333" y="452.0" type="line" smooth="yes"/>
      <point x="1032.3333333333333" y="189.35999999999996"/>
      <point x="851.0666666666666" y="-5.0"/>
      <point x="569.6666666666666" y="-5.0" type="curve" smooth="yes"/>
      <point x="273.5266666666667" y="-5.0"/>
      <point x="63.0" y="201.64"/>
      <point x="63.0" y="542.0" type="curve" smooth="yes"/>
      <point x="63.0" y="897.0" type="line" smooth="yes"/>
      <point x="63.0" y="1286.27"/>
      <point x="260.1166666666667" y="1484.5"/>
      <point x="571.6666666666666" y="1484.5" type="curve" smooth="yes"/>
      <point x="808.8466666666666" y="1484.5"/>
      <point x="936.1133333333333" y="1379.49"/>
      <point x="1013.8333333333334" y="1247.5" type="curve"/>
      <point x="833.8333333333334" y="1063.5" type="line"/>
      <point x="760.8033333333334" y="1170.7"/>
      <point x="705.1066666666667" y="1242.5"/>
      <point x="583.1666666666666" y="1242.5" type="curve" smooth="yes"/>
      <point x="443.13666666666666" y="1242.5"/>
      <point x="380.0" y="1152.93"/>
      <point x="380.0" y="899.0" type="curve" smooth="yes"/>
      <point x="380.0" y="544.0" type="line" smooth="yes"/>
      <point x="380.0" y="326.91999999999996"/>
      <point x="432.6866666666667" y="211.5"/>
      <point x="596.1666666666666" y="211.5" type="curve" smooth="yes"/>
      <point x="712.0766666666666" y="211.5"/>
      <point x="761.04" y="289.62"/>
      <point x="775.3333333333334" y="433.0" type="curve" smooth="yes"/>
      <point x="775.3333333333334" y="543.2666666666667" type="line"/>
      <point x="683.3333333333334" y="543.2666666666667" type="line"/>
      <point x="683.3333333333334" y="755.0" type="line"/>
    </contour>
  </outline>
</glyph>
<glyph name="approxequal" format="2">
  <advance width="1024"/>
  <unicode hex="2248"/>
  <outline>
    <contour>
      <point x="126.0" y="687.9333333333333" type="curve"/>
      <point x="126.0" y="946.7333333333333" type="line"/>
      <point x="177.54533333333333" y="1013.644"/>
      <point x="255.59333333333333" y="1053.26"/>
      <point x="328.4" y="1054.6" type="curve" smooth="yes"/>
      <point x="415.67866666666663" y="1055.9399999999998"/>
      <point x="451.74" y="1023.8439999999999"/>
      <point x="521.8666666666667" y="983.7333333333333" type="curve" smooth="yes"/>
      <point x="588.0626666666667" y="943.5333333333333"/>
      <point x="620.5253333333334" y="914.8"/>
      <point x="702.5333333333333" y="914.8" type="curve" smooth="yes"/>
      <point x="775.34" y="914.8"/>
      <point x="847.4546666666666" y="961.696"/>
      <point x="899.0" y="1040.6666666666667" type="curve"/>
      <point x="899.0" y="781.8666666666667" type="line"/>
      <point x="847.4546666666666" y="713.5266666666666"/>
      <point x="776.34" y="673.9333333333333"/>
      <point x="703.5333333333333" y="673.9333333333333" type="curve" smooth="yes"/>
      <point x="621.5253333333334" y="673.9333333333333"/>
      <point x="587.6333333333334" y="703.0959999999999"/>
      <point x="522.8666666666667" y="741.8666666666667" type="curve" smooth="yes"/>
      <point x="452.74" y="783.4066666666666"/>
      <point x="415.67866666666663" y="813.8"/>
      <point x="328.4" y="813.8" type="curve" smooth="yes"/>
      <point x="255.59333333333333" y="813.8"/>
      <point x="177.54533333333333" y="766.904"/>
    </contour>
    <contour>
      <point x="125.0" y="252.33333333333334" type="curve"/>
      <point x="125.0" y="511.1333333333333" type="line"/>
      <point x="176.54533333333333" y="579.4733333333334"/>
      <point x="254.59333333333333" y="617.7266666666667"/>
      <point x="327.4" y="619.0666666666667" type="curve" smooth="yes"/>
      <point x="414.67866666666663" y="620.4066666666668"/>
      <point x="450.74" y="587.244"/>
      <point x="520.8666666666667" y="547.1333333333333" type="curve" smooth="yes"/>
      <point x="587.0626666666667" y="506.93333333333334"/>
      <point x="619.5253333333334" y="479.2"/>
      <point x="701.5333333333333" y="479.2" type="curve" smooth="yes"/>
      <point x="774.34" y="479.2"/>
      <point x="846.4546666666666" y="526.096"/>
      <point x="898.0" y="605.0666666666667" type="curve"/>
      <point x="898.0" y="345.26666666666665" type="line"/>
      <point x="846.4546666666666" y="278.356"/>
      <point x="775.34" y="238.4"/>
      <point x="702.5333333333333" y="238.4" type="curve" smooth="yes"/>
      <point x="620.5253333333334" y="238.4"/>
      <point x="588.0626666666667" y="266.1333333333333"/>
      <point x="521.8666666666667" y="306.3333333333333" type="curve" smooth="yes"/>
      <point x="451.74" y="346.44399999999996"/>
      <point x="414.67866666666663" y="377.2"/>
      <point x="327.4" y="377.2" type="curve" smooth="yes"/>
      <point x="254.59333333333333" y="377.2"/>
      <point x="176.54533333333333" y="331.304"/>
    </contour>
  </outline>
</glyph>
<glyph name="De.bgr" format="2">
  <advance width="1253"/>
  <outline>
    <contour>
      <point x="956.3" y="-290.0" type="line"/>
      <point x="956.3" y="0.0" type="line"/>
      <point x="297.0" y="0.0" type="line"/>
      <point x="297.0" y="-290.0" type="line"/>
      <point x="10.0" y="-290.0" type="line"/>
      <point x="10.0" y="228.73333333333335" type="line"/>
      <point x="1243.3" y="228.73333333333335" type="line"/>
      <point x="1243.3" y="-290.0" type="line"/>
    </contour>
    <contour>
      <point x="1181.7666666666667" y="0.0" type="line"/>
      <point x="865.7" y="0.0" type="line"/>
      <point x="637.7333333333333" y="1011.6666666666666" type="line" smooth="yes"/>
      <point x="623.9313333333334" y="1067.6786666666667"/>
      <point x="614.9099999999999" y="1113.3106666666667"/>
      <point x="610.6666666666667" y="1167.0" type="curve"/>
      <point x="603.7333333333333" y="1167.0" type="line"/>
      <point x="600.16" y="1111.1219999999998"/>
      <point x="589.0986666666666" y="1064.81"/>
      <point x="575.9666666666667" y="1009.2" type="curve" smooth="yes"/>
      <point x="345.2" y="0.0" type="line"/>
      <point x="67.03333333333333" y="0.0" type="line"/>
      <point x="453.43333333333334" y="1463.0" type="line"/>
      <point x="790.8666666666667" y="1463.0" type="line"/>
    </contour>
  </outline>
</glyph>
<glyph name="El.bgr" format="2">
  <advance width="1040"/>
  <outline>
    <contour>
      <point x="1064.7333333333333" y="0.0" type="line"/>
      <point x="746.1666666666666" y="0.0" type="line"/>
      <point x="537.7" y="964.1" type="line" smooth="yes"/>
      <point x="525.9079999999999" y="1019.0400000000001"/>
      <point x="515.3026666666666" y="1066.1653333333331"/>
      <point x="510.3" y="1120.0333333333333" type="curve"/>
      <point x="502.8666666666667" y="1120.0333333333333" type="line"/>
      <point x="499.2933333333333" y="1066.1653333333331"/>
      <point x="489.06199999999995" y="1019.0400000000001"/>
      <point x="476.6" y="964.1" type="curve" smooth="yes"/>
      <point x="260.1333333333333" y="0.0" type="line"/>
      <point x="-17.5" y="0.0" type="line"/>
      <point x="353.9" y="1463.0" type="line"/>
      <point x="691.3333333333334" y="1463.0" type="line"/>
    </contour>
  </outline>
</glyph>
<glyph name="breve.cyr.case" format="2">
  <advance width="1024"/>
  <outline>
    <contour>
      <point x="513.0" y="1813.0" type="curve" smooth="yes"/>
      <point x="630.9694334650325" y="1813.0"/>
      <point x="699.6781599795329" y="1864.0808139757655"/>
      <point x="742.3333333333334" y="2011.5" type="curve"/>
      <point x="920.3333333333334" y="1915.5" type="line"/>
      <point x="843.5905734153642" y="1715.222283701777"/>
      <point x="695.9777777777366" y="1640.0"/>
      <point x="513.0" y="1640.0" type="curve" smooth="yes"/>
      <point x="328.6822222222635" y="1640.0"/>
      <point x="178.58377058311893" y="1715.8708584858005"/>
      <point x="103.16666666666667" y="1915.5" type="curve"/>
      <point x="279.1666666666667" y="2011.5" type="line"/>
      <point x="320.49453507941337" y="1864.7249281895147"/>
      <point x="392.3505665349674" y="1813.0"/>
    </contour>
  </outline>
</glyph>
<glyph name="breve.cyr" format="2">
  <advance width="1030"/>
  <outline>
    <contour>
      <point x="506.5" y="1371.0" type="curve" smooth="yes"/>
      <point x="604.930846846839" y="1371.0"/>
      <point x="661.84" y="1422.4093333333333"/>
      <point x="694.0" y="1559.0" type="curve"/>
      <point x="878.0" y="1470.0" type="line"/>
      <point x="810.2703413996429" y="1270.885755543933"/>
      <point x="672.4366666666443" y="1198.0"/>
      <point x="506.5" y="1198.0" type="curve" smooth="yes"/>
      <point x="340.5850161812206" y="1198.0"/>
      <point x="202.22951219168897" y="1270.8862796870103"/>
      <point x="134.5" y="1470.0" type="curve"/>
      <point x="328.5" y="1559.0" type="line"/>
      <point x="359.99" y="1423.0793333333331"/>
      <point x="411.197690140863" y="1371.0"/>
    </contour>
  </outline>
</glyph>
<glyph name="brevecombstack.case" format="2">
  <advance width="1024"/>
  <outline>
    <contour>
      <point x="756.5" y="1962.0" type="curve"/>
      <point x="903.5" y="1870.0" type="line"/>
      <point x="862.63" y="1760.79"/>
      <point x="713.0" y="1610.0"/>
      <point x="512.0" y="1610.0" type="curve" smooth="yes"/>
      <point x="329.76" y="1610.0"/>
      <point x="172.6" y="1740.52"/>
      <point x="119.0" y="1870.5" type="curve"/>
      <point x="267.0" y="1962.0" type="line"/>
      <point x="315.91" y="1890.31"/>
      <point x="402.78999999999996" y="1820.0"/>
      <point x="512.0" y="1820.0" type="curve" smooth="yes"/>
      <point x="627.91" y="1820.0"/>
      <point x="706.92" y="1885.62"/>
    </contour>
  </outline>
</glyph>
<glyph name="breveinvertedcomb.case" format="2">
  <advance width="1024"/>
  <outline>
    <contour>
      <point x="251.5" y="1613.0" type="curve"/>
      <point x="109.5" y="1707.0" type="line"/>
      <point x="151.71" y="1824.25"/>
      <point x="304.80999999999995" y="1983.0"/>
      <point x="510.5" y="1983.0" type="curve" smooth="yes"/>
      <point x="696.76" y="1983.0"/>
      <point x="858.06" y="1845.8600000000001"/>
      <point x="913.0" y="1706.5" type="curve"/>
      <point x="770.0" y="1613.0" type="line"/>
      <point x="718.41" y="1690.72"/>
      <point x="626.41" y="1768.0"/>
      <point x="510.5" y="1768.0" type="curve" smooth="yes"/>
      <point x="387.89" y="1768.0"/>
      <point x="303.76" y="1696.08"/>
    </contour>
  </outline>
</glyph>
<glyph name="commaaccentcomb.case" format="2">
  <advance width="1024"/>
  <outline>
    <contour>
      <point x="282.5" y="-659.0" type="line"/>
      <point x="324.71" y="-507.58"/>
      <point x="343.64" y="-428.96000000000004"/>
      <point x="382.5" y="-236.0" type="curve"/>
      <point x="687.5" y="-233.5" type="line"/>
      <point x="545.5" y="-662.0" type="line"/>
    </contour>
  </outline>
</glyph>
<glyph name="el.bgr" format="2">
  <advance width="867"/>
  <outline>
    <contour>
      <point x="876.7" y="0.0" type="line"/>
      <point x="575.7" y="0.0" type="line"/>
      <point x="444.26666666666665" y="594.4" type="line" smooth="yes"/>
      <point x="432.47466666666674" y="646.66"/>
      <point x="425.0493333333334" y="687.0066666666667"/>
      <point x="419.6" y="743.7333333333333" type="curve"/>
      <point x="413.1" y="743.7333333333333" type="line"/>
      <point x="409.08000000000004" y="687.0066666666667"/>
      <point x="400.8953333333333" y="649.34"/>
      <point x="388.43333333333334" y="594.4" type="curve" smooth="yes"/>
      <point x="256.43333333333334" y="0.0" type="line"/>
      <point x="-10.0" y="0.0" type="line"/>
      <point x="289.1" y="1055.0" type="line"/>
      <point x="581.6" y="1055.0" type="line"/>
    </contour>
  </outline>
</glyph>
<glyph name="engtail" format="2">
  <advance width="651"/>
  <outline>
    <contour>
      <point x="384.6190476190476" y="201.0" type="line"/>
      <point x="579.0" y="201.0" type="line"/>
      <point x="579.0" y="-118.5" type="line" smooth="yes"/>
      <point x="579.0" y="-312.8"/>
      <point x="458.76" y="-439.5"/>
      <point x="239.0" y="-439.5" type="curve" smooth="yes"/>
      <point x="143.19" y="-439.5"/>
      <point x="47.080000000000005" y="-398.31"/>
      <point x="-2.5" y="-336.0" type="curve"/>
      <point x="86.0" y="-186.0" type="line"/>
      <point x="120.84" y="-221.51"/>
      <point x="172.75904761904764" y="-235.0"/>
      <point x="211.61904761904762" y="-235.0" type="curve" smooth="yes"/>
      <point x="271.2490476190476" y="-235.0"/>
      <point x="295.48904761904765" y="-201.28"/>
      <point x="294.81904761904764" y="-78.0" type="curve" smooth="yes"/>
      <point x="294.81904761904764" y="-26.81838095238095"/>
      <point x="294.81904761904764" y="221.42000000000002"/>
      <point x="294.81904761904764" y="137.0" type="curve"/>
    </contour>
  </outline>
</glyph>
<glyph name="hookabovecombstack.case" format="2">
  <advance width="1024"/>
  <outline>
    <contour>
      <point x="346.0" y="1554.0" type="line"/>
      <point x="346.0" y="1596.5" type="line" smooth="yes"/>
      <point x="346.0" y="1674.89"/>
      <point x="383.4" y="1717.4686666666669"/>
      <point x="470.5" y="1726.0" type="curve" smooth="yes"/>
      <point x="532.0953333333334" y="1733.37"/>
      <point x="538.5" y="1745.46"/>
      <point x="538.5" y="1787.0" type="curve" smooth="yes"/>
      <point x="538.5" y="1829.6566666666665"/>
      <point x="512.61" y="1838.0"/>
      <point x="457.0" y="1838.0" type="curve" smooth="yes"/>
      <point x="392.68" y="1838.0"/>
      <point x="307.4" y="1809.55"/>
      <point x="294.0" y="1799.5" type="curve"/>
      <point x="236.5" y="1934.5" type="line"/>
      <point x="280.72" y="1958.62"/>
      <point x="389.48" y="1990.0"/>
      <point x="494.0" y="1990.0" type="curve" smooth="yes"/>
      <point x="646.76" y="1990.0"/>
      <point x="726.0" y="1915.76"/>
      <point x="726.0" y="1796.5" type="curve" smooth="yes"/>
      <point x="726.0" y="1673.22"/>
      <point x="654.61" y="1604.4"/>
      <point x="498.5" y="1591.0" type="curve"/>
      <point x="498.5" y="1554.0" type="line"/>
    </contour>
  </outline>
</glyph>
<glyph name="horncomb.case" format="2">
  <advance width="1024"/>
  <outline>
    <contour>
      <point x="382.0" y="1440.1666666666667" type="line"/>
      <point x="463.0" y="1440.1666666666667" type="line" smooth="yes"/>
      <point x="540.05" y="1440.1666666666667"/>
      <point x="596.0" y="1455.7766666666666"/>
      <point x="596.0" y="1534.1666666666667" type="curve" smooth="yes"/>
      <point x="596.0" y="1597.8166666666668"/>
      <point x="587.4" y="1647.4066666666668"/>
      <point x="574.0" y="1699.6666666666667" type="curve"/>
      <point x="734.5" y="1699.6666666666667" type="line"/>
      <point x="761.97" y="1650.0866666666668"/>
      <point x="792.0" y="1563.9766666666667"/>
      <point x="792.0" y="1468.1666666666667" type="curve" smooth="yes"/>
      <point x="792.0" y="1331.4866666666667"/>
      <point x="684.54" y="1281.0666666666666"/>
      <point x="542.5" y="1281.0666666666666" type="curve" smooth="yes"/>
      <point x="474.83" y="1281.0666666666666"/>
      <point x="420.19" y="1292.2446666666667"/>
      <point x="382.0" y="1307.8333333333333" type="curve"/>
    </contour>
  </outline>
</glyph>
<glyph name="nine.prop" format="2">
  <advance width="1031"/>
  <outline>
    <contour>
      <point x="52.06666666666666" y="969.0" type="curve" smooth="yes"/>
      <point x="52.06666666666666" y="1267.82"/>
      <point x="210.6133333333333" y="1471.0"/>
      <point x="496.0333333333333" y="1471.0" type="curve" smooth="yes"/>
      <point x="764.7926666666667" y="1471.0"/>
      <point x="961.2333333333333" y="1288.93"/>
      <point x="961.2333333333333" y="834.0" type="curve" smooth="yes"/>
      <point x="961.2333333333333" y="798.0" type="line" smooth="yes"/>
      <point x="961.2333333333333" y="290.80999999999995"/>
      <point x="710.1833333333334" y="-29.5"/>
      <point x="213.26666666666665" y="-29.5" type="curve" smooth="yes"/>
      <point x="189.46666666666667" y="-29.5" type="line"/>
      <point x="189.46666666666667" y="203.66666666666669" type="line"/>
      <point x="211.76666666666665" y="203.66666666666669" type="line" smooth="yes"/>
      <point x="508.21933333333334" y="203.66666666666669"/>
      <point x="664.2666666666667" y="371.22999999999996"/>
      <point x="664.2666666666667" y="794.0" type="curve" smooth="yes"/>
      <point x="664.2666666666667" y="842.0" type="line" smooth="yes"/>
      <point x="664.2666666666667" y="1143.768"/>
      <point x="610.952" y="1248.8333333333333"/>
      <point x="495.5333333333333" y="1248.8333333333333" type="curve" smooth="yes"/>
      <point x="388.91400000000004" y="1248.8333333333333"/>
      <point x="355.1" y="1153.2386666666669"/>
      <point x="355.1" y="973.5" type="curve" smooth="yes"/>
      <point x="355.1" y="801.2206666666666"/>
      <point x="392.754" y="700.8"/>
      <point x="498.0333333333333" y="700.8" type="curve" smooth="yes"/>
      <point x="603.6700000000001" y="700.8"/>
      <point x="668.2666666666667" y="796.5706666666666"/>
      <point x="668.2666666666667" y="965.5" type="curve"/>
      <point x="769.1333333333333" y="965.5" type="line"/>
      <point x="769.1333333333333" y="674.8093333333334"/>
      <point x="657.9933333333333" y="484.1333333333333"/>
      <point x="436.0" y="484.1333333333333" type="curve" smooth="yes"/>
      <point x="194.62133333333333" y="484.1333333333333"/>
      <point x="52.06666666666666" y="676.2993333333334"/>
    </contour>
  </outline>
</glyph>
<glyph name="ogonekcomb.case" format="2">
  <advance width="1024"/>
  <outline>
    <contour>
      <point x="204.5" y="-306.5" type="curve" smooth="yes"/>
      <point x="204.5" y="-183.89"/>
      <point x="294.35" y="-66.13000000000001"/>
      <point x="458.5" y="60.5" type="curve"/>
      <point x="580.0" y="0.0" type="line"/>
      <point x="441.1313333333334" y="-135.92066666666668"/>
      <point x="424.0" y="-170.07999999999998"/>
      <point x="424.0" y="-221.0" type="curve" smooth="yes"/>
      <point x="424.0" y="-275.94"/>
      <point x="460.04" y="-308.0"/>
      <point x="519.0" y="-308.0" type="curve" smooth="yes"/>
      <point x="586.0" y="-308.0"/>
      <point x="665.47" y="-285.95"/>
      <point x="738.5" y="-229.0" type="curve"/>
      <point x="803.0" y="-359.0" type="line"/>
      <point x="740.69" y="-443.42"/>
      <point x="611.71" y="-503.0"/>
      <point x="469.0" y="-503.0" type="curve" smooth="yes"/>
      <point x="314.23" y="-503.0"/>
      <point x="204.5" y="-417.05"/>
    </contour>
  </outline>
</glyph>
<glyph name="ringcomb.case" format="2">
  <advance width="1024"/>
  <outline>
    <contour>
      <point x="251.5" y="1821.5" type="curve" smooth="yes"/>
      <point x="251.5" y="1964.21"/>
      <point x="361.91999999999996" y="2072.0"/>
      <point x="512.0" y="2072.0" type="curve" smooth="yes"/>
      <point x="660.07" y="2072.0"/>
      <point x="772.5" y="1964.21"/>
      <point x="772.5" y="1821.5" type="curve" smooth="yes"/>
      <point x="772.5" y="1678.79"/>
      <point x="660.07" y="1573.5"/>
      <point x="512.0" y="1573.5" type="curve"/>
      <point x="361.91999999999996" y="1573.5"/>
      <point x="251.5" y="1678.79"/>
    </contour>
    <contour>
      <point x="405.0" y="1821.5" type="curve" smooth="yes"/>
      <point x="405.0" y="1761.87"/>
      <point x="447.68" y="1715.0"/>
      <point x="512.0" y="1715.0" type="curve" smooth="yes"/>
      <point x="578.33" y="1715.0"/>
      <point x="619.5" y="1757.85"/>
      <point x="619.5" y="1821.5" type="curve" smooth="yes"/>
      <point x="619.5" y="1883.14"/>
      <point x="576.32" y="1930.0"/>
      <point x="512.0" y="1930.0" type="curve" smooth="yes"/>
      <point x="445.67" y="1930.0"/>
      <point x="405.0" y="1885.82"/>
    </contour>
  </outline>
</glyph>
